<?xml version="1.0" encoding="utf-8"?>
<!-- Generator: Adobe Illustrator 24.0.0, SVG Export Plug-In . SVG Version: 6.00 Build 0)  -->
<svg version="1.1" id="Layer_1" xmlns="http://www.w3.org/2000/svg" xmlns:xlink="http://www.w3.org/1999/xlink" x="0px" y="0px"
	 viewBox="0 0 200 200" style="enable-background:new 0 0 200 200;" xml:space="preserve">
<style type="text/css">
	.st0{fill:#F8F8F5;stroke:#000000;stroke-miterlimit:10;}
	.st1{fill:#73F09F;}
	.st2{fill:#071111;}
	.st3{fill:url(#);}
	.st4{fill:#0F2223;}
	.st5{fill:#FFFFFF;stroke:#39B44A;stroke-miterlimit:10;}
	.st6{fill:#FFFFFF;}
	.st7{fill:none;stroke:#000000;stroke-width:8;stroke-linecap:round;stroke-linejoin:round;}
	.st8{fill:#FFFFFF;stroke:#000000;stroke-miterlimit:10;}
	.st9{fill:none;stroke:#000000;stroke-miterlimit:10;}
	.st10{fill:#FFFFFF;stroke:#FFCC3C;stroke-miterlimit:10;}
	.st11{fill:#FFCC3C;}
	.st12{fill:none;stroke:#73F09F;stroke-miterlimit:10;}
	.st13{fill:#050505;}
	.st14{fill:none;stroke:#050505;stroke-miterlimit:10;}
	.st15{fill:none;stroke:#FFFFFF;stroke-miterlimit:10;}
	.st16{fill:#FFFFFF;stroke:#050505;stroke-miterlimit:10;}
	.st17{fill:#39B44A;}
	.st18{fill:#090930;}
	.st19{fill:none;stroke:#39B44A;stroke-width:2;stroke-linejoin:round;stroke-miterlimit:10;}
	.st20{fill:#1CB14F;}
	.st21{fill:#E6E6E5;}
	.st22{fill:#C49A6C;}
	.st23{opacity:0.3;}
	.st24{fill:none;}
	.st25{fill:#73F09F;stroke:#000000;stroke-miterlimit:10;}
	.st26{stroke:#000000;stroke-miterlimit:10;}
	.st27{stroke:#FFFFFF;stroke-miterlimit:10;}
	.st28{fill:#F8F8F5;}
	.st29{fill:#071112;}
	.st30{fill:#606060;}
	.st31{clip-path:url(#SVGID_28_);}
	.st32{fill:#FFFFFF;stroke:#071111;stroke-miterlimit:10;}
	.st33{fill:none;stroke:#FFCC3C;stroke-miterlimit:10;}
	.st34{fill:#F8F8F5;stroke:#050505;stroke-miterlimit:10;}
	.st35{fill:#FFCC3C;stroke:#000000;stroke-miterlimit:10;}
	.st36{stroke:#FFCC3C;stroke-miterlimit:10;}
	.st37{fill:none;stroke:#071111;stroke-miterlimit:10;}
	.st38{clip-path:url(#SVGID_30_);}
	.st39{fill:none;stroke:#071112;stroke-width:2;stroke-linecap:round;stroke-linejoin:round;stroke-miterlimit:10;}
	.st40{clip-path:url(#SVGID_34_);}
	.st41{clip-path:url(#SVGID_36_);}
	.st42{fill:none;stroke:#F8F8F5;stroke-width:2;stroke-miterlimit:10;}
	.st43{fill:none;stroke:#F8F8F5;stroke-miterlimit:10;}
	.st44{fill:#071111;stroke:#000000;stroke-miterlimit:10;}
	.st45{stroke:#F8F8F5;stroke-miterlimit:10;}
	.st46{fill:#FFCC3C;stroke:#F8F8F5;stroke-miterlimit:10;}
	.st47{fill:#071111;stroke:#F8F8F5;stroke-miterlimit:10;}
	.st48{fill:#F8F8F5;stroke:#071111;stroke-miterlimit:10;}
	.st49{fill:#FFCC3C;stroke:#071111;stroke-miterlimit:10;}
	.st50{fill:#F8F8F5;stroke:#FFCC3C;stroke-miterlimit:10;}
</style>
<rect x="-6.59" y="-8.61" class="st1" width="213.99" height="215.77"/>
<path class="st1" d="M100.68,161.93l-0.24,0.04l0.6,0.24C100.9,162.11,100.78,162.01,100.68,161.93z"/>
<path class="st1" d="M86.91,145.19l-3,1.12l-2.99,1.05c-1.99,0.69-5.98,2.03-8.33,2.19c-0.73,0.05-1.56,0.02-2.43-0.05
	c-0.31-0.03-0.63-0.07-0.95-0.11c-1.15-0.15-2.28-0.45-3.36-0.87c-0.4-0.16-0.73-0.29-0.73-0.29c-0.27-0.1-0.25-0.49,0.03-0.57
	c10.62-3.2,15.05-7.02,19.3-8.46c0.58-0.2,1.21-0.18,1.78,0.04l4.88,1.86h0.01l1.93,0.74h0.01
	C93.4,142.93,89.84,144.05,86.91,145.19z"/>
<path class="st1" d="M101.06,162.22l-0.62-0.25l0.23-0.05C100.79,162.01,100.91,162.12,101.06,162.22z"/>
<path class="st4" d="M138.45,163.32c0,4.61-3.3,10.91-6.35,11.46l-5.93-2.86l-5.11-0.52c-0.01,0-0.03,0-0.03,0
	c-0.33,0.06-0.66,0.13-0.96,0.22c0,0-6.17,1.93-6.35,1.93c-0.46,0-0.91-0.18-1.24-0.52l-2.25-2.32c-0.38-0.38-0.29-1.01,0.17-1.28
	l2.04-1.23l-53.52-22.4c-0.66-0.25-1.17-0.8-1.35-1.48c-0.27-1.01-0.39-2.01-0.39-3.02c0-1.63,4.37-9.22,4.89-9.59l0.56-0.4
	c0.66-0.47,1.52-0.56,2.26-0.24c0,0,0.27,0.1,0.78,0.29c7.62,2.83,68.69,25.58,70.54,27.45c0.01-0.01,0.01,0,0.03,0.01
	C137.8,159.58,138.45,161.28,138.45,163.32z"/>
<path class="st4" d="M137.4,144.44l-11.34,4.26l-0.01,0.01c-0.53,0.28-1.03,0.49-1.47,0.54c-1.09,0.15-2.21-0.01-3.23-0.43
	c-3.73-1.51-15.44-6.27-19.66-8.11c-0.25-0.1-0.36-0.32-0.36-0.53c0-0.24,0.15-0.49,0.43-0.57l0.6-0.22l28.47-10.31
	c3.09-0.92,5.93,2.71,7.36,6.69c0,0.01,0,0.03,0,0.03S141.31,143.12,137.4,144.44z"/>
<path class="st4" d="M59.9,160.98l11.34-4.26l0.01-0.01c0.53-0.28,1.03-0.49,1.47-0.54c1.09-0.15,2.21,0.01,3.23,0.43
	c3.73,1.51,15.44,6.27,19.66,8.11c0.25,0.1,0.36,0.32,0.36,0.53c0,0.24-0.15,0.49-0.43,0.57l-0.6,0.22l-28.47,10.31
	c-3.09,0.92-5.93-2.71-7.36-6.69c0-0.01,0-0.03,0-0.03S55.99,162.3,59.9,160.98z"/>
<path class="st4" d="M131.76,96.94c0,19.7-15.97,35.67-35.66,35.67c-19.55,0-35.43-15.73-35.67-35.23
	c-0.11-1.05-0.18-2.13-0.18-3.21c0-2.53,0.32-5,0.93-7.38c1.02-5.56,3.72-13.44,13.34-30.2c0.52-0.88,2.04-0.74,2.29,0.22
	c0.67,2.61,1.42,5.13,2.03,7.13c0.18,0.58,0.64,0.97,1.18,1.16c0.1,0.04,0.19,0.07,0.29,0.09c0.87,0.2,1.89-0.1,2.37-0.92
	c0-0.02,0.01-0.02,0.02-0.04c0.09-0.15,0.17-0.3,0.26-0.46c3.86-6.82,9.81-22.56,8.74-39.75c-0.06-0.97,1.31-1.53,2.14-0.85
	c13.31,10.71,16.75,26.06,17.31,29.04c0.08,0.47,0.46,0.85,0.96,0.95c0.2,0.03,0.41,0.01,0.59-0.13c1.66-1.29,2.63-3.3,3.16-4.85
	c0.27-0.76,1.42-0.89,1.85-0.19C121.8,54.6,131.76,63.94,131.76,96.94z"/>
<path class="st1" d="M113.55,108.96c-0.56,2.23-1.38,4.32-2.43,5.97c-10.62,14.11-31.18,5.87-31.18-11.57
	c0-11.12,17.02-10.67,15.23-27.96c7.91,3.65,14.55,18.73,10.39,26.02c3.39,0.74,5.24-2.86,6.13-4.31c0.19-0.3,0.64-0.29,0.8,0.03
	c0.04,0.09,0.09,0.17,0.13,0.26C114.35,100.97,114.51,105.09,113.55,108.96z"/>
</svg>
