<?xml version="1.0" encoding="UTF-8" standalone="no"?>
<!DOCTYPE svg PUBLIC "-//W3C//DTD SVG 1.1//EN" "http://www.w3.org/Graphics/SVG/1.1/DTD/svg11.dtd">
<svg width="100%" height="100%" viewBox="0 0 273 273" version="1.1" xmlns="http://www.w3.org/2000/svg" xmlns:xlink="http://www.w3.org/1999/xlink" xml:space="preserve" xmlns:serif="http://www.serif.com/" style="fill-rule:evenodd;clip-rule:evenodd;stroke-linejoin:round;stroke-miterlimit:2;">
    <g transform="matrix(1.54632,0,0,1.54632,-142.565,-160.178)">
        <circle cx="179.935" cy="191.502" r="87.728" style="fill:rgb(7,17,18);"/>
    </g>
    <g transform="matrix(0.89117,0,0,0.89117,20.7238,-11.9675)">
        <path d="M88.28,295.54C87.68,297.85 81.97,301.13 79.76,302.02L78.98,302.33L70.98,305.6L70.58,305.77C68.08,306.46 64.77,302.4 63.19,296.7C62.983,295.988 62.826,295.263 62.72,294.53C62.72,294.42 63.07,294.29 63.14,294.37C64.65,296.14 66.71,300.63 68.22,302.21C69.01,303.03 69.76,303.39 70.22,302.9C71.52,301.69 69.04,295.9 68.02,292.61C67.156,289.653 65.373,287.046 62.93,285.17C62.845,285.125 62.791,285.036 62.791,284.94C62.791,284.844 62.845,284.755 62.93,284.71L66.41,283.18C67.122,282.86 67.883,282.661 68.66,282.59C69.429,282.513 70.205,282.557 70.96,282.72C74.003,283.39 76.74,285.051 78.74,287.44C79.125,287.927 79.618,288.317 80.18,288.58C80.69,288.81 81.25,288.99 81.43,288.81C83.43,286.9 78.18,281.67 75.04,279.81C74.98,279.779 74.942,279.717 74.942,279.65C74.942,279.551 75.023,279.47 75.122,279.47C75.125,279.47 75.127,279.47 75.13,279.47C75.338,279.46 75.546,279.455 75.754,279.455C82.841,279.455 88.674,285.287 88.674,292.375C88.674,293.442 88.541,294.505 88.28,295.54Z" style="fill:rgb(109,242,156);fill-rule:nonzero;"/>
    </g>
    <g transform="matrix(0.89117,0,0,0.89117,20.7238,-11.9675)">
        <path d="M97.65,293.65C96.34,294.99 95.71,294.65 95.42,293.57C94.255,289.352 92.327,285.383 89.73,281.86C89.014,280.942 88.422,279.933 87.97,278.86C87.63,277.93 97.27,279.29 97.43,279.35C103.76,281.82 100.75,290.44 97.65,293.65Z" style="fill:rgb(109,242,156);fill-rule:nonzero;"/>
    </g>
    <g transform="matrix(0.89117,0,0,0.89117,20.7238,-11.9675)">
        <path d="M183.92,248.2C181.57,246.94 174.92,242.56 172.27,242.36C170.14,242.21 174.04,240.09 175.61,239.29L180.55,237.66C185.34,236.23 189.77,241.87 191.97,248.06C192.35,251.79 188.09,250.42 183.92,248.2Z" style="fill:rgb(109,242,156);fill-rule:nonzero;"/>
    </g>
    <g transform="matrix(0.89117,0,0,0.89117,20.7238,-11.9675)">
        <path d="M193.39,256.63C193.22,259.01 192.39,260.83 190.75,261.51L190.45,261.61C184.99,262.61 180.06,259.75 176.8,257.61C173.07,255.13 167.8,248.78 163.28,248.22C161.48,247.99 158.33,247.83 155.2,247.71C153.53,247.64 159.49,245.29 162.68,243.86C167.68,242.62 174.21,246.86 177.16,248.41C181.48,250.67 184.66,252.94 189.16,254.24C190.803,254.525 192.298,255.37 193.39,256.63Z" style="fill:rgb(109,242,156);fill-rule:nonzero;"/>
    </g>
    <g transform="matrix(0.89117,0,0,0.89117,20.7238,-11.9675)">
        <path d="M70.26,241.12C70.947,240.417 71.693,239.775 72.49,239.2L73.35,238.57C74.371,237.828 75.714,237.683 76.87,238.19L82.37,240.3C82.45,240.332 82.502,240.409 82.502,240.495C82.502,240.581 82.45,240.658 82.37,240.69C81.479,241.043 80.568,241.34 79.64,241.58C73.73,243.14 70.18,242.47 70.26,241.12Z" style="fill:rgb(109,242,156);fill-rule:nonzero;"/>
    </g>
    <g transform="matrix(0.89117,0,0,0.89117,20.7238,-11.9675)">
        <path d="M133.05,286.54C132.84,286.38 132.64,286.23 132.48,286.09L132.11,286.17L133.11,286.56L133.05,286.54ZM99.59,246.87L91.86,243.87C91.731,243.82 91.597,243.787 91.46,243.77C87.69,243.42 82.81,244.36 80.88,244.71C74.74,245.79 68.81,244.3 66.72,246.26C66.585,246.389 66.479,246.546 66.41,246.72C64.771,250.504 64.447,254.73 65.49,258.72C65.785,259.781 66.57,260.64 67.6,261.03C68.059,261.208 68.547,261.299 69.04,261.3L69.38,261.3C70.5,261.2 72.38,261.03 73.5,260.85C74.32,260.74 95.31,254.29 100.13,249.26C100.378,248.985 100.516,248.627 100.516,248.256C100.516,247.65 100.149,247.102 99.59,246.87ZM80.94,252.75C79.688,253.512 78.37,254.158 77,254.68C71.32,256.97 67.19,255.57 72.68,252.03C74.895,250.547 77.541,249.843 80.2,250.03C80.986,250.065 81.614,250.721 81.614,251.509C81.614,252.009 81.36,252.477 80.94,252.75Z" style="fill:rgb(109,242,156);fill-rule:nonzero;"/>
    </g>
    <g transform="matrix(0.89117,0,0,0.89117,20.7238,-11.9675)">
        <path d="M146.78,291.94C143.39,293.33 133.11,286.57 133.11,286.57C132.89,286.41 132.7,286.24 132.52,286.1C128.57,282.77 133.52,281.61 135.32,282.1C136.865,282.649 138.323,283.417 139.65,284.38C142.73,286.44 146.12,289.3 147.08,290.68C147.187,290.826 147.244,291.002 147.244,291.182C147.244,291.502 147.065,291.795 146.78,291.94Z" style="fill:rgb(109,242,156);fill-rule:nonzero;"/>
    </g>
    <g transform="matrix(0.89117,0,0,0.89117,20.7238,-11.9675)">
        <path d="M187.68,281.32C187.68,281.32 175.9,276.26 175.87,276.26C173.542,275.431 171.172,274.723 168.77,274.14C168.508,274.098 168.245,274.071 167.98,274.06C166.23,274.06 167.6,275.41 169.26,277.17C170.46,278.296 171.455,279.622 172.2,281.09C174.71,287.71 171.91,291.79 170.76,285.52C170.38,283.42 168.5,280.79 165.76,278.03C163.38,275.65 160.17,273.39 157.02,270.85C152.07,266.85 133.02,259.7 132.49,259.56C122.3,256.66 116.27,260.79 110.8,263.22C107.66,264.613 104.517,265.99 101.37,267.35C100.14,267.87 98.45,268.5 96.84,269.09C96.579,269.18 96.35,269.343 96.18,269.56C95.949,269.894 95.825,270.291 95.825,270.697C95.825,271.65 96.505,272.477 97.44,272.66C99.119,272.97 100.841,272.97 102.52,272.66C106.53,271.829 110.49,270.771 114.38,269.49C122.11,267.05 130.7,265.6 138.25,268.55C141.941,269.976 145.484,271.758 148.83,273.87C151.732,275.697 154.431,277.829 156.88,280.23C163.98,287.23 166.88,294.62 169.38,299.29C169.961,300.408 170.944,301.265 172.13,301.69C173.13,302.03 174.31,302.04 174.68,300.69L175.37,298.22C175.689,297.13 175.288,295.949 174.37,295.28L170.55,292.52C170.359,292.427 170.238,292.232 170.238,292.02C170.238,291.715 170.49,291.463 170.795,291.463C170.88,291.463 170.964,291.483 171.04,291.52L175.24,292.88C176.394,293.232 177.647,292.73 178.24,291.68C179.36,289.68 180.85,287.31 181.69,286.02C181.896,285.699 182.252,285.504 182.633,285.504C182.882,285.504 183.124,285.587 183.32,285.74C183.737,286.046 183.888,286.606 183.68,287.08C182.27,290.37 177.29,302.78 181.32,306.08C188.12,304.82 195.74,285.06 187.68,281.32Z" style="fill:rgb(109,242,156);fill-rule:nonzero;"/>
    </g>
    <g transform="matrix(0.89117,0,0,0.89117,20.7238,-11.9675)">
        <path d="M178,262.94C172.27,260.06 168.41,255.47 165.36,253.27C162.57,251.27 153.69,251.37 146.8,251.79C142.891,251.833 139.022,252.582 135.38,254C134.991,254.115 134.721,254.474 134.72,254.88C134.72,255.241 134.937,255.569 135.27,255.71C141.82,258.58 160.03,265.96 165.81,268.3C167.388,268.962 169.112,269.2 170.81,268.99C173.84,268.59 179.25,263.59 178,262.94ZM169.1,265.58C168.853,265.578 168.612,265.501 168.41,265.36C164.36,262.54 159.753,260.617 154.9,259.72L152.9,259.35C150.544,258.918 148.279,258.089 146.2,256.9C146.018,256.79 145.906,256.591 145.906,256.378C145.906,256.044 146.182,255.768 146.516,255.768C146.531,255.768 146.545,255.769 146.56,255.77L151.56,256.2C158.401,256.789 164.911,259.412 170.25,263.73L170.34,264.09C170.361,264.18 170.371,264.272 170.371,264.364C170.371,265.033 169.82,265.584 169.151,265.584C169.117,265.584 169.084,265.583 169.05,265.58L169.1,265.58Z" style="fill:rgb(109,242,156);fill-rule:nonzero;"/>
    </g>
    <g transform="matrix(0.89117,0,0,0.89117,20.7238,-11.9675)">
        <path d="M164.12,300.82C163.616,300.899 163.118,301.012 162.63,301.16L157.77,302.7C156.037,301.839 154.403,300.789 152.9,299.57C152.609,299.329 152.244,299.197 151.866,299.197C151.368,299.197 150.897,299.427 150.59,299.82C150.43,300.05 152.95,302.05 153.77,303.65C153.788,303.687 153.798,303.728 153.798,303.77C153.798,303.891 153.717,303.998 153.6,304.03C152.628,304.343 151.559,304.075 150.85,303.34L147.36,299.76C147.122,299.52 146.988,299.196 146.988,298.858C146.988,298.409 147.225,297.991 147.61,297.76L150.78,295.85C153.78,294.04 147.26,286.85 143.22,283.48C140.72,281.4 138.14,279.79 136.3,279.41C135.573,279.261 134.832,279.197 134.09,279.22C132.263,279.302 130.458,279.662 128.74,280.29L128.67,280.29C124.632,281.65 120.24,281.533 116.28,279.96L113.43,278.85C112.629,278.571 112.089,277.81 112.089,276.962C112.089,276.484 112.259,276.022 112.57,275.66C115.3,272.37 123.97,268.85 132.44,270.32C137.022,271.125 141.432,272.708 145.48,275C148.408,276.662 151.136,278.655 153.61,280.94C156.012,283.17 158.177,285.643 160.07,288.32C162.397,291.791 164.505,295.405 166.38,299.14C167.24,300.75 165,300.6 164.12,300.82Z" style="fill:rgb(109,242,156);fill-rule:nonzero;"/>
    </g>
    <g transform="matrix(0.89117,0,0,0.89117,20.7238,-11.9675)">
        <path d="M111.1,260.11L106.44,261.84L101.8,263.48C98.71,264.55 92.51,266.63 88.86,266.89C87.6,266.958 86.336,266.927 85.08,266.8C84.6,266.8 84.08,266.7 83.61,266.63C81.821,266.397 80.068,265.943 78.39,265.28L77.25,264.84C77.06,264.775 76.931,264.596 76.931,264.395C76.931,264.194 77.06,264.015 77.25,263.95C93.74,258.95 100.62,253.05 107.25,250.81C108.152,250.51 109.131,250.531 110.02,250.87L117.6,253.77L120.6,254.92C121.19,256.6 115.65,258.34 111.1,260.11Z" style="fill:rgb(109,242,156);fill-rule:nonzero;"/>
    </g>
    <g transform="matrix(0.89117,0,0,0.89117,20.7238,-11.9675)">
        <path d="M133.07,286.56L132.12,286.17L132.48,286.09C132.66,286.23 132.85,286.4 133.07,286.56Z" style="fill:rgb(109,242,156);fill-rule:nonzero;"/>
    </g>
    <g transform="matrix(0.89117,0,0,0.89117,20.7238,-11.9675)">
        <path d="M174.85,69.34C174.427,68.708 173.715,68.327 172.955,68.327C172.036,68.327 171.203,68.882 170.85,69.73C169.7,73.08 167.59,77.47 163.98,80.27C163.616,80.531 163.158,80.626 162.72,80.53C161.682,80.354 160.852,79.559 160.63,78.53C159.41,72.07 151.96,38.77 123.09,15.53C121.28,14.08 118.32,15.29 118.45,17.41C120.81,55.54 107.26,90.35 98.93,104.61C98.91,104.634 98.893,104.661 98.88,104.69C97.781,106.386 95.707,107.195 93.75,106.69C92.273,106.439 91.047,105.397 90.56,103.98C89.23,99.64 87.56,94.17 86.15,88.53C85.61,86.44 82.31,86.12 81.15,88.04C60.28,124.4 54.43,141.46 52.22,153.55C50.877,158.777 50.205,164.153 50.22,169.55C50.228,172.363 50.418,175.172 50.79,177.96C50.86,178.45 50.92,178.96 51,179.42C51.535,182.846 52.354,186.221 53.45,189.51L53.45,189.62C63.289,222.186 93.503,244.621 127.523,244.621C160.526,244.621 190.061,223.507 200.74,192.28C203.523,185.025 204.947,177.32 204.94,169.55C205,124.42 183.82,83.81 174.85,69.34ZM117,170.26C120.94,162.07 135.07,143.35 149.7,118.26C151.98,114.37 157.2,125.8 162.09,139.6C162.225,139.937 162.553,140.159 162.916,140.159C163.243,140.159 163.545,139.978 163.7,139.69C164.62,137.8 165.46,136.15 166.18,134.87C166.7,133.87 167.99,134.24 168.39,135.27C175.39,153.09 174.9,168.76 177.77,177.33C177.798,177.381 177.852,177.413 177.91,177.413C177.968,177.413 178.022,177.381 178.05,177.33C178.93,175.55 179.72,174 180.39,172.79C180.92,171.79 182.14,172.16 182.61,173.19C189.69,188.69 185.61,206.46 171.76,218.19C171.61,218.33 171.47,218.45 171.32,218.57C162.32,226.03 148.76,227.63 137.53,222.92C129.21,219.42 121.3,215.54 124.43,214.53C129.68,212.83 147.01,208.77 144.92,206.85C141.31,203.53 117.16,197.79 128.46,196.49C135.18,195.71 140.29,194.64 142.77,193.02C145.77,191.02 134.36,187.26 129.84,185.14C124.45,182.64 116.27,178.66 116.3,172.93C116.325,171.998 116.564,171.084 117,170.26ZM75.11,157.46C77.2,153.66 77.83,156.81 79.35,162.01C82.67,155.01 85.35,147.61 85.95,141.3C86.4,136.73 96.86,152.48 101.31,163.04C104.46,170.54 107.99,179.84 111.7,182.49C119.97,188.38 136.94,191.49 132.43,192.66L116.67,194.19C108.48,196.78 128.96,203.61 131.34,205.34C133.01,206.57 113.21,209.22 106.53,213.99C100.06,218.59 132.42,229.55 132.42,229.55C133.9,230.09 137.07,232.16 134.42,233.46C132.18,233.67 129.9,233.77 127.6,233.77C95.97,233.77 69.81,213.77 65.5,187.68C63.26,173.94 71.51,164 75.11,157.46Z" style="fill:rgb(109,242,156);fill-rule:nonzero;"/>
    </g>
    <g transform="matrix(0.89117,0,0,0.89117,20.7238,-11.9675)">
        <path d="M174.85,69.34C174.427,68.708 173.715,68.327 172.955,68.327C172.036,68.327 171.203,68.882 170.85,69.73C169.7,73.08 167.59,77.47 163.98,80.27C163.616,80.531 163.158,80.626 162.72,80.53C161.682,80.354 160.852,79.559 160.63,78.53C159.41,72.07 151.96,38.77 123.09,15.53C121.28,14.08 118.32,15.29 118.45,17.41C120.81,55.54 107.26,90.35 98.93,104.61C98.91,104.634 98.893,104.661 98.88,104.69C97.781,106.386 95.707,107.195 93.75,106.69C92.273,106.439 91.047,105.397 90.56,103.98C89.23,99.64 87.56,94.17 86.15,88.53C85.61,86.44 82.31,86.12 81.15,88.04C60.28,124.4 54.43,141.46 52.22,153.55C50.877,158.777 50.205,164.153 50.22,169.55C50.228,172.363 50.418,175.172 50.79,177.96C50.86,178.45 50.92,178.96 51,179.42C51.535,182.846 52.354,186.221 53.45,189.51L53.45,189.62C63.289,222.186 93.503,244.621 127.523,244.621C160.526,244.621 190.061,223.507 200.74,192.28C203.523,185.025 204.947,177.32 204.94,169.55C205,124.42 183.82,83.81 174.85,69.34ZM117,170.26C120.94,162.07 135.07,143.35 149.7,118.26C151.98,114.37 157.2,125.8 162.09,139.6C162.225,139.937 162.553,140.159 162.916,140.159C163.243,140.159 163.545,139.978 163.7,139.69C164.62,137.8 165.46,136.15 166.18,134.87C166.7,133.87 167.99,134.24 168.39,135.27C175.39,153.09 174.9,168.76 177.77,177.33C177.798,177.381 177.852,177.413 177.91,177.413C177.968,177.413 178.022,177.381 178.05,177.33C178.93,175.55 179.72,174 180.39,172.79C180.92,171.79 182.14,172.16 182.61,173.19C189.69,188.69 185.61,206.46 171.76,218.19C171.61,218.33 171.47,218.45 171.32,218.57C162.32,226.03 148.76,227.63 137.53,222.92C129.21,219.42 121.3,215.54 124.43,214.53C129.68,212.83 147.01,208.77 144.92,206.85C141.31,203.53 117.16,197.79 128.46,196.49C135.18,195.71 140.29,194.64 142.77,193.02C145.77,191.02 134.36,187.26 129.84,185.14C124.45,182.64 116.27,178.66 116.3,172.93C116.325,171.998 116.564,171.084 117,170.26ZM75.11,157.46C77.2,153.66 77.83,156.81 79.35,162.01C82.67,155.01 85.35,147.61 85.95,141.3C86.4,136.73 96.86,152.48 101.31,163.04C104.46,170.54 107.99,179.84 111.7,182.49C119.97,188.38 136.94,191.49 132.43,192.66L116.67,194.19C108.48,196.78 128.96,203.61 131.34,205.34C133.01,206.57 113.21,209.22 106.53,213.99C100.06,218.59 132.42,229.55 132.42,229.55C133.9,230.09 137.07,232.16 134.42,233.46C132.18,233.67 129.9,233.77 127.6,233.77C95.97,233.77 69.81,213.77 65.5,187.68C63.26,173.94 71.51,164 75.11,157.46Z" style="fill:rgb(109,242,156);fill-rule:nonzero;"/>
    </g>
</svg>
