<svg id="Layer_1" data-name="Layer 1" xmlns="http://www.w3.org/2000/svg" viewBox="0 0 272.35 319.24"><defs><style>.cls-1{fill:#6df29c;}</style></defs><title>SB_logo</title><path class="cls-1" d="M88.28,295.54c-.6,2.31-6.31,5.59-8.52,6.48l-.78.31-8,3.27-.4.17c-2.5.69-5.81-3.37-7.39-9.07a16,16,0,0,1-.47-2.17c0-.11.35-.24.42-.16,1.51,1.77,3.57,6.26,5.08,7.84.79.82,1.54,1.18,2,.69,1.3-1.21-1.18-7-2.2-10.29a14.51,14.51,0,0,0-5.09-7.44.26.26,0,0,1,0-.46l3.48-1.53a7.06,7.06,0,0,1,2.25-.59,7.43,7.43,0,0,1,2.3.13,14.1,14.1,0,0,1,7.78,4.72,4,4,0,0,0,1.44,1.14c.51.23,1.07.41,1.25.23,2-1.91-3.25-7.14-6.39-9a.18.18,0,0,1,.09-.34A12.92,12.92,0,0,1,88.28,295.54Z"/><path class="cls-1" d="M97.65,293.65c-1.31,1.34-1.94,1-2.23-.08a35.79,35.79,0,0,0-5.69-11.71,13.25,13.25,0,0,1-1.76-3c-.34-.93,9.3.43,9.46.49C103.76,281.82,100.75,290.44,97.65,293.65Z"/><path class="cls-1" d="M183.92,248.2c-2.35-1.26-9-5.64-11.65-5.84-2.13-.15,1.77-2.27,3.34-3.07h0l4.94-1.63c4.79-1.43,9.22,4.21,11.42,10.4v0C192.35,251.79,188.09,250.42,183.92,248.2Z"/><path class="cls-1" d="M193.39,256.63h0c-.17,2.38-1,4.2-2.64,4.88l-.3.1h0c-5.46,1-10.39-1.86-13.65-4-3.73-2.48-9-8.83-13.52-9.39-1.8-.23-4.95-.39-8.08-.51-1.67-.07,4.29-2.42,7.48-3.85h0c5-1.24,11.53,3,14.48,4.55,4.32,2.26,7.5,4.53,12,5.83A7.23,7.23,0,0,1,193.39,256.63Z"/><path class="cls-1" d="M70.26,241.12a17.19,17.19,0,0,1,2.23-1.92l.86-.63a3.56,3.56,0,0,1,3.52-.38l5.5,2.11a.21.21,0,0,1,0,.39,23.14,23.14,0,0,1-2.73.89C73.73,243.14,70.18,242.47,70.26,241.12Z"/><path class="cls-1" d="M133.05,286.54c-.21-.16-.41-.31-.57-.45l-.37.08,1,.39ZM99.59,246.87l-7.73-3a1.67,1.67,0,0,0-.4-.1c-3.77-.35-8.65.59-10.58.94-6.14,1.08-12.07-.41-14.16,1.55a1.29,1.29,0,0,0-.31.46,18.45,18.45,0,0,0-.92,12,3.46,3.46,0,0,0,2.11,2.31,4,4,0,0,0,1.44.27h.34c1.12-.1,3-.27,4.12-.45.82-.11,21.81-6.56,26.63-11.59A1.5,1.5,0,0,0,99.59,246.87Zm-18.65,5.88A24,24,0,0,1,77,254.68c-5.68,2.29-9.81.89-4.32-2.65a12,12,0,0,1,7.52-2A1.48,1.48,0,0,1,80.94,252.75Z"/><path class="cls-1" d="M146.78,291.94c-3.39,1.39-13.67-5.37-13.67-5.37h0c-.22-.16-.41-.33-.59-.47-3.95-3.33,1-4.49,2.8-4a17.12,17.12,0,0,1,4.33,2.28c3.08,2.06,6.47,4.92,7.43,6.3A.85.85,0,0,1,146.78,291.94Z"/><path class="cls-1" d="M187.68,281.32s-11.78-5.06-11.81-5.06a71.39,71.39,0,0,0-7.1-2.12,6.79,6.79,0,0,0-.79-.08h0c-1.75,0-.38,1.35,1.28,3.11a14.15,14.15,0,0,1,2.94,3.92c2.51,6.62-.29,10.7-1.44,4.43-.38-2.1-2.26-4.73-5-7.49-2.38-2.38-5.59-4.64-8.74-7.18-4.95-4-24-11.15-24.53-11.29-10.19-2.9-16.22,1.23-21.69,3.66q-4.71,2.09-9.43,4.13c-1.23.52-2.92,1.15-4.53,1.74a1.43,1.43,0,0,0-.66.47,2,2,0,0,0,1.26,3.1,14,14,0,0,0,5.08,0,107.88,107.88,0,0,0,11.86-3.17c7.73-2.44,16.32-3.89,23.87-.94a61,61,0,0,1,10.58,5.32,48.08,48.08,0,0,1,8.05,6.36c7.1,7,10,14.39,12.5,19.06a5,5,0,0,0,2.75,2.4c1,.34,2.18.35,2.55-1l.69-2.47a2.7,2.7,0,0,0-1-2.94l-3.82-2.76a.54.54,0,0,1,.49-1l4.2,1.36a2.58,2.58,0,0,0,3-1.2c1.12-2,2.61-4.37,3.45-5.66a1.12,1.12,0,0,1,1.63-.28h0a1.11,1.11,0,0,1,.36,1.34c-1.41,3.29-6.39,15.7-2.36,19h0C188.12,304.82,195.74,285.06,187.68,281.32Z"/><path class="cls-1" d="M178,262.94c-5.73-2.88-9.59-7.47-12.64-9.67-2.79-2-11.67-1.9-18.56-1.48A32.45,32.45,0,0,0,135.38,254a.92.92,0,0,0-.66.88.9.9,0,0,0,.55.83c6.55,2.87,24.76,10.25,30.54,12.59a9.82,9.82,0,0,0,5,.69C173.84,268.59,179.25,263.59,178,262.94Zm-8.9,2.64a1.22,1.22,0,0,1-.69-.22,34.67,34.67,0,0,0-13.51-5.64l-2-.37a21.19,21.19,0,0,1-6.7-2.45.61.61,0,0,1,.36-1.13l5,.43a34.42,34.42,0,0,1,18.69,7.53l.09.36A1.22,1.22,0,0,1,169.05,265.58Z"/><path class="cls-1" d="M164.12,300.82h0a11.06,11.06,0,0,0-1.49.34l-4.86,1.54h0a26.32,26.32,0,0,1-4.87-3.13,1.62,1.62,0,0,0-2.31.25c-.16.23,2.36,2.23,3.18,3.83a.27.27,0,0,1-.17.38h0a2.68,2.68,0,0,1-2.75-.69l-3.49-3.58a1.28,1.28,0,0,1,.25-2l3.17-1.91c3-1.81-3.52-9-7.56-12.37-2.5-2.08-5.08-3.69-6.92-4.07a9.57,9.57,0,0,0-2.21-.19,17.92,17.92,0,0,0-5.35,1.07l-.07,0a18,18,0,0,1-12.39-.33l-2.85-1.11a2,2,0,0,1-.86-3.19c2.73-3.29,11.4-6.81,19.87-5.34A40.81,40.81,0,0,1,145.48,275a44,44,0,0,1,8.13,5.94,47.45,47.45,0,0,1,6.46,7.38,100,100,0,0,1,6.31,10.82C167.24,300.75,165,300.6,164.12,300.82Z"/><path class="cls-1" d="M111.1,260.11l-4.66,1.73-4.64,1.64c-3.09,1.07-9.29,3.15-12.94,3.41a24.46,24.46,0,0,1-3.78-.09c-.48,0-1-.1-1.47-.17a21.92,21.92,0,0,1-5.22-1.35l-1.14-.44a.47.47,0,0,1,0-.89c16.49-5,23.37-10.9,30-13.14a4.12,4.12,0,0,1,2.77.06l7.58,2.9h0l3,1.15h0C121.19,256.6,115.65,258.34,111.1,260.11Z"/><path class="cls-1" d="M133.07,286.56l-.95-.39.36-.08C132.66,286.23,132.85,286.4,133.07,286.56Z"/><path class="cls-1" d="M174.85,69.34a2.28,2.28,0,0,0-4,.39c-1.15,3.35-3.26,7.74-6.87,10.54a1.58,1.58,0,0,1-1.26.26,2.58,2.58,0,0,1-2.09-2c-1.22-6.46-8.67-39.76-37.54-63-1.81-1.45-4.77-.24-4.64,1.88,2.36,38.13-11.19,72.94-19.52,87.2a.35.35,0,0,0-.05.08,4.71,4.71,0,0,1-5.13,2,4.1,4.1,0,0,1-3.19-2.71c-1.33-4.34-3-9.81-4.41-15.45-.54-2.09-3.84-2.41-5-.49-20.87,36.36-26.72,53.42-28.93,65.51a63.57,63.57,0,0,0-2,16,65,65,0,0,0,.57,8.41c.07.49.13,1,.21,1.46a62.4,62.4,0,0,0,2.45,10.09l0,.11a77.38,77.38,0,0,0,147.29,2.66,63.3,63.3,0,0,0,4.2-22.73C205,124.42,183.82,83.81,174.85,69.34ZM117,170.26c3.94-8.19,18.07-26.91,32.7-52,2.28-3.89,7.5,7.54,12.39,21.34a.89.89,0,0,0,1.61.09c.92-1.89,1.76-3.54,2.48-4.82.52-1,1.81-.63,2.21.4,7,17.82,6.51,33.49,9.38,42.06a.16.16,0,0,0,.28,0c.88-1.78,1.67-3.33,2.34-4.54.53-1,1.75-.63,2.22.4,7.08,15.5,3,33.27-10.85,45-.15.14-.29.26-.44.38-9,7.46-22.56,9.06-33.79,4.35-8.32-3.5-16.23-7.38-13.1-8.39,5.25-1.7,22.58-5.76,20.49-7.68-3.61-3.32-27.76-9.06-16.46-10.36,6.72-.78,11.83-1.85,14.31-3.47,3-2-8.41-5.76-12.93-7.88-5.39-2.5-13.57-6.48-13.54-12.21A6.06,6.06,0,0,1,117,170.26Zm-41.89-12.8c2.09-3.8,2.72-.65,4.24,4.55,3.32-7,6-14.4,6.6-20.71.45-4.57,10.91,11.18,15.36,21.74,3.15,7.5,6.68,16.8,10.39,19.45,8.27,5.89,25.24,9,20.73,10.17l-15.76,1.53c-8.19,2.59,12.29,9.42,14.67,11.15,1.67,1.23-18.13,3.88-24.81,8.65-6.47,4.6,25.89,15.56,25.89,15.56,1.48.54,4.65,2.61,2,3.91-2.24.21-4.52.31-6.82.31-31.63,0-57.79-20-62.1-46.09C63.26,173.94,71.51,164,75.11,157.46Z"/><path class="cls-1" d="M174.85,69.34a2.28,2.28,0,0,0-4,.39c-1.15,3.35-3.26,7.74-6.87,10.54a1.58,1.58,0,0,1-1.26.26,2.58,2.58,0,0,1-2.09-2c-1.22-6.46-8.67-39.76-37.54-63-1.81-1.45-4.77-.24-4.64,1.88,2.36,38.13-11.19,72.94-19.52,87.2a.35.35,0,0,0-.05.08,4.71,4.71,0,0,1-5.13,2,4.1,4.1,0,0,1-3.19-2.71c-1.33-4.34-3-9.81-4.41-15.45-.54-2.09-3.84-2.41-5-.49-20.87,36.36-26.72,53.42-28.93,65.51a63.57,63.57,0,0,0-2,16,65,65,0,0,0,.57,8.41c.07.49.13,1,.21,1.46a62.4,62.4,0,0,0,2.45,10.09l0,.11a77.38,77.38,0,0,0,147.29,2.66,63.3,63.3,0,0,0,4.2-22.73C205,124.42,183.82,83.81,174.85,69.34ZM117,170.26c3.94-8.19,18.07-26.91,32.7-52,2.28-3.89,7.5,7.54,12.39,21.34a.89.89,0,0,0,1.61.09c.92-1.89,1.76-3.54,2.48-4.82.52-1,1.81-.63,2.21.4,7,17.82,6.51,33.49,9.38,42.06a.16.16,0,0,0,.28,0c.88-1.78,1.67-3.33,2.34-4.54.53-1,1.75-.63,2.22.4,7.08,15.5,3,33.27-10.85,45-.15.14-.29.26-.44.38-9,7.46-22.56,9.06-33.79,4.35-8.32-3.5-16.23-7.38-13.1-8.39,5.25-1.7,22.58-5.76,20.49-7.68-3.61-3.32-27.76-9.06-16.46-10.36,6.72-.78,11.83-1.85,14.31-3.47,3-2-8.41-5.76-12.93-7.88-5.39-2.5-13.57-6.48-13.54-12.21A6.06,6.06,0,0,1,117,170.26Zm-41.89-12.8c2.09-3.8,2.72-.65,4.24,4.55,3.32-7,6-14.4,6.6-20.71.45-4.57,10.91,11.18,15.36,21.74,3.15,7.5,6.68,16.8,10.39,19.45,8.27,5.89,25.24,9,20.73,10.17l-15.76,1.53c-8.19,2.59,12.29,9.42,14.67,11.15,1.67,1.23-18.13,3.88-24.81,8.65-6.47,4.6,25.89,15.56,25.89,15.56,1.48.54,4.65,2.61,2,3.91-2.24.21-4.52.31-6.82.31-31.63,0-57.79-20-62.1-46.09C63.26,173.94,71.51,164,75.11,157.46Z"/></svg>