<?xml version="1.0" encoding="UTF-8" standalone="no"?><!DOCTYPE svg PUBLIC "-//W3C//DTD SVG 1.1//EN" "http://www.w3.org/Graphics/SVG/1.1/DTD/svg11.dtd"><svg width="100%" height="100%" viewBox="0 0 91 87" version="1.1" xmlns="http://www.w3.org/2000/svg" xmlns:xlink="http://www.w3.org/1999/xlink" xml:space="preserve" xmlns:serif="http://www.serif.com/" style="fill-rule:evenodd;clip-rule:evenodd;stroke-linejoin:round;stroke-miterlimit:2;"><g><path d="M44.102,1.734c0.087,0.072 0.164,0.154 0.245,0.232c0.067,0.075 0.144,0.147 0.218,0.212c1.395,1.213 2.877,1.878 4.173,1.878c1.28,0 2.363,-0.618 3.218,-1.831c0.463,-0.656 0.833,-1.441 1.058,-2.225l-0.045,0c-0.225,0.778 -0.589,1.55 -1.045,2.203c-0.852,1.2 -1.923,1.813 -3.186,1.813c-1.286,0 -2.758,-0.666 -4.147,-1.866c-0.074,-0.063 -0.142,-0.138 -0.219,-0.213c-0.077,-0.081 -0.157,-0.159 -0.241,-0.234c-0.624,-0.531 -1.295,-1.022 -1.945,-1.494c-0.099,-0.068 -0.193,-0.137 -0.289,-0.209l-0.071,0c0.113,0.081 0.225,0.159 0.338,0.244c0.649,0.472 1.318,0.959 1.938,1.49Z" style="fill:#171717;fill-rule:nonzero;stroke:#000;stroke-width:0.14px;"/><path d="M2.743,5.669c0.904,-0.819 1.839,-1.666 2.44,-2.878c0.303,-0.616 0.598,-1.591 0.737,-2.791l-0.042,0c-0.135,1.197 -0.434,2.162 -0.733,2.775c-0.592,1.2 -1.524,2.047 -2.43,2.862c-1.052,0.954 -2.138,1.935 -2.675,3.485c-0.02,0.044 -0.032,0.09 -0.045,0.14l0,0.138c0.025,-0.094 0.054,-0.181 0.083,-0.263c0.537,-1.543 1.621,-2.521 2.665,-3.468Z" style="fill:#171717;fill-rule:nonzero;stroke:#000;stroke-width:0.14px;"/><path d="M48.429,2.169c0.444,0 0.875,-0.15 1.27,-0.444c0.37,-0.269 0.553,-0.547 0.743,-0.834c0.077,-0.122 0.164,-0.247 0.26,-0.375c0.077,-0.169 0.139,-0.344 0.193,-0.516l-0.045,0c-0.054,0.169 -0.112,0.331 -0.183,0.491c-0.1,0.128 -0.18,0.253 -0.26,0.378c-0.187,0.287 -0.37,0.556 -0.73,0.825c-0.396,0.287 -0.81,0.434 -1.248,0.434c-1.163,0 -2.282,-1.006 -3.269,-1.89c-0.09,-0.082 -0.174,-0.16 -0.264,-0.238l-0.061,0c0.097,0.087 0.193,0.172 0.296,0.266c0.99,0.893 2.119,1.903 3.298,1.903Z" style="fill:#171717;fill-rule:nonzero;stroke:#000;stroke-width:0.14px;"/><path d="M0.757,12.813c0.209,-1.057 0.405,-2.054 0.707,-2.76c0.508,-1.2 1.566,-2.212 2.684,-3.281c0.692,-0.656 1.399,-1.335 2,-2.081c0.749,-0.932 1.251,-1.738 1.672,-2.691c0.247,-0.559 0.463,-1.206 0.668,-1.831c0.02,-0.057 0.042,-0.116 0.058,-0.169l-0.045,0c-0.016,0.05 -0.035,0.103 -0.051,0.156c-0.206,0.625 -0.418,1.272 -0.666,1.828c-0.421,0.95 -0.922,1.753 -1.671,2.682c-0.602,0.74 -1.309,1.421 -1.994,2.075c-1.125,1.078 -2.186,2.09 -2.697,3.3c-0.302,0.706 -0.498,1.706 -0.707,2.765c-0.199,1.022 -0.408,2.075 -0.714,2.847c-0.003,0.003 -0.006,0.009 -0.006,0.016l0,0.109c0.013,-0.041 0.029,-0.075 0.045,-0.112c0.312,-0.775 0.517,-1.832 0.717,-2.853Z" style="fill:#171717;fill-rule:nonzero;stroke:#000;stroke-width:0.14px;"/><path d="M4.184,25.972c1.462,0.569 3.276,1.269 3.97,2.706c0.045,0.784 -0.235,1.453 -0.537,2.16c-0.424,0.987 -0.903,2.109 -0.633,3.859c0.206,1.331 1.009,2.184 1.942,3.175c0.385,0.409 0.778,0.828 1.154,1.309c0.983,1.256 1.655,2.675 2.176,3.9c0.524,1.219 0.936,2.178 2.312,2.5c0.823,0.191 1.97,0.325 2.758,0.406c0.437,0.044 0.842,0.069 1.205,0.069c0.608,0 1.129,-0.065 1.569,-0.19c0.933,-0.266 1.524,-1.007 2.273,-1.941c0.222,-0.278 0.45,-0.559 0.711,-0.863c0.176,-0.206 0.408,-0.434 0.655,-0.678c0.518,-0.503 1.049,-1.025 1.196,-1.443c0.052,-0.16 0.036,-0.307 0.023,-0.475c-0.013,-0.129 -0.023,-0.269 -0.01,-0.438l0.003,-0.009l-0.006,-0.007c-0.498,-0.64 -1.103,-1.153 -1.691,-1.653c-0.997,-0.847 -1.938,-1.646 -2.295,-2.962c-0.187,-0.694 -0.119,-1.434 0.209,-2.269c0.347,-0.878 1.157,-1.847 2.289,-2.719c0.508,-0.393 1.048,-0.803 1.617,-1.237c2.623,-1.988 5.597,-4.241 7.22,-6.203l0.003,-0.013c0.052,-0.24 0.033,-0.515 -0.038,-0.815c-0.212,-0.825 -0.875,-1.804 -1.823,-2.691c-0.903,-0.838 -1.929,-1.466 -2.749,-1.687c-0.067,-0.019 -0.196,-0.051 -0.334,-0.079c-1.09,-0.237 -2.225,-0.075 -3.318,0.085c-0.945,0.137 -1.842,0.268 -2.713,0.159c-1.881,-0.241 -3.231,-1.466 -3.71,-3.356c-0.627,-2.484 1.109,-4.044 2.787,-5.556c1.238,-1.116 2.524,-2.266 2.858,-3.785c0.322,-1.431 -0.096,-2.978 -0.373,-4c-0.109,-0.412 -0.244,-0.822 -0.389,-1.231l-0.045,0c0.148,0.412 0.28,0.825 0.393,1.244c0.273,1.015 0.691,2.556 0.372,3.978c-0.331,1.506 -1.61,2.653 -2.845,3.765c-1.687,1.516 -3.433,3.085 -2.8,5.594c0.482,1.906 1.855,3.144 3.749,3.385c0.874,0.109 1.771,-0.019 2.723,-0.157c1.09,-0.159 2.218,-0.322 3.305,-0.084c0.131,0.025 0.266,0.059 0.331,0.078c1.626,0.435 4.089,2.569 4.536,4.344c0.08,0.297 0.09,0.565 0.045,0.797c-1.624,1.959 -4.591,4.212 -7.208,6.197c-0.575,0.434 -1.115,0.84 -1.623,1.234c-1.135,0.881 -1.952,1.85 -2.299,2.741c-0.331,0.84 -0.399,1.587 -0.212,2.29c0.363,1.328 1.308,2.135 2.308,2.988c0.585,0.493 1.183,1.006 1.685,1.637c-0.016,0.169 -0.004,0.31 0.006,0.438c0.019,0.165 0.029,0.306 -0.022,0.456c-0.145,0.409 -0.669,0.931 -1.183,1.431c-0.248,0.244 -0.483,0.472 -0.656,0.678c-0.264,0.3 -0.495,0.588 -0.717,0.869c-0.746,0.925 -1.331,1.659 -2.251,1.925c-0.7,0.2 -1.601,0.241 -2.755,0.119c-0.791,-0.085 -1.935,-0.216 -2.755,-0.406c-1.353,-0.313 -1.765,-1.266 -2.282,-2.475c-0.524,-1.229 -1.193,-2.65 -2.18,-3.913c-0.376,-0.478 -0.772,-0.9 -1.154,-1.309c-0.929,-0.982 -1.73,-1.835 -1.935,-3.153c-0.27,-1.738 0.209,-2.854 0.63,-3.838c0.299,-0.712 0.588,-1.384 0.54,-2.178l-0.003,-0.009c-0.701,-1.45 -2.527,-2.163 -3.993,-2.725c-0.399,-0.157 -0.81,-0.316 -1.257,-0.41c-1.039,-0.218 -2.022,-0.337 -2.948,-0.372l0,0.041c0.922,0.031 1.903,0.156 2.938,0.369c0.444,0.093 0.855,0.25 1.251,0.403Z" style="fill:#171717;fill-rule:nonzero;stroke:#000;stroke-width:0.14px;"/><path d="M25.479,1.187c0.115,0.419 0.247,0.841 0.376,1.254c0.276,0.906 0.537,1.762 0.64,2.531c0.077,0.544 0.077,1.109 0.003,1.503c-0.219,1.184 -1.035,2.106 -1.829,3c-0.907,1.022 -1.846,2.084 -1.916,3.559c0.096,1.313 1.62,1.504 3.23,1.703c0.293,0.038 0.602,0.075 0.897,0.122c1.18,0.182 2.54,0.547 3.932,1.053c0.486,0.182 0.955,0.404 1.408,0.622c0.868,0.419 1.688,0.813 2.643,0.919c0.122,0.013 0.247,0.019 0.376,0.019c0.649,0 1.215,-0.178 1.697,-0.347c0.489,-0.169 0.91,-0.347 1.318,-0.528c0.878,-0.375 1.701,-0.728 2.977,-0.838c0.225,-0.025 0.457,-0.034 0.688,-0.034c1.383,0 2.543,0.353 3.665,0.697c0.968,0.297 1.887,0.575 2.839,0.575c0.19,0 0.376,-0.01 0.556,-0.035c1.444,-0.175 2.556,-0.903 3.392,-2.221c0.736,-1.169 1.16,-2.641 1.514,-4.06c0.106,-0.415 0.286,-1.194 0.35,-1.759c0.061,-0.531 -0.022,-0.919 -0.263,-1.188c-0.437,-0.49 -1.312,-0.521 -2.328,-0.55c-0.459,-0.015 -0.935,-0.031 -1.408,-0.093c-1.996,-0.25 -3.671,-0.5 -5.523,-1.253c-1.527,-0.616 -3.051,-1.388 -4.067,-1.922c-1.7,-0.907 -3.629,-2.028 -4.989,-3.916l-0.048,0c1.366,1.906 3.301,3.041 5.018,3.95c1.013,0.537 2.537,1.306 4.067,1.928c1.855,0.75 3.536,1.003 5.536,1.256c0.472,0.057 0.951,0.072 1.411,0.091c1.006,0.031 1.874,0.059 2.302,0.537c0.228,0.26 0.315,0.638 0.251,1.157c-0.065,0.562 -0.245,1.337 -0.348,1.753c-0.704,2.822 -1.716,5.869 -4.873,6.253c-0.18,0.022 -0.364,0.031 -0.55,0.031c-0.945,0 -1.858,-0.278 -2.829,-0.575c-1.122,-0.34 -2.286,-0.697 -3.675,-0.697c-0.231,0 -0.463,0.01 -0.691,0.032c-1.283,0.109 -2.109,0.468 -2.99,0.85c-0.408,0.171 -0.829,0.356 -1.314,0.522c-0.48,0.165 -1.045,0.34 -1.685,0.34c-0.125,0 -0.251,-0.006 -0.37,-0.019c-0.948,-0.1 -1.765,-0.493 -2.63,-0.909c-0.456,-0.219 -0.922,-0.447 -1.411,-0.622c-1.395,-0.509 -2.758,-0.875 -3.938,-1.059c-0.299,-0.047 -0.608,-0.085 -0.9,-0.119c-1.591,-0.203 -3.099,-0.391 -3.199,-1.669c0.074,-1.453 1.01,-2.509 1.91,-3.531c0.797,-0.894 1.617,-1.825 1.842,-3.016c0.074,-0.4 0.067,-0.968 -0.003,-1.518c-0.11,-0.772 -0.373,-1.629 -0.65,-2.535c-0.125,-0.412 -0.254,-0.84 -0.373,-1.256c-0.074,-0.272 -0.154,-0.55 -0.234,-0.819c-0.036,-0.115 -0.068,-0.237 -0.103,-0.356l-0.045,0c0.038,0.125 0.074,0.247 0.106,0.369c0.083,0.269 0.161,0.543 0.238,0.818Z" style="fill:#171717;fill-rule:nonzero;stroke:#000;stroke-width:0.14px;"/><path d="M2.92,2.713c0.428,-0.644 0.81,-1.419 0.817,-2.713l-0.042,0c-0.01,1.281 -0.386,2.053 -0.81,2.691c-0.54,0.809 -1.318,1.293 -2.148,1.809c-0.247,0.156 -0.498,0.312 -0.742,0.478l0,0.05c0.251,-0.172 0.511,-0.331 0.765,-0.491c0.829,-0.518 1.614,-1.006 2.16,-1.824Z" style="fill:#171717;fill-rule:nonzero;stroke:#000;stroke-width:0.14px;"/><path d="M28.231,3.659c0.254,0.553 0.52,1.122 0.607,1.716c0.248,1.631 -0.617,2.691 -1.453,3.719c-0.575,0.7 -1.112,1.356 -1.276,2.169c-0.045,0.206 -0.032,0.331 -0.023,0.49c0.007,0.088 0.013,0.178 0.013,0.303l0,0.007c0.212,0.578 0.849,0.984 1.35,1.221c1.801,0.866 4.736,1.275 6.877,1.575c0.325,0.041 0.646,0.066 0.977,0.066c0.833,0 1.604,-0.137 2.421,-0.281c0.874,-0.153 1.778,-0.313 2.819,-0.313c0.277,0 0.56,0.013 0.833,0.031c0.055,0.007 0.212,0.016 0.415,0.029c0.292,0.015 0.665,0.034 0.926,0.056c0.871,0.062 1.562,0.212 2.228,0.359c0.89,0.194 1.726,0.375 2.967,0.375c0.128,0 0.263,-0.003 0.398,-0.006c0.987,-0.15 1.891,-1.159 2.251,-2.516c0.299,-1.118 0.228,-2.606 -0.855,-3.431c-1.28,-0.969 -5.003,-1.816 -7.002,-1.972c-0.428,-0.037 -0.781,-0.04 -1.125,-0.04c-0.383,-0.003 -0.775,-0.007 -1.29,-0.047c-1.379,-0.122 -2.517,-0.65 -3.816,-1.769c-1.604,-1.384 -2.472,-2.456 -3.716,-4.578c-0.135,-0.228 -0.26,-0.509 -0.376,-0.822l-0.048,0c0.122,0.319 0.247,0.609 0.389,0.841c1.244,2.128 2.115,3.2 3.729,4.59c1.299,1.122 2.446,1.653 3.835,1.775c0.515,0.047 0.91,0.05 1.293,0.05c0.36,0.003 0.694,0.006 1.122,0.041c1.993,0.156 5.703,1 6.982,1.965c1.068,0.807 1.129,2.282 0.836,3.391c-0.354,1.334 -1.247,2.334 -2.215,2.481c-0.132,0.003 -0.264,0.007 -0.392,0.007c-1.231,0 -2.074,-0.185 -2.958,-0.375c-0.669,-0.147 -1.36,-0.294 -2.234,-0.36c-0.261,-0.018 -0.633,-0.044 -0.926,-0.056c-0.203,-0.009 -0.36,-0.019 -0.415,-0.022c-0.276,-0.028 -0.556,-0.037 -0.836,-0.037c-1.044,0 -1.951,0.159 -2.825,0.315c-0.817,0.141 -1.585,0.275 -2.415,0.275c-0.331,0 -0.649,-0.015 -0.971,-0.062c-2.138,-0.3 -5.069,-0.707 -6.863,-1.572c-0.492,-0.231 -1.119,-0.631 -1.328,-1.197c0,-0.122 -0.006,-0.212 -0.01,-0.3c-0.016,-0.156 -0.025,-0.278 0.016,-0.481c0.168,-0.797 0.701,-1.457 1.27,-2.15c0.846,-1.032 1.714,-2.1 1.463,-3.75c-0.09,-0.597 -0.354,-1.175 -0.611,-1.725c-0.103,-0.219 -0.209,-0.444 -0.299,-0.669c-0.331,-0.797 -0.717,-1.869 -0.961,-2.975l-0.042,0c0.248,1.112 0.637,2.194 0.965,2.994c0.09,0.222 0.196,0.447 0.299,0.665Z" style="fill:#171717;fill-rule:nonzero;stroke:#000;stroke-width:0.14px;"/><path d="M4.344,20.116c0.582,-0.628 1.097,-1.3 1.643,-2.007c0.865,-1.125 1.762,-2.284 2.916,-3.24c0.084,-0.075 0.164,-0.153 0.238,-0.235c0.071,-0.072 0.145,-0.147 0.222,-0.212c0.752,-0.647 1.617,-1.166 2.446,-1.663c0.579,-0.35 1.18,-0.706 1.739,-1.109c0.447,-0.319 0.897,-0.656 1.328,-0.978c0.656,-0.494 1.334,-1.003 2.019,-1.46c0.322,-0.215 0.659,-0.424 1.016,-0.643c1.746,-1.085 3.723,-2.31 4.025,-4.528c0.161,-1.172 -0.158,-2.685 -0.833,-4.041l-0.045,0c0.675,1.353 0.994,2.866 0.836,4.037c-0.302,2.201 -2.269,3.419 -4.009,4.494c-0.353,0.222 -0.691,0.432 -1.012,0.644c-0.688,0.462 -1.367,0.972 -2.019,1.462c-0.434,0.325 -0.881,0.66 -1.331,0.979c-0.56,0.4 -1.158,0.762 -1.733,1.106c-0.836,0.503 -1.701,1.022 -2.453,1.669c-0.08,0.068 -0.154,0.147 -0.225,0.218c-0.077,0.075 -0.151,0.157 -0.238,0.225c-1.157,0.96 -2.054,2.122 -2.919,3.247c-0.546,0.71 -1.064,1.378 -1.643,2.003c-1.147,1.247 -2.668,2.088 -4.317,2.425l0,0.044c1.662,-0.344 3.195,-1.187 4.349,-2.437Z" style="fill:#171717;fill-rule:nonzero;stroke:#000;stroke-width:0.14px;"/><path d="M1.769,18.534c0.563,-0.796 0.566,-2.24 0.508,-3.412c-0.048,-0.947 -0.032,-2.753 0.605,-4.256c0.492,-1.147 1.662,-2.169 2.79,-3.153c0.174,-0.15 0.344,-0.301 0.508,-0.451c2.267,-2.006 3.389,-3.809 4.379,-5.893c0.083,-0.175 0.157,-0.366 0.228,-0.55c0.087,-0.228 0.183,-0.46 0.299,-0.685c0.022,-0.047 0.048,-0.093 0.067,-0.134l-0.045,0c-0.019,0.041 -0.041,0.075 -0.064,0.112c-0.116,0.229 -0.206,0.463 -0.296,0.694c-0.07,0.181 -0.144,0.369 -0.231,0.544c-0.987,2.084 -2.103,3.884 -4.363,5.884c-0.167,0.15 -0.34,0.297 -0.508,0.447c-1.134,0.988 -2.308,2.01 -2.803,3.169c-0.64,1.509 -0.656,3.325 -0.608,4.272c0.062,1.169 0.055,2.606 -0.498,3.394c-0.402,0.562 -1.045,0.965 -1.742,1.309l0,0.047c0.71,-0.35 1.363,-0.756 1.774,-1.338Z" style="fill:#171717;fill-rule:nonzero;stroke:#000;stroke-width:0.14px;"/><path d="M0.618,1.119c0.274,-0.275 0.389,-0.7 0.389,-1.119l-0.048,0c0,0.412 -0.116,0.831 -0.37,1.091c-0.176,0.181 -0.382,0.278 -0.594,0.278l0,-0.003l0,0.043c0.222,0 0.437,-0.1 0.623,-0.29Z" style="fill:#171717;fill-rule:nonzero;stroke:#000;stroke-width:0.14px;"/><path d="M13.516,0.647c-0.598,0.684 -1.035,1.615 -1.453,2.519c-0.067,0.137 -0.128,0.272 -0.193,0.409c-0.614,1.287 -1.379,2.894 -2.211,3.991c-0.454,0.596 -1.2,1.028 -1.994,1.481c-1.118,0.644 -2.279,1.312 -2.729,2.541c-0.164,0.44 -0.167,0.928 -0.006,1.534c0.157,0.337 0.43,0.509 0.806,0.509c0.621,0 1.357,-0.465 1.656,-0.715c0.601,-0.494 1.128,-1.172 1.633,-1.835c0.273,-0.353 0.553,-0.722 0.842,-1.056c0.142,-0.156 0.624,-0.694 1.029,-0.925c0.961,-0.55 2.193,-0.972 3.495,-1.416c1.813,-0.618 3.681,-1.256 4.845,-2.293c0.62,-0.544 0.99,-1.397 1.019,-2.338c0.029,-1.006 -0.328,-1.962 -1.016,-2.694c-0.122,-0.128 -0.254,-0.253 -0.396,-0.359l-0.07,0c0.151,0.116 0.299,0.247 0.434,0.391c0.678,0.718 1.038,1.665 1.006,2.659c-0.026,0.928 -0.392,1.775 -1.003,2.312c-1.161,1.029 -3.029,1.666 -4.832,2.282c-1.305,0.447 -2.537,0.865 -3.501,1.418c-0.415,0.241 -0.9,0.779 -1.038,0.938c-0.296,0.331 -0.576,0.703 -0.846,1.059c-0.508,0.657 -1.029,1.335 -1.623,1.822c-0.299,0.247 -1.026,0.71 -1.634,0.71c-0.36,0 -0.62,-0.16 -0.768,-0.485c-0.154,-0.59 -0.151,-1.072 0.007,-1.506c0.446,-1.213 1.601,-1.875 2.713,-2.516c0.794,-0.459 1.546,-0.89 2.006,-1.5c0.833,-1.093 1.594,-2.703 2.215,-3.99c0.061,-0.138 0.125,-0.275 0.19,-0.413c0.421,-0.9 0.858,-1.828 1.449,-2.506c0.226,-0.259 0.486,-0.484 0.772,-0.675l-0.074,0c-0.27,0.184 -0.517,0.403 -0.73,0.647Z" style="fill:#171717;fill-rule:nonzero;stroke:#000;stroke-width:0.14px;"/><path d="M32.249,9.244c0.633,0.159 1.209,0.35 1.366,0.934c0.078,0.309 0.013,0.616 -0.202,0.881c-0.354,0.444 -1.09,0.747 -1.823,0.747c-0.514,0 -0.964,-0.153 -1.263,-0.425l-0.007,-0.015c-0.042,-0.107 -0.087,-0.216 -0.16,-0.297c-0.11,-1.188 1.318,-1.713 2.089,-1.825Zm-2.131,1.844l0.003,0.006c0.074,0.075 0.119,0.181 0.161,0.284l0.009,0.022l0.004,0.013c0.308,0.278 0.768,0.434 1.295,0.434c0.749,0 1.495,-0.31 1.858,-0.763c0.219,-0.278 0.29,-0.593 0.206,-0.915c-0.158,-0.607 -0.752,-0.803 -1.398,-0.966l-0.004,-0.003l-0.003,0.003c-1.099,0.156 -2.234,0.81 -2.131,1.878l0,0.007Z" style="fill:#171717;fill-rule:nonzero;stroke:#000;stroke-width:0.14px;"/><path d="M43.823,10.091c0.925,0 1.764,0.262 2.186,0.678c0.218,0.218 0.324,0.468 0.321,0.75c-0.289,0.825 -1.405,0.947 -2.038,0.947c-0.977,0 -2.077,-0.272 -2.752,-0.679l-0.006,-0.018c-0.045,-0.103 -0.087,-0.213 -0.161,-0.291c0.022,-0.953 1.283,-1.387 2.45,-1.387Zm-2.331,1.696l0.016,0.029l0.006,0.003c0.675,0.412 1.791,0.687 2.778,0.687c0.649,0 1.784,-0.125 2.077,-0.978l0,-0.003c0.006,-0.297 -0.103,-0.559 -0.331,-0.784c-0.428,-0.425 -1.28,-0.688 -2.215,-0.688c-1.193,0 -2.476,0.444 -2.495,1.435l0,0.003l0.009,0.006c0.074,0.078 0.116,0.187 0.155,0.29Z" style="fill:#171717;fill-rule:nonzero;stroke:#000;stroke-width:0.14px;"/><path d="M11.642,26.122c-0.125,-0.488 -0.257,-0.994 -0.321,-1.588c-0.045,-0.393 -0.065,-0.931 0,-1.262c0.176,-0.856 1.253,-1.903 2.391,-2.913c0.685,-0.6 1.579,-1.309 2.412,-1.437c0.106,-0.013 0.225,-0.019 0.356,-0.019c0.624,0 1.415,0.184 2.177,0.369c0.572,0.134 1.115,0.262 1.546,0.3c0.212,0.019 0.434,0.028 0.659,0.028c0.91,0 1.788,-0.153 2.63,-0.303c0.784,-0.135 1.524,-0.266 2.237,-0.266c0.83,0 1.502,0.178 2.113,0.56c1.064,0.671 1.353,1.606 1.507,2.525c-0.244,1.931 -1.697,3.215 -2.983,4.353c-0.855,0.75 -1.749,1.347 -2.617,1.928c-0.807,0.537 -1.633,1.09 -2.446,1.778c-1.916,1.609 -2.881,3.881 -2.575,6.078c0.077,0.566 0.292,1.153 0.498,1.728c0.209,0.572 0.421,1.163 0.492,1.722c0.138,0.991 -0.042,1.766 -0.534,2.306c-0.434,0.485 -1.109,0.75 -1.906,0.75c-0.791,0 -1.611,-0.268 -2.193,-0.712c-0.402,-0.316 -0.726,-0.71 -0.987,-1.05c-1.125,-1.481 -2.057,-3.497 -2.851,-6.169c-0.103,-1.525 0.148,-2.553 0.389,-3.541c0.154,-0.631 0.295,-1.228 0.347,-1.934c0.112,-1.45 -0.116,-2.356 -0.341,-3.231Zm-0.051,5.156c-0.238,0.991 -0.486,2.022 -0.386,3.559c0.794,2.679 1.733,4.697 2.861,6.185c0.264,0.344 0.585,0.737 0.993,1.056c0.586,0.453 1.418,0.722 2.219,0.722c0.807,0 1.495,-0.269 1.941,-0.766c0.496,-0.546 0.679,-1.334 0.544,-2.337c-0.077,-0.563 -0.29,-1.153 -0.495,-1.728c-0.209,-0.572 -0.421,-1.16 -0.495,-1.722c-0.306,-2.181 0.655,-4.444 2.555,-6.044c0.807,-0.684 1.643,-1.237 2.444,-1.772c0.871,-0.581 1.768,-1.184 2.62,-1.934c1.292,-1.138 2.755,-2.431 2.996,-4.381l0,-0.007l0,-0.003c-0.154,-0.922 -0.447,-1.872 -1.527,-2.547c-0.614,-0.39 -1.292,-0.568 -2.132,-0.568c-0.72,0 -1.459,0.131 -2.243,0.268c-0.843,0.147 -1.717,0.3 -2.624,0.3c-0.222,0 -0.443,-0.009 -0.652,-0.025c-0.431,-0.04 -0.974,-0.168 -1.544,-0.306c-0.765,-0.181 -1.559,-0.369 -2.186,-0.369c-0.131,0 -0.254,0.01 -0.363,0.029c-0.845,0.124 -1.746,0.837 -2.433,1.446c-1.145,1.01 -2.225,2.063 -2.405,2.929c-0.068,0.337 -0.045,0.881 -0.003,1.274c0.064,0.601 0.199,1.107 0.324,1.594c0.222,0.872 0.457,1.775 0.341,3.219c-0.055,0.703 -0.196,1.3 -0.35,1.928Z" style="fill:#171717;fill-rule:nonzero;stroke:#000;stroke-width:0.14px;"/><path d="M14.163,26.678c0.122,-1.584 0.569,-2.762 1.395,-3.716c1.16,-1.337 2.266,-1.446 4.275,-1.646c0.145,-0.013 0.287,-0.028 0.441,-0.044c0.736,-0.075 1.459,-0.203 2.102,-0.316c0.573,-0.1 1.119,-0.203 1.598,-0.243c0.216,-0.022 0.425,-0.035 0.624,-0.035c1.466,0 2.054,0.566 2.289,1.038c0.366,0.75 0.116,1.84 -0.65,2.768c-0.183,0.138 -0.324,0.31 -0.463,0.478c-0.18,0.232 -0.35,0.447 -0.617,0.572l-0.006,0.003c-0.852,0.776 -1.817,1.413 -2.832,2.085c-1.45,0.959 -2.945,1.95 -4.279,3.447c-0.238,0.262 -0.46,0.569 -0.676,0.862c-0.597,0.816 -1.157,1.588 -2.038,1.65c-0.72,-0.368 -0.842,-1.125 -0.964,-1.85c-0.032,-0.2 -0.061,-0.387 -0.103,-0.565c-0.006,-0.413 -0.035,-0.879 -0.058,-1.372c-0.055,-0.985 -0.116,-2.1 -0.038,-3.116Zm0.054,4.494c0.042,0.181 0.071,0.365 0.106,0.566c0.113,0.703 0.248,1.503 0.987,1.884l0.013,0c0.903,-0.06 1.469,-0.841 2.074,-1.666c0.215,-0.29 0.437,-0.597 0.675,-0.862c1.327,-1.494 2.826,-2.481 4.272,-3.441c1.016,-0.672 1.981,-1.312 2.833,-2.084c0.273,-0.132 0.456,-0.36 0.633,-0.578c0.135,-0.166 0.273,-0.344 0.456,-0.479c0.778,-0.943 1.036,-2.053 0.656,-2.815c-0.241,-0.481 -0.836,-1.059 -2.324,-1.059c-0.199,0 -0.412,0.012 -0.627,0.031c-0.479,0.047 -1.029,0.143 -1.601,0.247c-0.643,0.112 -1.366,0.24 -2.099,0.318c-0.155,0.016 -0.296,0.025 -0.441,0.044c-1.954,0.191 -3.131,0.313 -4.304,1.656c-0.836,0.96 -1.283,2.147 -1.409,3.741c-0.073,1.019 -0.016,2.134 0.039,3.119c0.029,0.493 0.055,0.962 0.061,1.378Z" style="fill:#171717;fill-rule:nonzero;stroke:#000;stroke-width:0.14px;"/><path d="M42.62,21.384c0.383,-0.247 1.087,-0.365 2.164,-0.365c1.006,0 2.212,0.106 3.272,0.203c0.676,0.056 1.315,0.115 1.855,0.141c2.28,0.109 4.43,0.215 6.076,1.599c1.058,0.891 1.907,1.81 1.637,4.097c-0.122,1.038 -0.614,2.294 -1.132,3.628c-0.09,0.235 -0.186,0.469 -0.273,0.71c-0.058,0.137 -0.109,0.275 -0.161,0.416c-0.466,1.231 -0.871,2.293 -1.662,3.203c-0.906,1.04 -2.106,1.568 -3.572,1.568c-2.404,0 -4.928,-1.4 -6.481,-2.712c-2.318,-1.944 -2.617,-4.678 -2.932,-7.569l-0.041,-0.344c-0.158,-1.031 -0.348,-3.543 1.25,-4.575Zm-1.254,4.922c0.319,2.897 0.621,5.638 2.948,7.597c1.563,1.316 4.09,2.716 6.51,2.716c1.476,0 2.688,-0.528 3.604,-1.578c0.791,-0.913 1.199,-1.979 1.669,-3.216c0.048,-0.138 0.103,-0.275 0.157,-0.416c0.094,-0.24 0.184,-0.475 0.277,-0.706c0.521,-1.337 1.012,-2.594 1.135,-3.641c0.273,-2.303 -0.585,-3.231 -1.653,-4.128c-1.655,-1.396 -3.813,-1.5 -6.098,-1.612c-0.54,-0.028 -1.18,-0.081 -1.855,-0.144c-1.064,-0.094 -2.267,-0.197 -3.276,-0.197c-1.087,0 -1.797,0.119 -2.183,0.369c-1.62,1.044 -1.427,3.578 -1.273,4.616l0.038,0.34Z" style="fill:#171717;fill-rule:nonzero;stroke:#000;stroke-width:0.14px;"/><path d="M43.97,23.641c0.698,-1.044 2.071,-1.182 3.186,-1.182c0.389,0 0.775,0.019 1.171,0.044c1.781,0.094 3.465,0.181 4.786,1.075c1.431,0.969 2.215,2.791 2.087,4.863c-0.113,1.8 -0.814,4.334 -2.431,5.55c-0.565,0.421 -1.282,0.64 -2.131,0.64c-1.72,0 -3.459,-0.875 -4.424,-1.619c-2.067,-1.593 -2.295,-3.643 -2.581,-6.234c-0.003,-0.159 -0.007,-0.319 -0.016,-0.481c-0.023,-0.913 -0.048,-1.856 0.353,-2.656Zm-0.382,3.14c0.28,2.503 0.517,4.663 2.604,6.266c0.968,0.747 2.716,1.619 4.446,1.619c0.858,0 1.585,-0.216 2.157,-0.647c1.627,-1.222 2.334,-3.769 2.447,-5.575c0.128,-2.088 -0.659,-3.922 -2.106,-4.897c-1.328,-0.9 -3.019,-0.994 -4.809,-1.088c-0.393,-0.018 -0.782,-0.037 -1.171,-0.037c-1.125,0 -2.514,0.134 -3.221,1.2c-0.408,0.809 -0.382,1.759 -0.357,2.675c0.003,0.162 0.007,0.322 0.01,0.484Z" style="fill:#171717;fill-rule:nonzero;stroke:#000;stroke-width:0.14px;"/><path d="M18.673,24.697c0.836,-0.844 2.237,-1.144 3.266,-1.144c0.187,0 0.373,0.009 0.547,0.028c0.045,0.05 0.096,0.1 0.144,0.144c0.068,0.062 0.135,0.128 0.184,0.2c-0.09,0.5 -0.54,0.903 -0.923,1.197c-0.981,0.756 -2.324,1.353 -3.507,1.559c-0.071,-0.04 -0.132,-0.1 -0.19,-0.165c-0.055,-0.057 -0.106,-0.11 -0.17,-0.157c-0.023,-0.64 0.192,-1.2 0.649,-1.662Zm-0.694,1.684l0.009,0.007c0.064,0.04 0.116,0.096 0.171,0.153c0.067,0.065 0.131,0.137 0.212,0.178l0.003,0.003l0.01,0c1.192,-0.206 2.543,-0.806 3.533,-1.566c0.392,-0.303 0.852,-0.715 0.942,-1.231l0.003,-0.009l-0.007,-0.01c-0.054,-0.075 -0.128,-0.143 -0.196,-0.209c-0.051,-0.05 -0.103,-0.097 -0.148,-0.147l-0.003,-0.009l-0.009,0c-0.177,-0.019 -0.37,-0.028 -0.56,-0.028c-1.035,0 -2.45,0.306 -3.298,1.156c-0.463,0.475 -0.685,1.043 -0.662,1.703l0,0.009Z" style="fill:#171717;fill-rule:nonzero;stroke:#000;stroke-width:0.14px;"/><path d="M47.757,24.212c0.306,-0.049 0.605,-0.075 0.894,-0.075c1.241,0 2.109,0.447 2.62,0.822c0.891,0.66 1.534,1.785 1.765,3.097c0.225,1.282 -0.003,2.532 -0.614,3.35c-0.556,0.747 -1.347,1.138 -2.279,1.138c-0.711,0 -1.489,-0.235 -2.173,-0.669c-1.836,-1.156 -2.141,-3.484 -2.161,-4.769c-0.025,-1.681 0.653,-2.681 1.948,-2.894Zm0.19,7.697c0.698,0.438 1.476,0.675 2.196,0.675c0.951,0 1.749,-0.397 2.318,-1.159c1.318,-1.766 0.723,-5.106 -1.167,-6.497c-0.511,-0.381 -1.389,-0.831 -2.643,-0.831c-0.292,0 -0.595,0.022 -0.9,0.075c-1.321,0.215 -2.009,1.234 -1.987,2.934c0.02,1.291 0.331,3.635 2.183,4.803Z" style="fill:#171717;fill-rule:nonzero;stroke:#000;stroke-width:0.14px;"/><path d="M5.277,43.3c0.173,0.306 0.34,0.6 0.537,0.841l0.009,0.009c0.274,0.344 0.74,0.919 1.386,0.822c0.697,-0.1 1.617,-0.906 1.45,-2.091c-0.132,-0.943 -0.785,-1.637 -2.058,-2.178c-0.08,-0.034 -0.161,-0.069 -0.247,-0.103c-0.611,-0.25 -1.193,-0.488 -1.46,-1.056c-0.276,-1.122 -0.328,-2.638 -0.389,-4.244c-0.048,-1.331 -0.096,-2.713 -0.283,-3.887c-0.353,-2.266 -1.546,-3.616 -3.649,-4.132c-0.18,-0.044 -0.376,-0.087 -0.578,-0.115l0,0.043c0.199,0.028 0.392,0.066 0.569,0.113c2.083,0.506 3.266,1.85 3.616,4.097c0.184,1.175 0.235,2.553 0.283,3.884c0.058,1.606 0.113,3.125 0.389,4.256c0.277,0.585 0.865,0.825 1.486,1.078c0.086,0.035 0.167,0.066 0.247,0.104c1.257,0.531 1.9,1.215 2.029,2.146c0.164,1.157 -0.73,1.944 -1.412,2.044c-0.62,0.091 -1.077,-0.472 -1.347,-0.803l-0.009,-0.009c-0.196,-0.244 -0.36,-0.532 -0.534,-0.838c-0.543,-0.953 -1.106,-1.944 -2.713,-1.684c-0.759,0.119 -1.614,0.512 -2.604,1.194l0,0.053c0.996,-0.691 1.852,-1.088 2.61,-1.207c1.579,-0.253 2.135,0.722 2.672,1.663Z" style="fill:#171717;fill-rule:nonzero;stroke:#000;stroke-width:0.14px;"/><path d="M1.036,37.887c0.929,-0.996 1.425,-2.465 1.363,-4.04c-0.064,-1.519 -0.646,-2.903 -1.565,-3.713c-0.273,-0.187 -0.556,-0.315 -0.839,-0.384l0,0.041c0.276,0.068 0.553,0.193 0.813,0.372c0.91,0.806 1.489,2.181 1.55,3.684c0.064,1.562 -0.431,3.028 -1.351,4.015c-0.308,0.325 -0.652,0.6 -1.012,0.844l0,0.05c0.373,-0.247 0.726,-0.528 1.041,-0.869Z" style="fill:#171717;fill-rule:nonzero;stroke:#000;stroke-width:0.14px;"/><path d="M35.139,41.572c-1.691,0 -3.671,-0.775 -4.812,-1.881c-0.47,-0.457 -0.833,-1.003 -1.19,-1.572c-0.794,-1.266 -1.52,-2.647 -2.16,-4.107c0.009,-0.131 -0.019,-0.253 -0.048,-0.365c-0.02,-0.072 -0.039,-0.15 -0.049,-0.219c0.142,-1.544 2.334,-3.303 4.115,-3.303c0.158,0 0.309,0.012 0.45,0.041c0.653,0.131 1.508,0.634 2.537,1.503c1.504,1.268 3.575,3.506 4.459,5.64c0.106,0.257 0.235,0.582 0.28,0.85c0.17,1.075 -0.258,2 -1.267,2.744c-0.601,0.441 -1.382,0.669 -2.315,0.669Zm3.617,-3.419c-0.039,-0.272 -0.167,-0.6 -0.277,-0.859c-0.884,-2.141 -2.964,-4.388 -4.471,-5.656c-1.036,-0.872 -1.897,-1.382 -2.556,-1.51c-0.142,-0.028 -0.296,-0.044 -0.457,-0.044c-1.8,0 -4.015,1.782 -4.153,3.344c0.006,0.075 0.026,0.156 0.048,0.228c0.026,0.116 0.055,0.231 0.045,0.356l0.003,0.01c0.64,1.465 1.37,2.85 2.164,4.115c0.36,0.572 0.72,1.122 1.193,1.585c1.147,1.112 3.144,1.894 4.844,1.894c0.942,0 1.73,-0.232 2.344,-0.682c1.022,-0.753 1.453,-1.69 1.273,-2.781Z" style="fill:#171717;fill-rule:nonzero;stroke:#000;stroke-width:0.14px;"/><path d="M36.522,38.406c-0.232,0.878 -1.013,1.378 -2.151,1.378c-0.955,0 -2.019,-0.359 -2.717,-0.912c-1.096,-0.872 -1.466,-2.113 -1.832,-3.638c-0.029,-0.656 0.151,-1.215 0.501,-1.575c0.296,-0.296 0.708,-0.45 1.216,-0.45c0.138,0 0.289,0.013 0.447,0.035c1.739,0.272 4.259,2.387 4.558,4.265c0.039,0.26 0.048,0.638 -0.022,0.897Zm-1.704,-3.684c-0.91,-0.806 -1.987,-1.388 -2.826,-1.516c-0.158,-0.028 -0.309,-0.04 -0.453,-0.04c-0.521,0 -0.939,0.159 -1.248,0.468c-0.36,0.366 -0.537,0.935 -0.511,1.607c0.37,1.534 0.74,2.784 1.852,3.662c0.698,0.563 1.778,0.925 2.739,0.925c1.154,0 1.955,-0.516 2.196,-1.409c0.067,-0.266 0.054,-0.65 0.016,-0.916c-0.139,-0.891 -0.785,-1.906 -1.765,-2.781Z" style="fill:#171717;fill-rule:nonzero;stroke:#000;stroke-width:0.14px;"/><path d="M45.391,49.45c-0.157,0.35 -0.321,0.709 -0.475,1.144c-0.258,0.734 -0.364,1.472 -0.47,2.184c-0.119,0.816 -0.231,1.581 -0.559,2.216l-0.048,0.075c-0.351,0.512 -0.653,0.95 -1.11,1.29c-0.578,0.428 -1.35,0.65 -2.231,0.65c-1.343,0 -2.694,-0.55 -3.427,-1.397c-0.514,-0.599 -0.72,-1.312 -0.582,-2.068c0.232,-1.06 1.148,-1.682 2.109,-2.338c0.888,-0.603 1.798,-1.228 2.142,-2.219c0.228,-0.653 0.118,-1.381 0,-2.153c-0.129,-0.831 -0.258,-1.687 0.054,-2.453c0.437,-1.097 1.762,-2.203 3.077,-2.575c0.254,-0.072 0.482,-0.106 0.72,-0.106c0.103,0 0.209,0.006 0.321,0.022c0.827,0.64 1.061,2.203 1.177,3.49c0.19,2.26 -0.219,3.175 -0.698,4.238Zm-0.453,-7.762l-0.006,-0.004l-0.01,-0.003c-0.116,-0.015 -0.225,-0.022 -0.331,-0.022c-0.241,0 -0.476,0.035 -0.73,0.107c-1.328,0.375 -2.665,1.493 -3.109,2.6c-0.311,0.778 -0.18,1.637 -0.054,2.471c0.115,0.772 0.225,1.497 0.006,2.135c-0.344,0.981 -1.25,1.6 -2.128,2.2c-0.929,0.634 -1.89,1.287 -2.125,2.369c-0.142,0.765 0.064,1.49 0.588,2.093c0.743,0.86 2.1,1.419 3.459,1.419c0.891,0 1.669,-0.234 2.254,-0.662c0.463,-0.341 0.784,-0.807 1.119,-1.297l0.054,-0.081c0.332,-0.641 0.441,-1.41 0.563,-2.232c0.103,-0.709 0.209,-1.447 0.469,-2.175c0.155,-0.431 0.319,-0.794 0.473,-1.137c0.482,-1.066 0.894,-1.991 0.694,-4.26c-0.112,-1.3 -0.347,-2.875 -1.186,-3.521Z" style="fill:#171717;fill-rule:nonzero;stroke:#000;stroke-width:0.14px;"/><path d="M6.569,52.716c-0.276,0.368 -0.694,0.568 -1.18,0.568c-0.688,0 -1.485,-0.443 -1.675,-1.297c-0.077,-0.496 0.187,-1.196 0.666,-1.74c0.382,-0.438 0.842,-0.685 1.247,-0.685c0.238,0 0.457,0.079 0.656,0.244c0.694,0.581 0.845,2.16 0.286,2.91Zm-0.26,-2.941c-0.206,-0.169 -0.434,-0.256 -0.682,-0.256c-0.421,0 -0.887,0.256 -1.283,0.703c-0.482,0.55 -0.752,1.262 -0.671,1.775c0.192,0.875 1.012,1.331 1.716,1.331c0.499,0 0.926,-0.209 1.209,-0.584c0.575,-0.769 0.415,-2.375 -0.289,-2.969Z" style="fill:#171717;fill-rule:nonzero;stroke:#000;stroke-width:0.14px;"/><path d="M20.544,56.309c-0.299,0 -0.543,-0.15 -0.678,-0.418c-0.023,-0.26 0.074,-0.516 0.273,-0.729c0.215,-0.221 0.514,-0.359 0.807,-0.359c0.186,0 0.366,0.059 0.517,0.169c0.02,0.069 0.058,0.134 0.094,0.194c0.035,0.071 0.077,0.137 0.09,0.209c-0.055,0.534 -0.624,0.934 -1.103,0.934Zm1.045,-1.162c-0.029,-0.06 -0.068,-0.125 -0.084,-0.194l-0.003,-0.006l-0.003,-0.006c-0.164,-0.113 -0.354,-0.179 -0.553,-0.179c-0.302,0 -0.614,0.141 -0.836,0.376c-0.209,0.221 -0.309,0.49 -0.286,0.762l0.003,0.006c0.148,0.288 0.399,0.447 0.717,0.447c0.498,0 1.093,-0.419 1.148,-0.975l0,-0.003l0,-0.003c-0.016,-0.081 -0.061,-0.153 -0.103,-0.225Z" style="fill:#171717;fill-rule:nonzero;stroke:#000;stroke-width:0.14px;"/><path d="M78.279,0.753c1.016,0.478 2.209,0.528 3.196,0.135c0.498,-0.204 0.919,-0.507 1.237,-0.888l-0.048,0c-0.312,0.366 -0.714,0.656 -1.202,0.847c-0.978,0.394 -2.161,0.347 -3.164,-0.128c-0.324,-0.153 -0.633,-0.394 -0.929,-0.719l-0.058,0c0.306,0.347 0.631,0.594 0.968,0.753Z" style="fill:#171717;fill-rule:nonzero;stroke:#000;stroke-width:0.14px;"/><path d="M42.318,2.428c0.395,0.272 0.772,0.563 1.135,0.841c0.884,0.669 1.713,1.3 2.633,1.597c1.025,0.5 2.009,0.75 2.945,0.75c0.774,0 1.517,-0.172 2.218,-0.516c2.067,-1.012 3.231,-3.219 3.678,-5.1l-0.045,0c-0.447,1.866 -1.598,4.062 -3.652,5.062c-1.534,0.751 -3.26,0.672 -5.131,-0.231c-0.913,-0.297 -1.743,-0.928 -2.62,-1.6c-0.364,-0.275 -0.74,-0.562 -1.139,-0.837c-0.427,-0.294 -0.871,-0.582 -1.302,-0.856c-0.777,-0.504 -1.539,-0.994 -2.211,-1.538l-0.071,0c0.685,0.556 1.463,1.059 2.26,1.572c0.431,0.278 0.874,0.559 1.302,0.856Z" style="fill:#171717;fill-rule:nonzero;stroke:#000;stroke-width:0.14px;"/><path d="M57.154,3.194c0.28,0.659 0.894,0.981 1.881,0.981c0.498,0 1.016,-0.084 1.434,-0.15l0.013,0c0.09,-0.016 0.189,-0.022 0.292,-0.022c0.393,0 0.794,0.113 1.18,0.222c0.199,0.059 0.408,0.116 0.611,0.156c0.161,0.038 0.321,0.066 0.482,0.097c0.662,0.125 1.35,0.256 1.971,0.535c0.244,0.109 0.498,0.218 0.743,0.318c1.212,0.51 2.462,1.038 3.275,2.063c0.052,0.062 0.097,0.128 0.142,0.19c0.569,0.819 1.061,1.697 1.533,2.55c0.534,0.963 1.087,1.947 1.752,2.85c0.643,0.882 1.508,1.857 2.347,2.8c0.293,0.329 0.566,0.641 0.833,0.944c1.331,1.531 2.588,2.975 4.903,2.975l0.003,0c0.594,0 1.221,-0.091 1.929,-0.275c2.006,-0.522 5.548,-1.834 6.757,-4.681c0.322,-0.753 0.534,-1.806 0.762,-2.916c0.171,-0.84 0.351,-1.709 0.576,-2.431l0,-0.138c-0.248,0.751 -0.434,1.672 -0.614,2.56c-0.229,1.112 -0.444,2.159 -0.759,2.912c-1.206,2.832 -4.736,4.132 -6.732,4.657c-0.704,0.184 -1.331,0.275 -1.919,0.275l-0.003,0c-2.296,0 -3.546,-1.438 -4.868,-2.966c-0.267,-0.303 -0.543,-0.616 -0.836,-0.941c-0.835,-0.943 -1.7,-1.922 -2.35,-2.797c-0.659,-0.899 -1.212,-1.89 -1.745,-2.846c-0.473,-0.85 -0.965,-1.735 -1.534,-2.55c-0.045,-0.066 -0.093,-0.135 -0.144,-0.197c-0.82,-1.032 -2.074,-1.563 -3.289,-2.075c-0.251,-0.103 -0.502,-0.21 -0.743,-0.319c-0.627,-0.278 -1.315,-0.409 -1.98,-0.537c-0.164,-0.032 -0.325,-0.063 -0.482,-0.097c-0.2,-0.041 -0.405,-0.1 -0.608,-0.153c-0.389,-0.113 -0.791,-0.229 -1.193,-0.229c-0.103,0 -0.209,0.01 -0.299,0.022l-0.019,0.003c-0.411,0.069 -0.926,0.147 -1.421,0.147c-0.964,0 -1.569,-0.312 -1.839,-0.95c-0.283,-0.656 -0.189,-1.769 -0.106,-2.756c0.013,-0.147 0.026,-0.287 0.036,-0.425l-0.042,0c-0.01,0.138 -0.02,0.278 -0.032,0.422c-0.087,0.99 -0.177,2.109 0.102,2.772Z" style="fill:#171717;fill-rule:nonzero;stroke:#000;stroke-width:0.14px;"/><path d="M74.518,1.25c1.247,1.644 3.462,2.619 5.918,2.619c0.614,0 1.206,-0.063 1.765,-0.181c2.186,-0.469 2.884,-1.919 3.196,-3.688l-0.042,0c-0.097,0.559 -0.232,1.084 -0.44,1.559c-0.505,1.135 -1.373,1.8 -2.72,2.091c-0.56,0.119 -1.148,0.178 -1.759,0.178c-2.446,0 -4.642,-0.972 -5.883,-2.603c-0.138,-0.347 -0.254,-0.769 -0.366,-1.225l-0.045,0c0.112,0.462 0.234,0.891 0.373,1.247l0.003,0.003Z" style="fill:#171717;fill-rule:nonzero;stroke:#000;stroke-width:0.14px;"/><path d="M62.6,2.109c1.113,0.153 2.174,0.475 3.193,0.785c0.662,0.203 1.343,0.409 2.038,0.572c0.444,0.103 0.887,0.187 1.279,0.243c0.402,0.06 0.756,0.091 1.052,0.091c0.607,0 0.971,-0.125 1.083,-0.369c0.309,-0.65 0.55,-2.062 0.563,-3.431l-0.042,0c-0.013,1.362 -0.251,2.766 -0.556,3.416c-0.106,0.228 -0.463,0.34 -1.048,0.34c-0.293,0 -0.643,-0.028 -1.045,-0.084c-0.392,-0.059 -0.833,-0.141 -1.276,-0.247c-0.695,-0.159 -1.373,-0.369 -2.032,-0.569c-1.026,-0.312 -2.087,-0.634 -3.205,-0.79c-1.1,-0.154 -1.974,-0.885 -2.489,-2.066l-0.048,0c0.521,1.203 1.415,1.95 2.533,2.109Z" style="fill:#171717;fill-rule:nonzero;stroke:#000;stroke-width:0.14px;"/><path d="M87.088,1.056c-0.058,1.5 -0.11,2.8 -1.135,3.566c-1.067,0.803 -2.932,1.031 -4.295,1.197c-0.135,0.019 -0.27,0.037 -0.396,0.053c-0.231,0.028 -0.479,0.044 -0.733,0.044c-1.385,0 -2.864,-0.454 -4.295,-0.891c-1.282,-0.388 -2.604,-0.794 -3.841,-0.863l-0.003,0l-0.004,0.004c-0.704,0.193 -0.881,0.928 -0.813,1.546c0.202,2.419 1.077,4.401 3.035,6.838c0.392,0.491 0.762,0.987 1.115,1.469c0.611,0.812 1.183,1.584 1.852,2.309c1,1.097 2.257,1.647 3.736,1.647c1.713,0 3.639,-0.775 5.288,-2.134c1.698,-1.788 1.955,-4.157 2.07,-6.432c0.01,-0.175 0.013,-0.359 0.02,-0.556c0.022,-0.912 0.051,-2.053 0.514,-2.612c0.405,-0.494 0.881,-0.875 1.37,-1.213l0,-0.05c-0.502,0.344 -0.987,0.728 -1.405,1.241c-0.47,0.568 -0.495,1.712 -0.524,2.631c-0.007,0.197 -0.01,0.384 -0.02,0.556c-0.112,2.266 -0.366,4.632 -2.057,6.406c-1.636,1.351 -3.552,2.125 -5.256,2.125c-1.466,0 -2.717,-0.553 -3.707,-1.634c-0.666,-0.728 -1.238,-1.494 -1.845,-2.312c-0.354,-0.479 -0.727,-0.972 -1.119,-1.463c-1.948,-2.434 -2.823,-4.412 -3.022,-6.822c-0.068,-0.6 0.096,-1.312 0.778,-1.503c1.228,0.072 2.546,0.472 3.826,0.863c1.433,0.434 2.915,0.89 4.307,0.89c0.254,0 0.505,-0.019 0.74,-0.047c0.125,-0.018 0.26,-0.031 0.395,-0.047c1.367,-0.168 3.241,-0.4 4.311,-1.206c1.045,-0.781 1.097,-2.084 1.155,-3.6c0.012,-0.315 0.022,-0.64 0.045,-0.969c0.006,-0.031 0.006,-0.059 0.009,-0.087l-0.045,0c0,0.028 -0.003,0.053 -0.003,0.084c-0.026,0.332 -0.039,0.654 -0.048,0.972Z" style="fill:#171717;fill-rule:nonzero;stroke:#000;stroke-width:0.14px;"/><path d="M87.74,21.272l-0.006,0.003c-0.289,0.225 -0.727,0.562 -0.678,1.028l0.003,0.009l0.006,0.007c0.093,0.072 0.174,0.153 0.248,0.234l0.003,0.003l0.006,0c0.531,0.106 1.074,0.16 1.614,0.16c0.553,0 1.1,-0.057 1.637,-0.163l0,-0.044c-0.537,0.11 -1.084,0.166 -1.637,0.166c-0.537,0 -1.073,-0.053 -1.598,-0.156c-0.073,-0.078 -0.147,-0.156 -0.241,-0.225c-0.038,-0.441 0.367,-0.756 0.659,-0.988l0.007,-0.006c0.514,-0.394 1.183,-0.694 1.893,-1.006c0.309,-0.135 0.618,-0.275 0.917,-0.422l0,-0.047c-0.306,0.15 -0.624,0.294 -0.936,0.428c-0.71,0.319 -1.385,0.616 -1.897,1.019Z" style="fill:#171717;fill-rule:nonzero;stroke:#000;stroke-width:0.14px;"/><path d="M89.566,0.344c0.049,0.565 0.518,1.065 1.007,1.065l0,-0.043c-0.47,0 -0.92,-0.478 -0.962,-1.025c-0.012,-0.119 -0.012,-0.232 -0.003,-0.341l-0.042,0c-0.009,0.109 -0.012,0.225 0,0.344Z" style="fill:#171717;fill-rule:nonzero;stroke:#000;stroke-width:0.14px;"/><path d="M85.191,14.634c-0.826,0.785 -2.003,1.253 -3.147,1.253c-0.708,0 -1.363,-0.181 -1.904,-0.524c-1.147,-0.732 -1.62,-2.141 -2.08,-3.507c-0.212,-0.631 -0.408,-1.225 -0.668,-1.759c-0.081,-0.513 0.218,-0.813 0.948,-0.935c0.804,-0.14 1.653,-0.378 2.472,-0.612c0.724,-0.206 1.412,-0.403 2.045,-0.525c0.293,-0.053 0.579,-0.081 0.855,-0.081c0.929,0 1.749,0.312 2.138,0.818c1.289,1.682 0.694,4.588 -0.659,5.872Zm-1.479,-6.734c-0.28,0 -0.572,0.031 -0.861,0.084c-0.64,0.122 -1.325,0.319 -2.055,0.525c-0.81,0.235 -1.659,0.478 -2.462,0.613c-0.746,0.131 -1.068,0.45 -0.984,0.984l0,0.003c0.26,0.535 0.463,1.128 0.675,1.76c0.46,1.372 0.936,2.79 2.096,3.528c0.544,0.347 1.209,0.528 1.923,0.528c1.16,0 2.343,-0.469 3.176,-1.259c0.685,-0.654 1.186,-1.716 1.337,-2.841c0.164,-1.188 -0.08,-2.312 -0.675,-3.088c-0.395,-0.515 -1.228,-0.837 -2.17,-0.837Z" style="fill:#171717;fill-rule:nonzero;stroke:#000;stroke-width:0.14px;"/><path d="M35.419,22.356c0.379,-0.315 0.82,-0.609 1.177,-0.853c0.16,-0.109 0.299,-0.203 0.411,-0.284c0.505,-0.36 0.965,-0.747 1.411,-1.116c0.865,-0.722 1.685,-1.403 2.601,-1.731c0.453,-0.16 0.929,-0.244 1.46,-0.244c0.958,0 1.941,0.269 2.896,0.531c0.55,0.15 1.113,0.303 1.662,0.404c0.701,0.124 1.425,0.19 2.151,0.19c0.579,0 1.174,-0.041 1.752,-0.125c1.958,-0.275 3.954,-1 6.288,-2.272c0.495,-0.268 0.974,-0.578 1.444,-0.875c0.476,-0.312 0.977,-0.628 1.488,-0.903c0.206,-0.109 0.428,-0.191 0.646,-0.259c0.171,-0.06 0.348,-0.116 0.518,-0.197c0.158,-0.069 0.309,-0.15 0.447,-0.225c0.337,-0.175 0.653,-0.347 1.035,-0.419c0.309,-0.056 0.672,-0.09 1.016,-0.09c0.344,0 0.836,0.034 1.254,0.174c1.257,0.429 2.392,1.166 3.33,1.829c0.229,0.159 0.463,0.331 0.682,0.503c0.276,0.203 0.559,0.418 0.849,0.615c0.257,0.172 0.54,0.303 0.81,0.428c0.244,0.11 0.495,0.222 0.723,0.369c1.299,0.813 2.427,1.988 3.35,3.491c0.878,1.434 1.418,2.565 0.354,4.072c-0.325,0.465 -0.717,0.603 -1.28,0.762c-0.601,0.175 -1.241,0.2 -1.855,0.228c-0.723,0.029 -1.466,0.063 -2.151,0.322c-0.356,0.135 -0.672,0.341 -0.958,0.544c-0.08,0.053 -0.157,0.112 -0.231,0.166c-0.306,0.222 -0.621,0.45 -0.961,0.615c-0.515,0.244 -1.026,0.51 -1.524,0.766c-0.315,0.162 -0.646,0.337 -0.971,0.5c-0.759,0.381 -1.524,0.772 -2.263,1.153c-0.425,0.222 -0.849,0.444 -1.277,0.659l-0.006,0.003c-0.016,0.016 -0.039,0.038 -0.055,0.06c-2.057,1.106 -2.848,2.865 -3.398,4.597c-0.042,0.128 -0.083,0.256 -0.119,0.381c-0.373,1.212 -0.729,2.356 -1.999,2.987c-0.627,0.316 -1.746,0.619 -3.337,0.894c-2.244,0.397 -4.35,0.519 -6.787,0.66l-0.167,0.009c-0.627,-0.391 -1.006,-0.956 -1.408,-1.566c-0.193,-0.29 -0.392,-0.593 -0.621,-0.871c-0.482,-0.579 -1.073,-1.157 -1.703,-1.76c-0.656,-0.644 -1.341,-1.3 -1.897,-1.984c-1.466,-1.788 -2.476,-4.019 -3.45,-6.172c-0.16,-0.353 -0.321,-0.716 -0.482,-1.063c-0.19,-0.403 -0.408,-0.809 -0.624,-1.203c-0.353,-0.662 -0.688,-1.281 -0.884,-1.887c-0.225,-0.713 -0.041,-1.238 0.653,-1.813Zm0.199,3.716c0.212,0.394 0.434,0.8 0.614,1.203c0.164,0.347 0.328,0.709 0.489,1.062c0.974,2.16 1.984,4.391 3.453,6.185c0.562,0.684 1.241,1.34 1.9,1.981c0.63,0.609 1.221,1.178 1.697,1.759c0.232,0.275 0.431,0.575 0.621,0.869c0.405,0.61 0.787,1.188 1.427,1.585l0.006,0.003l0.18,-0.013c2.437,-0.14 4.543,-0.262 6.79,-0.659c1.595,-0.281 2.723,-0.581 3.35,-0.894c1.289,-0.644 1.64,-1.794 2.016,-3.016c0.041,-0.124 0.083,-0.253 0.122,-0.381c0.543,-1.728 1.337,-3.478 3.385,-4.575l0.006,-0.009c0.017,-0.019 0.033,-0.035 0.052,-0.053c0.424,-0.219 0.849,-0.438 1.273,-0.657c0.743,-0.378 1.508,-0.774 2.263,-1.153c0.328,-0.165 0.653,-0.337 0.971,-0.5c0.495,-0.259 1.013,-0.525 1.521,-0.771c0.35,-0.163 0.662,-0.394 0.971,-0.613c0.074,-0.053 0.151,-0.113 0.228,-0.169c0.283,-0.2 0.595,-0.406 0.955,-0.537c0.672,-0.26 1.414,-0.288 2.131,-0.322c0.621,-0.025 1.26,-0.056 1.865,-0.225c0.575,-0.163 0.974,-0.306 1.305,-0.781c1.077,-1.529 0.53,-2.669 -0.35,-4.113c-0.93,-1.512 -2.061,-2.694 -3.363,-3.506c-0.232,-0.147 -0.486,-0.263 -0.733,-0.372c-0.273,-0.125 -0.553,-0.253 -0.804,-0.425c-0.289,-0.194 -0.572,-0.409 -0.845,-0.616c-0.225,-0.168 -0.45,-0.34 -0.682,-0.506c-0.945,-0.662 -2.077,-1.397 -3.343,-1.831c-0.422,-0.144 -0.92,-0.172 -1.267,-0.172c-0.347,0 -0.71,0.031 -1.022,0.091c-0.393,0.071 -0.711,0.24 -1.045,0.418c-0.142,0.078 -0.293,0.157 -0.447,0.232c-0.17,0.071 -0.344,0.131 -0.514,0.187c-0.225,0.075 -0.447,0.15 -0.653,0.263c-0.514,0.275 -1.016,0.596 -1.495,0.906c-0.466,0.3 -0.945,0.609 -1.437,0.878c-2.331,1.272 -4.327,1.988 -6.272,2.262c-0.579,0.082 -1.17,0.125 -1.749,0.125c-0.723,0 -1.447,-0.062 -2.147,-0.19c-0.544,-0.1 -1.106,-0.25 -1.653,-0.4c-0.958,-0.26 -1.945,-0.528 -2.909,-0.528c-0.534,0 -1.016,0.075 -1.469,0.24c-0.926,0.329 -1.746,1.013 -2.621,1.741c-0.446,0.369 -0.903,0.75 -1.401,1.112c-0.116,0.079 -0.257,0.176 -0.415,0.282c-0.357,0.243 -0.797,0.544 -1.18,0.853c-0.704,0.59 -0.9,1.128 -0.668,1.862c0.196,0.603 0.53,1.232 0.893,1.888Z" style="fill:#171717;fill-rule:nonzero;stroke:#000;stroke-width:0.14px;"/><path d="M38.576,23.772c0.267,-1.61 1.713,-3.672 3.446,-4.181c0.354,-0.1 0.724,-0.154 1.132,-0.154c0.755,0 1.504,0.175 2.167,0.332c0.308,0.072 0.604,0.14 0.877,0.187c0.923,0.16 1.929,0.231 3.18,0.231c0.685,0 1.379,-0.018 2.054,-0.04c0.678,-0.022 1.379,-0.044 2.077,-0.044c1.119,0 2.041,0.059 2.9,0.178c0.205,0.035 0.411,0.063 0.61,0.094c0.659,0.1 1.28,0.197 1.897,0.197c0.826,0 1.514,-0.181 2.154,-0.569c0.604,-0.369 1.096,-0.534 1.694,-0.575c0.357,-0.028 0.73,-0.062 1.09,-0.1c0.63,-0.062 1.289,-0.128 1.929,-0.128l0.026,0c1.443,0.003 4.944,0.509 5.96,1.991c0.334,0.49 0.373,1.056 0.106,1.678c-0.36,0.84 -1.466,1.35 -2.305,1.531c-0.161,0.034 -0.321,0.069 -0.485,0.106c-1.158,0.241 -2.151,0.416 -3.038,0.538c-0.235,0.031 -0.466,0.053 -0.688,0.072c-0.585,0.053 -1.142,0.103 -1.714,0.346c-3.15,1.341 -5.224,4.913 -6.41,7.679c-0.894,2.093 -1.669,3.903 -3.784,4.753c-0.804,0.322 -1.964,0.515 -3.106,0.515l-0.003,0c-0.861,0 -1.662,-0.106 -2.318,-0.309c-1.311,-0.403 -2.491,-1.247 -3.867,-2.228l-0.061,-0.044c-2.537,-1.812 -3.794,-3.628 -4.642,-6.694l-0.081,-0.303c-0.289,-1.031 -0.559,-2.006 -0.755,-3.112c-0.132,-0.725 -0.145,-1.344 -0.042,-1.947Zm0.755,5.069l0.081,0.303c0.852,3.075 2.115,4.9 4.665,6.715l0.057,0.047c1.373,0.975 2.559,1.825 3.877,2.231c0.659,0.207 1.466,0.313 2.331,0.313l0.003,0c1.145,0 2.315,-0.194 3.122,-0.519c2.131,-0.856 2.913,-2.668 3.81,-4.775c1.179,-2.756 3.25,-6.319 6.384,-7.656c0.569,-0.241 1.119,-0.291 1.701,-0.341c0.222,-0.018 0.453,-0.043 0.691,-0.075c0.887,-0.122 1.881,-0.3 3.038,-0.543c0.164,-0.032 0.325,-0.066 0.489,-0.104c0.848,-0.184 1.97,-0.703 2.337,-1.556c0.273,-0.631 0.231,-1.209 -0.109,-1.712c-1.026,-1.494 -4.549,-2.007 -5.999,-2.01l-0.026,0c-0.643,0 -1.299,0.063 -1.932,0.128c-0.36,0.035 -0.733,0.075 -1.09,0.097c-0.608,0.044 -1.106,0.21 -1.717,0.582c-0.63,0.384 -1.308,0.568 -2.128,0.568c-0.614,0 -1.234,-0.097 -1.89,-0.197c-0.199,-0.034 -0.405,-0.065 -0.614,-0.096c-0.859,-0.122 -1.778,-0.175 -2.903,-0.175c-0.698,0 -1.399,0.018 -2.077,0.04c-0.675,0.019 -1.369,0.041 -2.054,0.041c-1.248,0 -2.251,-0.072 -3.173,-0.228c-0.27,-0.05 -0.563,-0.116 -0.875,-0.188c-0.665,-0.156 -1.417,-0.331 -2.176,-0.331c-0.415,0 -0.791,0.047 -1.141,0.153c-1.749,0.513 -3.212,2.591 -3.482,4.213c-0.1,0.609 -0.084,1.231 0.045,1.959c0.199,1.112 0.469,2.084 0.755,3.116Z" style="fill:#171717;fill-rule:nonzero;stroke:#000;stroke-width:0.14px;"/><path d="M86.737,28.094l-0.006,0.009c-0.097,0.172 -0.19,0.316 -0.277,0.444c-0.295,0.462 -0.469,0.744 -0.562,1.506c-0.068,0.603 -0.042,1.225 -0.016,1.825c0.025,0.706 0.058,1.441 -0.068,2.163c-0.434,2.559 -2.527,5.193 -4.873,6.131c-0.225,0.09 -0.537,0.206 -0.75,0.244c-0.17,0.028 -0.331,0.046 -0.479,0.046c-1.379,0 -1.697,-1.318 -1.999,-2.59c-0.074,-0.285 -0.142,-0.578 -0.225,-0.85c-0.312,-1.047 -0.736,-1.738 -1.37,-2.247c-0.636,-0.506 -1.491,-0.837 -2.777,-1.069c-0.521,-0.09 -1,-0.137 -1.466,-0.137c-0.894,0 -1.746,0.162 -2.855,0.54c-0.048,0.016 -0.093,0.032 -0.141,0.047c-0.615,0.207 -1.139,0.382 -1.508,0.941c-0.711,1.081 -1.289,2.825 -1.016,4.062c0.267,1.213 1.173,1.457 2.125,1.707c0.186,0.047 0.373,0.1 0.559,0.156c0.293,0.094 0.524,0.187 0.73,0.3c1.443,0.787 3.035,1.503 5.018,2.247c1.685,0.631 2.501,2.025 3.289,3.359c0.768,1.3 1.559,2.647 3.138,3.288c0.244,0.096 0.514,0.15 0.807,0.15c0.35,0 0.736,-0.075 1.151,-0.213c1.125,-0.384 2.134,-1.556 2.887,-2.537c1.179,-1.538 2.645,-3.45 4.385,-4.682c0.045,-0.031 0.09,-0.062 0.135,-0.09l0,-0.053c-0.052,0.037 -0.106,0.075 -0.161,0.112c-1.739,1.231 -3.209,3.147 -4.395,4.688c-0.746,0.978 -1.749,2.146 -2.864,2.525c-0.412,0.137 -0.794,0.206 -1.138,0.206c-0.286,0 -0.553,-0.047 -0.791,-0.144c-1.563,-0.637 -2.353,-1.972 -3.115,-3.272c-0.794,-1.344 -1.617,-2.737 -3.315,-3.375c-1.98,-0.744 -3.571,-1.456 -5.012,-2.244c-0.205,-0.112 -0.44,-0.212 -0.739,-0.303c-0.18,-0.059 -0.373,-0.106 -0.556,-0.156c-0.945,-0.253 -1.836,-0.491 -2.096,-1.678c-0.27,-1.228 0.305,-2.956 1.009,-4.031c0.36,-0.544 0.881,-0.722 1.485,-0.922c0.049,-0.019 0.097,-0.035 0.145,-0.05c1.103,-0.381 1.951,-0.538 2.839,-0.538c0.463,0 0.938,0.044 1.453,0.138c2.478,0.441 3.517,1.272 4.121,3.287c0.081,0.269 0.151,0.563 0.219,0.844c0.312,1.291 0.633,2.622 2.044,2.622c0.152,0 0.316,-0.013 0.486,-0.044c0.215,-0.04 0.534,-0.156 0.759,-0.247c1.163,-0.465 2.295,-1.35 3.195,-2.493c0.891,-1.125 1.492,-2.429 1.707,-3.669c0.119,-0.725 0.09,-1.463 0.061,-2.169c-0.025,-0.6 -0.048,-1.222 0.023,-1.822c0.083,-0.753 0.263,-1.031 0.556,-1.49c0.077,-0.125 0.174,-0.272 0.276,-0.441c0.827,-0.653 1.807,-0.991 2.913,-0.991c0.293,0 0.588,0.025 0.891,0.075l0,-0.043c-0.303,-0.047 -0.598,-0.069 -0.891,-0.069c-1.119,0 -2.106,0.334 -2.945,0.997Z" style="fill:#171717;fill-rule:nonzero;stroke:#000;stroke-width:0.14px;"/><path d="M88.239,31.106c-0.216,0.613 -0.258,1.247 -0.306,1.981c-0.016,0.254 -0.032,0.519 -0.058,0.804c-0.103,1.112 -0.321,2.256 -0.537,3.365c-0.212,1.094 -0.411,2.128 -0.45,2.944l0,0.009l0.01,0.007c0.132,0.093 0.273,0.184 0.44,0.184c0.029,0 0.062,-0.003 0.09,-0.009l0.007,-0.004c0.421,-0.237 0.868,-0.45 1.305,-0.656c0.624,-0.294 1.254,-0.594 1.833,-0.975l0,-0.05c-0.582,0.388 -1.222,0.691 -1.849,0.988c-0.434,0.206 -0.887,0.422 -1.308,0.659c-0.026,0.006 -0.052,0.006 -0.071,0.006c-0.154,0 -0.289,-0.084 -0.412,-0.168c0.036,-0.81 0.235,-1.838 0.444,-2.929c0.219,-1.109 0.44,-2.253 0.54,-3.368c0.029,-0.285 0.045,-0.55 0.058,-0.803c0.048,-0.735 0.087,-1.363 0.305,-1.972c0.293,-0.841 1.013,-1.388 1.83,-1.388c0.154,0 0.311,0.022 0.463,0.06l0,-0.041c-0.152,-0.034 -0.309,-0.053 -0.463,-0.053c-0.833,0 -1.566,0.55 -1.871,1.409Z" style="fill:#171717;fill-rule:nonzero;stroke:#000;stroke-width:0.14px;"/><path d="M74.048,38.694c-0.061,0.322 -0.241,0.59 -0.52,0.768c-0.19,0.122 -0.412,0.182 -0.663,0.182c-1.016,0 -2.176,-0.991 -2.417,-1.807c0.009,-0.818 0.787,-1.181 1.556,-1.181c0.707,0 1.363,0.281 1.71,0.741c0.28,0.369 0.412,0.875 0.334,1.297Zm-2.044,-2.078c-0.791,0 -1.592,0.378 -1.598,1.221l0,0.007c0.244,0.831 1.427,1.84 2.459,1.84c0.258,0 0.486,-0.065 0.688,-0.187c0.286,-0.185 0.473,-0.46 0.537,-0.797c0.081,-0.431 -0.054,-0.95 -0.344,-1.328c-0.35,-0.466 -1.022,-0.756 -1.742,-0.756Z" style="fill:#171717;fill-rule:nonzero;stroke:#000;stroke-width:0.14px;"/><path d="M85.39,43.353l-0.041,0.094c-0.553,1.265 -1.36,2.794 -2.698,3.328c-0.07,0.009 -0.135,0.016 -0.202,0.016c-0.72,0 -1.212,-0.575 -1.376,-1.141c-0.116,-1.853 1.533,-2.638 2.732,-3.209c0.081,-0.041 0.168,-0.079 0.241,-0.116c0.139,-0.066 0.28,-0.147 0.422,-0.225c0.36,-0.206 0.739,-0.416 1.083,-0.416c0.074,0 0.151,0.01 0.222,0.028c0.141,0.447 -0.138,1.082 -0.383,1.641Zm0.415,-1.669l-0.01,-0.003c-0.074,-0.028 -0.16,-0.04 -0.244,-0.04c-0.354,0 -0.739,0.215 -1.106,0.425c-0.138,0.075 -0.28,0.153 -0.418,0.221c-0.077,0.041 -0.154,0.075 -0.241,0.116c-1.212,0.578 -2.868,1.372 -2.752,3.253c0.164,0.588 0.669,1.178 1.415,1.178c0.067,0 0.138,-0.006 0.215,-0.018c1.354,-0.547 2.164,-2.075 2.723,-3.354l0.042,-0.09c0.251,-0.575 0.534,-1.219 0.379,-1.678l-0.003,-0.01Z" style="fill:#171717;fill-rule:nonzero;stroke:#000;stroke-width:0.14px;"/><path d="M71.792,60.606c-0.283,0.428 -0.759,0.641 -1.402,0.641c-0.244,0 -0.511,-0.025 -0.81,-0.088c-0.187,-0.037 -0.341,-0.075 -0.47,-0.118c-0.562,-0.188 -0.819,-0.5 -0.948,-1.166c-0.138,-0.675 -0.158,-1.497 -0.061,-2.253c0.125,-0.991 0.723,-1.994 1.617,-1.994c0.376,0 0.768,0.175 1.161,0.528c0.578,0.525 0.983,1.322 1.102,2.191c0.081,0.565 0.142,1.766 -0.189,2.259Zm-0.885,-4.478c-0.398,-0.359 -0.8,-0.544 -1.189,-0.544c-0.919,0 -1.53,1.022 -1.659,2.028c-0.1,0.766 -0.077,1.591 0.058,2.272c0.132,0.669 0.408,1.003 0.981,1.197c0.128,0.041 0.286,0.081 0.472,0.119c0.306,0.059 0.572,0.091 0.82,0.091c0.662,0 1.148,-0.222 1.437,-0.663c0.337,-0.503 0.283,-1.672 0.199,-2.284c-0.125,-0.878 -0.53,-1.688 -1.119,-2.216Z" style="fill:#171717;fill-rule:nonzero;stroke:#000;stroke-width:0.14px;"/><path d="M4.425,69.731c0.402,-0.069 0.739,-0.153 1.07,-0.228c0.402,-0.094 0.782,-0.187 1.27,-0.259c0.45,-0.066 0.923,-0.097 1.386,-0.132c1.032,-0.065 2.099,-0.134 3.009,-0.596c1.148,-0.585 1.266,-2.069 0.874,-3.279c-0.662,-2.056 -1.517,-3.475 -2.613,-4.34c-0.428,-0.338 -0.833,-0.728 -1.225,-1.11c-0.788,-0.762 -1.601,-1.55 -2.659,-1.962c-0.807,-0.322 -1.736,-0.556 -2.633,-0.781c-0.543,-0.138 -1.103,-0.282 -1.633,-0.441c-0.248,-0.072 -0.518,-0.169 -0.8,-0.272c-0.155,-0.053 -0.315,-0.109 -0.476,-0.165l0,0.043c0.157,0.057 0.308,0.11 0.459,0.163c0.287,0.1 0.557,0.197 0.804,0.272c0.534,0.156 1.093,0.3 1.633,0.434c0.897,0.231 1.823,0.466 2.633,0.781c1.052,0.416 1.862,1.2 2.643,1.953c0.392,0.382 0.8,0.775 1.228,1.116c1.09,0.859 1.938,2.272 2.598,4.325c0.385,1.191 0.273,2.653 -0.852,3.222c-0.904,0.459 -1.965,0.531 -2.993,0.6c-0.463,0.028 -0.939,0.062 -1.389,0.128c-0.492,0.078 -0.891,0.169 -1.277,0.259c-0.327,0.082 -0.662,0.16 -1.064,0.229c-0.739,0.128 -1.488,0.228 -2.218,0.318c-0.765,0.1 -1.511,0.2 -2.205,0.325l0,0.041c0.694,-0.128 1.44,-0.225 2.212,-0.322c0.729,-0.097 1.478,-0.191 2.218,-0.322Z" style="fill:#171717;fill-rule:nonzero;stroke:#000;stroke-width:0.14px;"/><path d="M3.476,67.262c0.955,-0.262 1.939,-0.531 2.878,-0.931c0.926,-0.39 1.864,-0.847 2.282,-1.769c0.54,-1.203 0.013,-2.5 -1.411,-3.462c-0.248,-0.166 -0.482,-0.331 -0.711,-0.494c-0.954,-0.681 -1.855,-1.322 -3.153,-1.565c-0.843,-0.154 -2.09,-0.247 -3.366,-0.279l0,0.044c1.273,0.025 2.517,0.119 3.359,0.275c1.286,0.244 2.183,0.881 3.135,1.56c0.228,0.162 0.466,0.328 0.71,0.493c1.408,0.953 1.929,2.228 1.395,3.41c-0.405,0.906 -1.34,1.365 -2.256,1.75c-0.939,0.4 -1.92,0.665 -2.874,0.928c-0.499,0.134 -1.013,0.278 -1.515,0.434c-0.639,0.203 -1.308,0.331 -1.954,0.45l0,0.041c0.652,-0.122 1.324,-0.247 1.967,-0.45c0.499,-0.156 1.013,-0.3 1.514,-0.435Z" style="fill:#171717;fill-rule:nonzero;stroke:#000;stroke-width:0.14px;"/><path d="M3.171,72.119c0.964,0.037 1.955,0.065 2.926,-0.028c0.89,-0.088 1.71,-0.266 2.504,-0.444c0.199,-0.038 0.392,-0.085 0.595,-0.125c0.147,-0.031 0.292,-0.063 0.443,-0.094c1.511,-0.312 3.08,-0.634 4.353,-1.478c1.485,-0.981 1.681,-3.038 1.003,-4.456c-0.62,-1.3 -1.655,-2.328 -2.655,-3.325c-0.833,-0.819 -1.695,-1.672 -2.309,-2.678c-0.282,-0.366 -0.514,-0.722 -0.742,-1.063c-0.727,-1.1 -1.302,-1.966 -2.832,-2.312c-2.945,-0.669 -5.488,-1.247 -5.961,-4.1c-0.167,-1.01 0.061,-1.8 0.283,-2.563c0.177,-0.606 0.341,-1.181 0.306,-1.828l-0.004,-0.009l-0.006,-0.003c-0.08,-0.069 -0.154,-0.144 -0.228,-0.216c-0.097,-0.1 -0.196,-0.2 -0.309,-0.281l-0.006,-0.007l-0.01,0c-0.203,0.013 -0.376,0.041 -0.527,0.072l0,0.041c0.148,-0.031 0.321,-0.059 0.524,-0.069c0.106,0.081 0.202,0.175 0.299,0.272c0.07,0.069 0.141,0.144 0.222,0.209c0.038,0.641 -0.126,1.21 -0.303,1.807c-0.218,0.768 -0.45,1.562 -0.283,2.581c0.479,2.881 3.035,3.462 5.996,4.131c1.511,0.344 2.083,1.206 2.803,2.297c0.225,0.344 0.463,0.694 0.743,1.062c0.614,1.007 1.479,1.86 2.312,2.688c0.996,0.991 2.035,2.016 2.652,3.309c0.665,1.407 0.479,3.435 -0.99,4.41c-1.273,0.834 -2.833,1.162 -4.337,1.468c-0.151,0.032 -0.299,0.066 -0.447,0.094c-0.196,0.041 -0.395,0.085 -0.595,0.131c-0.791,0.169 -1.607,0.35 -2.501,0.438c-0.968,0.1 -1.955,0.062 -2.916,0.028c-1.115,-0.037 -2.17,-0.072 -3.179,0.078l0,0.041c1.006,-0.15 2.064,-0.113 3.176,-0.078Z" style="fill:#171717;fill-rule:nonzero;stroke:#000;stroke-width:0.14px;"/><path d="M31.934,61.253c0.177,-0.428 0.476,-0.706 0.797,-0.744c0.267,-0.028 0.547,-0.047 0.833,-0.047c1.344,0 2.684,0.322 4.109,0.663c0.868,0.209 1.761,0.422 2.665,0.559c0.267,0.044 0.565,0.06 0.974,0.06c0.202,0 0.414,-0.003 0.623,-0.007c0.209,-0.006 0.428,-0.009 0.647,-0.009c1.115,0 2.231,0.122 2.816,1.022c0.717,1.109 0.485,2.369 0.26,3.578c-0.058,0.306 -0.116,0.622 -0.157,0.919c-0.2,1.419 -1.264,2.397 -2.926,2.69c-0.456,0.082 -0.939,0.119 -1.434,0.119c-0.971,0 -1.957,-0.159 -2.845,-0.456c-1.549,-0.522 -2.511,-1.113 -2.874,-2.609c-0.263,-1.082 -0.665,-1.913 -1.347,-2.775c-0.263,-0.341 -0.688,-0.822 -1.183,-1.172c-0.109,-0.082 -0.247,-0.141 -0.376,-0.207c-0.206,-0.093 -0.412,-0.19 -0.537,-0.334c-0.222,-0.259 -0.238,-0.772 -0.045,-1.25Zm0.559,1.625c0.139,0.063 0.267,0.122 0.37,0.197c0.495,0.35 0.913,0.825 1.18,1.166c0.675,0.859 1.077,1.681 1.341,2.762c0.366,1.513 1.337,2.109 2.899,2.634c0.891,0.3 1.881,0.46 2.858,0.46c0.499,0 0.981,-0.041 1.441,-0.122c1.681,-0.291 2.761,-1.281 2.96,-2.722c0.042,-0.297 0.1,-0.612 0.155,-0.916c0.231,-1.218 0.466,-2.484 -0.264,-3.609c-0.595,-0.916 -1.723,-1.044 -2.851,-1.044c-0.219,0 -0.441,0.007 -0.647,0.01c-0.209,0.006 -0.421,0.012 -0.623,0.012c-0.409,0 -0.704,-0.022 -0.968,-0.059c-0.9,-0.141 -1.797,-0.353 -2.659,-0.56c-1.427,-0.34 -2.774,-0.665 -4.121,-0.665c-0.286,0 -0.569,0.019 -0.836,0.044c-0.341,0.04 -0.649,0.328 -0.832,0.771c-0.171,0.416 -0.222,0.972 0.048,1.291c0.135,0.153 0.35,0.253 0.549,0.35Z" style="fill:#171717;fill-rule:nonzero;stroke:#000;stroke-width:0.14px;"/><path d="M39.081,67.375c0.292,-0.584 1.26,-1.128 1.726,-1.263c0.116,-0.034 0.231,-0.05 0.341,-0.05c0.312,0 0.607,0.122 0.832,0.354c0.235,0.228 0.367,0.54 0.357,0.831c-0.009,0.369 -0.234,0.675 -0.63,0.853c-0.064,0.028 -0.135,0.056 -0.206,0.081c-0.241,0.075 -0.758,0.16 -1.253,0.16c-0.669,0 -1.093,-0.147 -1.203,-0.413c-0.074,-0.172 -0.061,-0.356 0.036,-0.553Zm1.167,1.009c0.498,0 1.025,-0.087 1.266,-0.162c0.071,-0.025 0.148,-0.053 0.212,-0.085c0.409,-0.184 0.643,-0.503 0.653,-0.89c0.006,-0.3 -0.132,-0.625 -0.366,-0.86c-0.325,-0.325 -0.778,-0.443 -1.216,-0.315c-0.469,0.14 -1.459,0.687 -1.752,1.284c-0.103,0.21 -0.115,0.403 -0.041,0.585c0.154,0.362 0.761,0.443 1.244,0.443Z" style="fill:#171717;fill-rule:nonzero;stroke:#000;stroke-width:0.14px;"/><path d="M53.245,83.828c-0.009,-0.094 -0.006,-0.191 -0.003,-0.294c0.003,-0.106 0.006,-0.212 -0.006,-0.322c-0.081,-0.665 -0.361,-1.481 -0.653,-2.34c-0.302,-0.881 -0.611,-1.788 -0.759,-2.66c-0.061,-0.365 -0.099,-0.759 -0.141,-1.14c-0.122,-1.247 -0.248,-2.528 -1.145,-3.1c-0.405,-0.263 -0.996,-0.381 -1.861,-0.381c-0.482,0 -1.003,0.034 -1.514,0.068c-0.2,0.013 -0.399,0.028 -0.598,0.041c-1.768,0.103 -5.446,0.547 -6.732,1.494c-1.752,1.29 -1.961,3.506 -1.932,5.509c0.206,2.519 1.977,3.928 3.925,5.35l0.071,0c-1.961,-1.428 -3.745,-2.831 -3.961,-5.353c-0.022,-1.988 0.187,-4.194 1.926,-5.472c1.273,-0.941 4.941,-1.384 6.706,-1.491c0.199,-0.009 0.399,-0.025 0.601,-0.037c0.508,-0.038 1.029,-0.072 1.508,-0.072c0.858,0 1.44,0.119 1.842,0.375c0.874,0.563 1,1.834 1.125,3.072c0.036,0.381 0.077,0.778 0.138,1.144c0.148,0.875 0.46,1.784 0.759,2.668c0.296,0.857 0.576,1.666 0.653,2.329c0.009,0.106 0.006,0.215 0.003,0.315c0,0.106 -0.003,0.206 0.006,0.3c0.087,0.656 -0.006,1.438 -0.234,2.222l0.045,0c0.225,-0.787 0.318,-1.572 0.231,-2.225Z" style="fill:#171717;fill-rule:nonzero;stroke:#000;stroke-width:0.14px;"/><path d="M5.981,84.122c-0.026,-0.581 -0.01,-1.163 0.013,-1.728c0.029,-0.863 0.054,-1.685 -0.097,-2.344c-0.376,-1.622 -2.475,-2.778 -4.317,-3.322c-0.547,-0.159 -1.048,-0.216 -1.585,-0.172l0,0.038c0.53,-0.038 1.032,0.015 1.575,0.175c1.829,0.54 3.916,1.687 4.285,3.287c0.155,0.656 0.126,1.475 0.097,2.335c-0.023,0.568 -0.039,1.15 -0.013,1.731c0.032,0.687 0.006,1.337 -0.061,1.931l0.042,0c0.067,-0.594 0.096,-1.244 0.061,-1.931Z" style="fill:#171717;fill-rule:nonzero;stroke:#000;stroke-width:0.14px;"/><path d="M51.059,83.453c-0.077,-0.394 -0.225,-0.872 -0.382,-1.378c-0.222,-0.728 -0.479,-1.556 -0.608,-2.394c-0.039,-0.237 -0.071,-0.465 -0.1,-0.684c-0.205,-1.435 -0.366,-2.566 -1.35,-3.319c-0.672,-0.509 -1.929,-0.812 -3.359,-0.812c-1.743,0 -3.363,0.425 -4.337,1.143c-1.598,1.175 -1.659,3.247 -1.434,4.778c0.35,1.635 1.556,2.472 3.086,3.544c0.711,0.494 1.45,1.01 2.199,1.669c0.019,0.016 0.039,0.037 0.061,0.053l0.061,0c-0.032,-0.025 -0.061,-0.056 -0.096,-0.084c-0.749,-0.66 -1.518,-1.197 -2.196,-1.675c-1.524,-1.06 -2.726,-1.897 -3.073,-3.516c-0.232,-1.519 -0.167,-3.572 1.421,-4.737c0.961,-0.71 2.575,-1.135 4.308,-1.135c1.421,0 2.665,0.3 3.333,0.806c0.978,0.741 1.129,1.863 1.331,3.288c0.036,0.222 0.061,0.453 0.1,0.684c0.132,0.844 0.386,1.675 0.614,2.4c0.154,0.507 0.302,0.985 0.379,1.375c0.164,0.835 0.1,1.753 -0.167,2.594l0.045,0c0.267,-0.847 0.328,-1.766 0.164,-2.6Z" style="fill:#171717;fill-rule:nonzero;stroke:#000;stroke-width:0.14px;"/><path d="M20.541,81.022c-0.174,-0.6 -0.309,-1.728 -0.209,-2.513c0.019,-0.156 0.061,-0.331 0.112,-0.512c0.167,-0.635 0.373,-1.422 -0.447,-1.994l-0.006,-0.003l-0.003,0c-1.518,-0.175 -2.44,1.037 -3.254,2.106c-0.215,0.285 -0.411,0.544 -0.62,0.785c-0.739,0.753 -1.749,1.293 -2.819,1.868c-1.653,0.897 -3.366,1.822 -4.17,3.622c-0.235,0.506 -0.431,1.094 -0.624,1.672l0.045,0c0.19,-0.575 0.389,-1.156 0.611,-1.656c0.804,-1.794 2.511,-2.71 4.16,-3.6c1.071,-0.575 2.083,-1.119 2.826,-1.881c0.212,-0.241 0.411,-0.504 0.624,-0.782c0.806,-1.059 1.719,-2.262 3.211,-2.093c0.791,0.553 0.598,1.293 0.428,1.946c-0.049,0.182 -0.097,0.36 -0.119,0.519c-0.093,0.788 0.035,1.925 0.215,2.525c0.27,0.925 0.666,1.853 1.077,2.844c0.299,0.709 0.605,1.441 0.871,2.178l0.045,0c-0.266,-0.744 -0.578,-1.478 -0.877,-2.194c-0.418,-0.987 -0.807,-1.918 -1.077,-2.837Z" style="fill:#171717;fill-rule:nonzero;stroke:#000;stroke-width:0.14px;"/><path d="M47.404,82.241c-0.257,0.331 -0.508,0.596 -0.775,0.812c-0.247,0.034 -0.498,0.053 -0.752,0.053c-1.99,0 -4.388,-1.159 -4.922,-3.3c-0.087,-1.684 0.382,-2.378 1.164,-2.953c0.607,-0.444 1.527,-0.709 2.462,-0.709c1.18,0 2.177,0.403 2.733,1.103c0.787,0.978 0.813,2.8 0.09,4.994Zm-2.823,-6.141c-0.942,0 -1.871,0.269 -2.485,0.722c-0.797,0.581 -1.273,1.284 -1.186,2.987c0.543,2.169 2.964,3.338 4.967,3.338c0.26,0 0.511,-0.019 0.759,-0.056l0.006,0l0.003,-0.004c0.273,-0.218 0.534,-0.49 0.794,-0.825l0,-0.009c0.736,-2.206 0.701,-4.041 -0.09,-5.028c-0.566,-0.716 -1.575,-1.125 -2.768,-1.125Z" style="fill:#171717;fill-rule:nonzero;stroke:#000;stroke-width:0.14px;"/><path d="M34.258,82.184c-0.318,-1.484 -0.639,-3.012 -1.636,-4.231c-0.511,-0.625 -1.141,-0.866 -1.942,-0.753c-1.646,0.237 -3.604,1.684 -4.655,2.466c-1.176,1.193 -1.62,2.637 -1.36,4.412c0.097,0.631 0.277,1.309 0.47,1.975l0.045,0c-0.193,-0.669 -0.38,-1.35 -0.47,-1.981c-0.26,-1.763 0.18,-3.197 1.344,-4.378c1.045,-0.772 2.996,-2.219 4.633,-2.453c0.125,-0.016 0.247,-0.025 0.363,-0.025c0.614,0 1.119,0.25 1.537,0.765c0.99,1.21 1.318,2.731 1.63,4.21c0.279,1.325 0.569,2.703 1.353,3.809c0.013,0.022 0.023,0.037 0.039,0.053l0.048,0c-0.016,-0.022 -0.035,-0.05 -0.055,-0.075c-0.775,-1.1 -1.064,-2.472 -1.344,-3.794Z" style="fill:#171717;fill-rule:nonzero;stroke:#000;stroke-width:0.14px;"/><path d="M44.739,79.106c-0.145,0.244 -0.383,0.385 -0.64,0.385c-0.074,0 -0.151,-0.013 -0.231,-0.035c-0.052,-0.059 -0.11,-0.112 -0.161,-0.15c-0.071,-0.084 -0.109,-0.184 -0.097,-0.3c0.02,-0.162 0.123,-0.334 0.264,-0.444c0.08,-0.028 0.161,-0.04 0.235,-0.04c0.247,0 0.482,0.147 0.633,0.384c0.003,0.06 0.003,0.131 -0.003,0.2Zm0.045,-0.209l-0.003,-0.006c-0.158,-0.257 -0.412,-0.413 -0.672,-0.413c-0.081,0 -0.168,0.016 -0.251,0.05l-0.003,0.003c-0.158,0.113 -0.267,0.297 -0.286,0.472c-0.013,0.125 0.025,0.241 0.112,0.328c0.052,0.044 0.109,0.094 0.161,0.153l0.009,0.003c0.084,0.032 0.168,0.047 0.248,0.047c0.273,0 0.527,-0.156 0.678,-0.412l0.004,-0.01c0.006,-0.071 0.003,-0.15 0.003,-0.212l0,-0.003Z" style="fill:#171717;fill-rule:nonzero;stroke:#000;stroke-width:0.14px;"/><path d="M2.078,80.722c-0.524,-0.625 -1.013,-0.881 -2.083,-1.078l0,0.043c1.051,0.191 1.533,0.441 2.051,1.06c0.916,1.094 1.475,3.134 1.61,4.565c0.026,0.263 0.039,0.513 0.039,0.741l0.042,0c0,-0.228 -0.01,-0.478 -0.036,-0.744c-0.135,-1.437 -0.704,-3.49 -1.623,-4.587Z" style="fill:#171717;fill-rule:nonzero;stroke:#000;stroke-width:0.14px;"/><path d="M29.092,81.259c-0.058,0 -0.122,0 -0.183,0.007c-0.576,0.043 -1.08,0.303 -1.466,0.746c-0.55,0.635 -0.794,1.607 -0.688,2.732c0.042,0.434 0.113,0.875 0.212,1.309l0.042,0c-0.096,-0.437 -0.174,-0.875 -0.212,-1.312c-0.106,-1.119 0.135,-2.075 0.678,-2.704c0.376,-0.434 0.871,-0.69 1.437,-0.737c0.061,-0.003 0.122,-0.006 0.18,-0.006c1.707,0 2.337,1.975 2.894,3.712c0.115,0.366 0.228,0.722 0.347,1.047l0.048,0c-0.122,-0.325 -0.235,-0.687 -0.354,-1.059c-0.559,-1.753 -1.196,-3.735 -2.935,-3.735Z" style="fill:#171717;fill-rule:nonzero;stroke:#000;stroke-width:0.14px;"/><path d="M17.516,82.9c-0.287,-0.041 -0.576,-0.059 -0.865,-0.059c-1.154,0 -2.289,0.306 -3.273,0.884c-0.964,0.566 -1.746,1.369 -2.27,2.328l0.045,0c1.077,-1.959 3.17,-3.172 5.498,-3.172c0.286,0 0.575,0.022 0.861,0.056c1.241,0.163 2.466,1.166 3.35,2.744c0.068,0.122 0.138,0.247 0.196,0.372l0.045,0c-0.061,-0.131 -0.131,-0.262 -0.202,-0.391c-0.897,-1.59 -2.128,-2.596 -3.385,-2.762Z" style="fill:#171717;fill-rule:nonzero;stroke:#000;stroke-width:0.14px;"/><path d="M0.053,84.647c-0.023,0 -0.039,0 -0.058,0.003l0,0.034l0.058,0c0.328,0 0.594,0.207 0.762,0.582c0.096,0.228 0.147,0.506 0.144,0.787l0.048,0c0,-0.287 -0.054,-0.575 -0.157,-0.803c-0.17,-0.388 -0.453,-0.603 -0.797,-0.603Z" style="fill:#171717;fill-rule:nonzero;stroke:#000;stroke-width:0.14px;"/><path d="M14.246,86.053l0.074,0c0.662,-0.444 1.472,-0.697 2.295,-0.697c0.811,0 1.556,0.247 2.158,0.697l0.07,0c-0.614,-0.478 -1.395,-0.737 -2.228,-0.737c-0.855,0 -1.687,0.265 -2.369,0.737Z" style="fill:#171717;fill-rule:nonzero;stroke:#000;stroke-width:0.14px;"/><path d="M75.096,82.087c-0.495,-0.884 -1.012,-1.803 -1.421,-2.753c-0.228,-0.518 -0.43,-1.084 -0.649,-1.69c-0.923,-2.578 -1.967,-5.497 -5.208,-5.497l-0.129,0c-1.176,0.025 -2.285,0.425 -3.005,0.759c-0.177,0.075 -0.36,0.16 -0.541,0.244c-0.543,0.241 -1.105,0.491 -1.61,0.762c-1.473,0.791 -3.164,1.175 -4.79,1.55l-0.023,0.004c-0.138,0.034 -0.286,0.068 -0.443,0.093c-1.093,0.228 -2.453,0.51 -2.884,1.744c-0.331,0.953 -0.026,2.169 0.267,3.344c0.106,0.431 0.205,0.837 0.276,1.222c0.235,1.334 0.254,2.59 0.042,3.734c-0.029,0.147 -0.058,0.297 -0.096,0.45l0.045,0c0.035,-0.15 0.064,-0.297 0.093,-0.444c0.206,-1.147 0.193,-2.409 -0.045,-3.747c-0.071,-0.387 -0.171,-0.793 -0.277,-1.225c-0.295,-1.171 -0.591,-2.381 -0.267,-3.321c0.425,-1.216 1.772,-1.491 2.855,-1.713c0.158,-0.034 0.306,-0.062 0.444,-0.097l0.022,-0.003c1.634,-0.372 3.328,-0.759 4.803,-1.553c0.499,-0.269 1.061,-0.522 1.605,-0.766c0.183,-0.081 0.363,-0.162 0.54,-0.24c0.717,-0.335 1.826,-0.732 2.989,-0.76c0.045,-0.003 0.09,-0.003 0.129,-0.003c3.208,0 4.25,2.91 5.173,5.478c0.212,0.603 0.418,1.172 0.643,1.694c0.414,0.953 0.926,1.869 1.424,2.759c0.424,0.754 0.826,1.466 1.173,2.2c0.341,0.735 0.701,1.31 1.08,1.741l0.058,0c-0.392,-0.428 -0.752,-1.009 -1.106,-1.756c-0.34,-0.735 -0.742,-1.45 -1.167,-2.21Z" style="fill:#171717;fill-rule:nonzero;stroke:#000;stroke-width:0.14px;"/><path d="M89.412,74.375c-2.668,0.978 -4.452,2.828 -5.15,5.347c-0.199,0.703 -0.334,1.603 -0.469,2.472c-0.168,1.081 -0.338,2.2 -0.618,2.975c-0.122,0.331 -0.292,0.628 -0.511,0.884l0.048,0c0.216,-0.256 0.383,-0.547 0.499,-0.869c0.286,-0.781 0.456,-1.9 0.623,-2.984c0.135,-0.869 0.274,-1.769 0.466,-2.469c0.698,-2.5 2.469,-4.344 5.128,-5.322c0.219,-0.078 0.598,-0.178 0.916,-0.243c0.077,-0.013 0.151,-0.029 0.229,-0.038l0,-0.041c-0.081,0.016 -0.158,0.025 -0.238,0.038c-0.319,0.066 -0.701,0.166 -0.923,0.25Z" style="fill:#171717;fill-rule:nonzero;stroke:#000;stroke-width:0.14px;"/><path d="M86.821,55.75c-0.855,0.184 -1.678,0.587 -2.472,0.981c-0.798,0.391 -1.621,0.797 -2.469,0.972c-2.193,0.459 -3.006,-1.409 -3.723,-3.062c-0.103,-0.235 -0.199,-0.46 -0.299,-0.679c-0.408,-0.862 -0.868,-1.653 -1.379,-2.35c-1.029,-1.4 -2.209,-2.515 -3.514,-3.318c-1.209,-0.741 -2.228,-1.147 -3.202,-1.272c-1.578,-0.206 -2.704,0.272 -3.996,0.815c-0.28,0.119 -0.572,0.244 -0.871,0.363c-0.852,0.334 -1.823,0.716 -2.485,1.547c-0.499,0.622 -0.875,1.375 -1.232,2.106l-0.083,0.166c-0.669,1.347 -1.161,2.675 -1.678,4.078c-0.116,0.316 -0.232,0.641 -0.344,0.959c-0.312,0.869 -0.634,1.769 -1.026,2.619c-0.292,0.65 -0.736,1.216 -1.167,1.766c-0.241,0.306 -0.488,0.618 -0.707,0.946c-0.556,0.822 -1.424,1.544 -2.27,2.238c-0.305,0.253 -0.591,0.494 -0.861,0.734c-0.171,0.147 -0.351,0.297 -0.544,0.457c-0.874,0.734 -1.861,1.562 -2.121,2.615c-0.036,0.141 -0.068,0.281 -0.1,0.416c-0.28,1.178 -0.524,2.197 -1.736,2.934c-1.145,0.7 -2.54,0.925 -3.768,1.125c-0.579,0.094 -1.17,0.169 -1.739,0.244c-1.055,0.131 -2.045,0.259 -2.948,0.487c-2.058,0.535 -3.315,1.922 -3.733,4.135c-0.405,2.159 0.007,4.794 0.467,5.869c0.411,0.971 1.106,1.731 1.935,2.412l0.071,0c-0.849,-0.684 -1.553,-1.45 -1.971,-2.431c-0.45,-1.066 -0.865,-3.691 -0.46,-5.844c0.418,-2.194 1.659,-3.572 3.701,-4.097c0.903,-0.234 1.893,-0.359 2.944,-0.494c0.569,-0.071 1.161,-0.143 1.74,-0.24c1.231,-0.2 2.629,-0.425 3.783,-1.131c1.232,-0.747 1.47,-1.772 1.752,-2.96c0.036,-0.134 0.068,-0.275 0.1,-0.415c0.257,-1.041 1.244,-1.863 2.112,-2.591c0.19,-0.163 0.376,-0.316 0.54,-0.463c0.27,-0.24 0.557,-0.481 0.865,-0.731c0.846,-0.697 1.717,-1.415 2.273,-2.25c0.219,-0.322 0.469,-0.637 0.707,-0.94c0.431,-0.55 0.878,-1.122 1.177,-1.772c0.392,-0.85 0.714,-1.753 1.022,-2.628c0.113,-0.313 0.232,-0.641 0.347,-0.957c0.518,-1.4 1.007,-2.725 1.675,-4.075l0.081,-0.165c0.36,-0.728 0.733,-1.478 1.231,-2.1c0.656,-0.819 1.617,-1.197 2.466,-1.532c0.302,-0.121 0.591,-0.243 0.871,-0.359c1.289,-0.55 2.405,-1.022 3.977,-0.822c0.967,0.128 1.977,0.528 3.182,1.272c1.299,0.797 2.482,1.913 3.505,3.313c0.504,0.69 0.967,1.481 1.372,2.34c0.1,0.213 0.196,0.441 0.299,0.678c0.351,0.797 0.74,1.7 1.315,2.325c0.662,0.719 1.466,0.969 2.46,0.76c0.848,-0.175 1.674,-0.585 2.475,-0.978c0.794,-0.388 1.617,-0.794 2.459,-0.975c1.396,-0.3 2.672,0.05 3.746,0.418l0,-0.043c-1.074,-0.369 -2.354,-0.713 -3.752,-0.416Z" style="fill:#171717;fill-rule:nonzero;stroke:#000;stroke-width:0.14px;"/><path d="M84.609,71.172c-0.997,0.94 -1.938,1.831 -3.17,2.178c-1.716,0.494 -3.012,-0.734 -4.266,-1.925c-0.077,-0.072 -0.154,-0.147 -0.231,-0.219c-0.637,-0.6 -1.399,-1.053 -2.138,-1.49c-0.527,-0.313 -1.077,-0.641 -1.569,-1.016c-0.37,-0.284 -0.762,-0.547 -1.144,-0.8c-0.258,-0.175 -0.521,-0.353 -0.772,-0.531c-0.421,-0.297 -0.71,-0.769 -0.997,-1.225c-0.154,-0.244 -0.311,-0.5 -0.491,-0.719c-0.483,-0.603 -1.164,-1.063 -1.827,-1.506c-1.212,-0.813 -2.356,-1.582 -2.44,-3.175c-0.045,-0.95 0.174,-2.125 0.605,-3.235c0.411,-1.047 1.186,-2.181 2.131,-3.115c0.643,-0.635 1.296,-0.932 1.939,-0.878c1.144,0.093 2.122,1.268 2.848,2.284c0.428,0.6 0.598,1.172 0.772,1.781c0.103,0.356 0.212,0.716 0.373,1.103c0.164,0.385 0.363,0.763 0.546,1.128c0.302,0.579 0.608,1.172 0.797,1.81c0.322,1.065 0.386,2.609 -0.112,3.503c-0.482,0.859 -0.254,2.322 0.254,3.087c0.463,0.697 1.617,1.138 2.546,1.494c0.212,0.081 0.405,0.16 0.582,0.231c0.08,0.035 0.167,0.069 0.244,0.107c0.302,0.128 0.556,0.243 0.849,0.3c1.44,0.287 2.437,-0.385 3.035,-2.05c0.633,-1.75 0.196,-3.344 -1.232,-4.488c-0.43,-0.347 -0.929,-0.612 -1.408,-0.869c-0.215,-0.115 -0.443,-0.237 -0.659,-0.362c-0.058,-0.034 -0.112,-0.063 -0.17,-0.1c-0.627,-0.363 -1.405,-0.816 -1.836,-1.341c-0.643,-0.787 -1.17,-1.637 -1.569,-2.534c-0.202,-0.459 -0.363,-0.925 -0.53,-1.422c-0.122,-0.359 -0.248,-0.725 -0.392,-1.097c-0.328,-0.847 -0.83,-1.603 -1.19,-2.084c-0.678,-0.897 -1.9,-2.103 -3.112,-2.541c-1.922,-0.694 -4.51,1.15 -5.78,2.553c-0.714,0.788 -1.177,1.769 -1.537,2.625c-0.096,0.232 -0.189,0.469 -0.289,0.697c-0.524,1.285 -1.022,2.494 -1.852,3.613c-0.267,0.359 -0.485,0.743 -0.701,1.115c-0.151,0.266 -0.308,0.547 -0.485,0.813c-0.447,0.678 -1.125,1.081 -1.794,1.415c-0.305,0.157 -0.627,0.3 -0.935,0.444c-0.891,0.4 -1.81,0.822 -2.563,1.51c-0.475,0.44 -0.665,0.903 -0.562,1.381c0.164,0.794 1.07,1.39 1.864,1.678c1.646,0.597 3.556,0.381 5.237,0.184l0.216,-0.022c0.135,-0.015 0.267,-0.028 0.398,-0.04c0.743,-0.075 1.444,-0.144 2.148,-0.535c0.112,-0.062 0.222,-0.121 0.334,-0.184c1.064,-0.587 1.984,-1.1 3.205,-1.362c0.766,-0.169 1.904,-0.154 2.598,0.268c0.347,0.21 0.495,0.525 0.649,0.863c0.097,0.206 0.197,0.419 0.341,0.609c0.585,0.741 1.373,1.325 2.135,1.894c0.746,0.55 1.524,1.125 2.106,1.847c0.35,0.431 0.639,0.965 0.925,1.478c0.283,0.516 0.579,1.047 0.913,1.456c0.695,0.835 1.637,1.119 2.669,0.81c0.89,-0.272 1.88,-1.01 2.835,-1.719c0.148,-0.11 0.29,-0.216 0.431,-0.322c0.498,-0.366 0.987,-0.75 1.456,-1.122c1.296,-1.022 2.518,-1.991 3.897,-2.534c0.546,-0.213 1.17,-0.369 1.839,-0.494l0,-0.041c-0.676,0.128 -1.306,0.278 -1.855,0.5c-1.383,0.544 -2.611,1.516 -3.906,2.538c-0.473,0.372 -0.955,0.753 -1.457,1.122c-0.141,0.103 -0.286,0.209 -0.424,0.318c-0.955,0.71 -1.942,1.444 -2.829,1.713c-1.013,0.306 -1.942,0.025 -2.62,-0.797c-0.331,-0.403 -0.614,-0.909 -0.91,-1.444c-0.286,-0.518 -0.585,-1.056 -0.932,-1.484c-0.592,-0.728 -1.363,-1.303 -2.112,-1.859c-0.762,-0.566 -1.547,-1.147 -2.125,-1.888c-0.142,-0.181 -0.242,-0.394 -0.338,-0.597c-0.161,-0.337 -0.312,-0.662 -0.662,-0.881c-0.708,-0.431 -1.862,-0.447 -2.633,-0.278c-1.228,0.269 -2.151,0.778 -3.218,1.372c-0.11,0.059 -0.225,0.118 -0.335,0.187c-0.694,0.381 -1.388,0.447 -2.131,0.522c-0.129,0.016 -0.264,0.031 -0.399,0.044l-0.212,0.025c-1.681,0.19 -3.581,0.406 -5.221,-0.188c-0.983,-0.353 -1.707,-1.003 -1.839,-1.647c-0.096,-0.462 0.09,-0.915 0.557,-1.34c0.742,-0.681 1.662,-1.103 2.546,-1.51c0.312,-0.137 0.633,-0.281 0.942,-0.437c0.668,-0.338 1.356,-0.747 1.81,-1.434c0.17,-0.266 0.331,-0.541 0.485,-0.81c0.212,-0.372 0.434,-0.756 0.698,-1.112c0.836,-1.122 1.331,-2.338 1.858,-3.622c0.093,-0.231 0.19,-0.463 0.289,-0.7c0.36,-0.85 0.82,-1.825 1.524,-2.61c1.263,-1.396 3.832,-3.228 5.735,-2.543c1.206,0.434 2.421,1.637 3.093,2.531c0.363,0.478 0.862,1.225 1.189,2.072c0.145,0.369 0.27,0.737 0.389,1.094c0.168,0.497 0.325,0.965 0.531,1.425c0.399,0.9 0.929,1.753 1.572,2.543c0.437,0.532 1.218,0.985 1.845,1.353c0.061,0.029 0.116,0.063 0.177,0.1c0.212,0.125 0.444,0.244 0.659,0.363c0.479,0.253 0.971,0.516 1.402,0.859c1.408,1.135 1.842,2.713 1.218,4.447c-0.591,1.647 -1.572,2.306 -2.99,2.025c-0.283,-0.059 -0.54,-0.169 -0.839,-0.3c-0.077,-0.034 -0.164,-0.069 -0.244,-0.109c-0.174,-0.072 -0.373,-0.144 -0.582,-0.225c-0.926,-0.36 -2.073,-0.797 -2.527,-1.481c-0.498,-0.757 -0.726,-2.194 -0.254,-3.047c0.499,-0.897 0.437,-2.46 0.116,-3.532c-0.186,-0.64 -0.498,-1.237 -0.794,-1.818c-0.19,-0.366 -0.383,-0.744 -0.547,-1.128c-0.164,-0.382 -0.27,-0.744 -0.373,-1.094c-0.176,-0.616 -0.343,-1.191 -0.777,-1.797c-0.733,-1.019 -1.72,-2.206 -2.881,-2.3c-0.656,-0.056 -1.318,0.244 -1.971,0.887c-0.951,0.941 -1.729,2.082 -2.141,3.132c-0.434,1.115 -0.652,2.3 -0.607,3.253c0.083,1.612 1.289,2.422 2.456,3.206c0.659,0.441 1.34,0.9 1.823,1.497c0.173,0.212 0.324,0.459 0.485,0.719c0.286,0.453 0.582,0.925 1.003,1.231c0.257,0.181 0.524,0.359 0.778,0.531c0.376,0.256 0.768,0.522 1.138,0.8c0.495,0.378 1.045,0.703 1.575,1.016c0.74,0.44 1.498,0.89 2.129,1.49c0.083,0.072 0.154,0.144 0.234,0.219c1.26,1.194 2.569,2.431 4.308,1.935c1.238,-0.35 2.186,-1.241 3.189,-2.188c0.949,-0.897 1.932,-1.828 3.257,-2.369c0.849,-0.343 1.771,-0.543 2.675,-0.722l0,-0.043c-0.91,0.181 -1.836,0.381 -2.691,0.731c-1.331,0.541 -2.315,1.472 -3.273,2.372Z" style="fill:#171717;fill-rule:nonzero;stroke:#000;stroke-width:0.14px;"/><path d="M86.152,59.006c-0.678,0.138 -1.376,0.475 -2.115,0.825c-1.225,0.588 -2.485,1.194 -3.649,0.841c-2.096,-0.635 -2.9,-2.8 -3.61,-4.703c-0.145,-0.391 -0.28,-0.757 -0.428,-1.113c-0.325,-0.784 -0.733,-1.512 -1.209,-2.156c-0.745,-1.006 -1.658,-1.631 -2.626,-2.284c-0.148,-0.1 -0.293,-0.2 -0.441,-0.3c-0.851,-0.591 -1.89,-1.169 -3.089,-1c-0.379,0.05 -0.772,0.246 -1.148,0.434c-0.238,0.122 -0.463,0.231 -0.684,0.312c-0.161,0.057 -0.328,0.119 -0.499,0.179c-1.282,0.45 -2.61,0.918 -3.526,1.931c-0.261,0.287 -0.486,0.665 -0.701,1.028c-0.116,0.191 -0.222,0.369 -0.331,0.541c-0.457,0.671 -0.846,1.418 -1.167,2.212c-0.348,0.863 -0.55,1.788 -0.746,2.684c-0.212,0.966 -0.431,1.972 -0.83,2.882c-0.411,0.934 -1.498,1.603 -2.459,2.193c-0.26,0.163 -0.508,0.316 -0.73,0.466c-0.652,0.444 -1.221,0.978 -1.761,1.497c-0.361,0.337 -0.73,0.694 -1.122,1.012c-0.907,0.744 -1.312,2.019 -1.065,3.322c0.441,2.282 1.354,2.657 3.331,2.978c1.508,0.241 3.263,0.182 5.359,-0.171c1.209,-0.207 2.357,-0.969 3.466,-1.697c0.405,-0.269 0.784,-0.519 1.157,-0.735c1.559,-0.915 3.408,-0.725 4.944,0.51c0.197,0.156 0.396,0.309 0.592,0.459c1.167,0.909 2.273,1.769 2.861,3.131c0.261,0.597 0.431,1.232 0.595,1.847c0.161,0.6 0.328,1.225 0.579,1.813c0.376,0.884 1.115,1.865 1.929,2.556c0.697,0.603 1.758,1.25 2.832,0.944c1,-0.285 1.588,-1.385 2.212,-2.55c0.395,-0.741 0.81,-1.507 1.353,-2.141c0.707,-0.825 1.652,-1.575 2.302,-2.066l0.064,-0.05c1.395,-1.05 2.707,-2.046 4.446,-2.381c0.11,-0.025 0.222,-0.044 0.335,-0.059l0,-0.041c-0.116,0.016 -0.229,0.035 -0.348,0.056c-1.748,0.341 -3.063,1.338 -4.455,2.391l-0.071,0.05c-0.649,0.494 -1.595,1.247 -2.308,2.072c-0.547,0.641 -0.955,1.409 -1.357,2.15c-0.617,1.159 -1.206,2.253 -2.183,2.531c-1.054,0.3 -2.102,-0.34 -2.797,-0.931c-0.797,-0.681 -1.549,-1.678 -1.913,-2.547c-0.25,-0.584 -0.418,-1.206 -0.578,-1.806c-0.167,-0.616 -0.335,-1.253 -0.598,-1.853c-0.592,-1.372 -1.752,-2.272 -2.877,-3.147c-0.193,-0.147 -0.393,-0.303 -0.589,-0.46c-1.553,-1.243 -3.417,-1.434 -4.989,-0.515c-0.38,0.219 -0.759,0.469 -1.158,0.734c-1.109,0.735 -2.256,1.488 -3.455,1.691c-2.09,0.362 -3.839,0.415 -5.344,0.172c-1.954,-0.316 -2.861,-0.691 -3.295,-2.944c-0.251,-1.288 0.155,-2.547 1.048,-3.278c0.393,-0.328 0.765,-0.678 1.125,-1.019c0.544,-0.516 1.106,-1.053 1.756,-1.494c0.222,-0.15 0.472,-0.303 0.73,-0.462c0.964,-0.594 2.054,-1.266 2.472,-2.21c0.402,-0.915 0.623,-1.924 0.836,-2.89c0.199,-0.897 0.395,-1.819 0.742,-2.678c0.322,-0.791 0.711,-1.535 1.164,-2.21c0.113,-0.165 0.219,-0.35 0.331,-0.537c0.219,-0.363 0.441,-0.735 0.701,-1.025c0.907,-1 2.228,-1.466 3.507,-1.919c0.168,-0.059 0.331,-0.119 0.502,-0.178c0.225,-0.081 0.456,-0.2 0.681,-0.312c0.377,-0.191 0.766,-0.382 1.138,-0.435c1.187,-0.166 2.209,0.413 3.061,0.997c0.151,0.103 0.293,0.197 0.437,0.294c0.968,0.659 1.878,1.278 2.617,2.278c0.476,0.644 0.878,1.369 1.206,2.153c0.144,0.35 0.279,0.719 0.427,1.109c0.711,1.913 1.518,4.085 3.639,4.725c1.177,0.36 2.45,-0.253 3.678,-0.84c0.74,-0.353 1.431,-0.685 2.103,-0.825c0.954,-0.197 2.716,-0.278 4.414,-0.238l0,-0.044c-1.701,-0.031 -3.466,0.044 -4.421,0.244Z" style="fill:#171717;fill-rule:nonzero;stroke:#000;stroke-width:0.14px;"/><path d="M85.297,26.372c-1.148,0.772 -1.832,1.869 -2.041,3.25c-0.081,0.541 -0.02,1.134 0.045,1.7c0.067,0.6 0.135,1.215 0.035,1.797c-0.106,0.669 -0.476,1.268 -0.942,1.534c-0.331,0.188 -0.694,0.21 -1.077,0.069c-1.238,-1.397 -2.25,-2.325 -3.771,-2.928c-0.437,-0.172 -0.878,-0.322 -1.427,-0.488c-0.267,-0.081 -0.537,-0.165 -0.798,-0.25c-1.652,-0.528 -3.369,-1.072 -6.153,-0.847c-1.337,0.107 -2.343,0.347 -3.224,1.21c-0.579,0.572 -1.019,1.259 -1.437,1.925c-0.309,0.475 -0.621,0.972 -0.984,1.415c-0.183,0.225 -0.402,0.447 -0.611,0.666c-0.312,0.319 -0.636,0.65 -0.874,1.016c-0.495,0.759 -0.518,2.025 -0.331,2.878c0.244,1.112 0.977,2.068 1.71,2.953c0.18,0.219 0.354,0.462 0.54,0.715c0.492,0.682 1,1.388 1.704,1.754c0.778,0.396 1.681,0.4 2.54,0.34c0.299,-0.015 0.601,-0.1 0.897,-0.172c0.43,-0.112 0.874,-0.231 1.305,-0.156c1.53,0.266 3.263,1.3 4.369,2.181c0.604,0.478 1.151,1.013 1.623,1.6c0.373,0.457 0.727,0.919 1.106,1.413c0.646,0.844 1.315,1.712 2.077,2.572c0.704,0.803 1.623,1.559 3.07,1.075c0.82,-0.278 1.524,-0.753 2.18,-1.222c0.971,-0.694 1.851,-1.669 2.7,-2.613c0.775,-0.868 1.514,-1.684 2.238,-2.187c0.199,-0.138 0.434,-0.266 0.807,-0.35l0,-0.041c-0.383,0.085 -0.63,0.222 -0.83,0.36c-0.733,0.503 -1.466,1.318 -2.25,2.193c-0.842,0.941 -1.72,1.916 -2.688,2.607c-0.675,0.484 -1.356,0.943 -2.17,1.212c-1.424,0.481 -2.331,-0.269 -3.028,-1.056c-0.756,-0.863 -1.428,-1.735 -2.071,-2.575c-0.379,-0.494 -0.739,-0.956 -1.109,-1.413c-0.472,-0.584 -1.019,-1.128 -1.63,-1.606c-1.112,-0.884 -2.851,-1.925 -4.388,-2.191c-0.44,-0.075 -0.887,0.041 -1.324,0.157c-0.293,0.075 -0.592,0.153 -0.884,0.172c-0.856,0.056 -1.752,0.056 -2.521,-0.338c-0.694,-0.359 -1.202,-1.059 -1.691,-1.737c-0.183,-0.257 -0.357,-0.497 -0.54,-0.722c-0.73,-0.875 -1.463,-1.828 -1.701,-2.935c-0.183,-0.847 -0.16,-2.097 0.325,-2.847c0.235,-0.365 0.556,-0.693 0.871,-1.015c0.209,-0.213 0.431,-0.434 0.611,-0.66c0.367,-0.45 0.682,-0.943 0.984,-1.424c0.424,-0.663 0.855,-1.347 1.437,-1.913c0.871,-0.853 1.868,-1.094 3.195,-1.203c2.781,-0.219 4.492,0.322 6.138,0.85c0.26,0.081 0.53,0.169 0.797,0.25c0.546,0.165 0.99,0.315 1.421,0.484c1.52,0.6 2.53,1.528 3.758,2.922l0.01,0.006c0.401,0.147 0.778,0.119 1.118,-0.071c0.479,-0.272 0.859,-0.885 0.968,-1.563c0.093,-0.584 0.026,-1.203 -0.042,-1.806c-0.058,-0.566 -0.122,-1.156 -0.042,-1.691c0.206,-1.372 0.888,-2.456 2.023,-3.222c1.295,-0.875 3.108,-1.284 5.253,-1.206l0,-0.041c-2.154,-0.078 -3.974,0.332 -5.276,1.213Z" style="fill:#171717;fill-rule:nonzero;stroke:#000;stroke-width:0.14px;"/><path d="M24.681,3.925c0.074,0.572 0.164,1.637 -0.038,2.353c-0.341,1.175 -1.318,2.191 -2.263,3.172c-1.338,1.384 -2.72,2.816 -2.296,4.728c0.228,1.031 0.801,1.672 1.759,1.963c0.826,0.253 1.848,0.218 2.996,0.159c2.099,-0.116 3.52,0.222 4.346,0.525c0.836,0.312 1.601,0.825 2.347,1.325c1,0.669 1.945,1.303 3.013,1.444c0.427,0.056 0.778,0.044 1.179,-0.044c0.997,-0.216 1.752,-0.703 2.55,-1.222c1.356,-0.875 2.755,-1.784 5.475,-1.256c0.598,0.112 1.189,0.284 1.816,0.465c2.006,0.579 4.076,1.169 6.394,-0.024c2.093,-1.022 3.411,-2.9 4.684,-4.716c0.592,-0.844 1.209,-1.722 1.887,-2.491c0.868,-0.984 2.051,-2.331 3.508,-1.862c0.582,0.181 1.186,0.275 1.768,0.362c0.926,0.144 1.881,0.291 2.742,0.816c0.614,0.375 1.093,0.909 1.556,1.428c0.219,0.241 0.444,0.491 0.678,0.722c0.521,0.509 0.942,1.112 1.351,1.691c0.347,0.496 0.707,1.003 1.128,1.456c0.563,0.484 1.061,0.909 1.636,1.415c0.698,0.622 1.335,1.357 1.952,2.063c1.18,1.365 2.292,2.65 3.745,3.066c1.026,0.296 2.087,0.256 3.44,-0.122c0.723,-0.207 1.678,-0.6 2.35,-0.897c1.363,-0.603 2.897,-1.425 4.099,-2.197c0.939,-0.606 1.656,-1.453 2.09,-2.469l0,-0.109c-0.425,1.05 -1.155,1.928 -2.109,2.54c-1.206,0.772 -2.736,1.597 -4.099,2.197c-0.669,0.297 -1.621,0.694 -2.341,0.894c-1.35,0.375 -2.401,0.416 -3.417,0.125c-1.44,-0.413 -2.549,-1.694 -3.726,-3.05c-0.617,-0.709 -1.254,-1.447 -1.958,-2.069c-0.575,-0.509 -1.07,-0.934 -1.636,-1.419c-0.415,-0.446 -0.772,-0.956 -1.119,-1.446c-0.408,-0.582 -0.836,-1.182 -1.353,-1.694c-0.238,-0.234 -0.463,-0.484 -0.679,-0.728c-0.466,-0.519 -0.945,-1.057 -1.565,-1.432c-0.868,-0.531 -1.83,-0.678 -2.759,-0.818c-0.582,-0.091 -1.186,-0.182 -1.761,-0.366c-1.482,-0.472 -2.682,0.881 -3.553,1.875c-0.681,0.775 -1.292,1.647 -1.89,2.497c-1.27,1.816 -2.585,3.687 -4.665,4.7c-2.305,1.188 -4.372,0.597 -6.368,0.022c-0.627,-0.178 -1.219,-0.35 -1.82,-0.466c-2.733,-0.528 -4.141,0.382 -5.504,1.263c-0.794,0.515 -1.543,1.003 -2.539,1.215c-0.393,0.085 -0.74,0.097 -1.161,0.044c-1.055,-0.134 -2,-0.769 -2.996,-1.437c-0.743,-0.5 -1.521,-1.019 -2.357,-1.329c-0.826,-0.306 -2.253,-0.643 -4.362,-0.531c-1.968,0.107 -4.202,0.228 -4.716,-2.087c-0.412,-1.894 0.958,-3.319 2.285,-4.694c0.952,-0.984 1.936,-2.003 2.273,-3.191c0.2,-0.678 0.135,-1.662 0.048,-2.365c-0.144,-1.135 -0.485,-2.297 -0.851,-3.522c-0.036,-0.131 -0.074,-0.263 -0.116,-0.397l-0.042,0c0.039,0.138 0.08,0.272 0.122,0.409c0.36,1.225 0.704,2.382 0.842,3.516Z" style="fill:#171717;fill-rule:nonzero;stroke:#000;stroke-width:0.14px;"/><path d="M85.892,81.537c-0.155,0.813 -0.228,1.657 -0.299,2.472c-0.064,0.71 -0.122,1.4 -0.238,2.044l0.042,0c0.112,-0.647 0.177,-1.341 0.234,-2.041c0.078,-0.815 0.148,-1.659 0.306,-2.471c0.543,-2.832 1.999,-4.525 4.218,-4.894c0.144,-0.025 0.283,-0.041 0.418,-0.053l0,-0.038c-0.139,0.01 -0.277,0.025 -0.428,0.05c-2.234,0.375 -3.703,2.075 -4.253,4.931Z" style="fill:#171717;fill-rule:nonzero;stroke:#000;stroke-width:0.14px;"/><path d="M73.634,83.787c-0.245,-0.837 -0.64,-1.706 -1.023,-2.54l-0.067,-0.144c-0.248,-0.553 -0.453,-1.141 -0.666,-1.769c-0.437,-1.278 -0.887,-2.6 -1.784,-3.55c-0.794,-0.843 -2.09,-1.328 -3.559,-1.328c-0.823,0 -1.614,0.156 -2.285,0.447c-0.795,0.347 -1.437,0.759 -1.968,1.259c-0.444,0.419 -1.09,0.635 -1.717,0.85c-0.414,0.138 -0.845,0.288 -1.221,0.491c-1.138,0.631 -1.855,1.506 -2.067,2.547c-0.2,0.969 -0.18,2.216 -0.158,3.422c0.01,0.731 0.026,1.49 -0.01,2.194c-0.006,0.121 -0.016,0.256 -0.025,0.387l0.042,0c0.009,-0.131 0.019,-0.262 0.025,-0.387c0.036,-0.7 0.023,-1.463 0.01,-2.194c-0.023,-1.206 -0.042,-2.453 0.157,-3.416c0.213,-1.025 0.92,-1.897 2.045,-2.519c0.373,-0.2 0.801,-0.346 1.218,-0.487c0.627,-0.213 1.277,-0.434 1.727,-0.856c0.53,-0.5 1.17,-0.907 1.961,-1.253c0.669,-0.291 1.45,-0.441 2.266,-0.441c1.457,0 2.739,0.478 3.53,1.312c0.887,0.947 1.341,2.263 1.772,3.538c0.218,0.625 0.417,1.219 0.668,1.769l0.071,0.147c0.379,0.834 0.772,1.696 1.016,2.534c0.138,0.472 0.257,0.994 0.373,1.503c0.061,0.259 0.119,0.509 0.177,0.75l0.045,0c-0.061,-0.241 -0.119,-0.497 -0.18,-0.759c-0.113,-0.507 -0.232,-1.032 -0.373,-1.507Z" style="fill:#171717;fill-rule:nonzero;stroke:#000;stroke-width:0.14px;"/><path d="M71.708,84.525c-0.1,-0.663 -0.215,-1.416 -0.492,-2.072c-0.109,-0.266 -0.28,-0.491 -0.447,-0.706c-0.128,-0.166 -0.254,-0.335 -0.357,-0.522c-0.151,-0.269 -0.27,-0.572 -0.395,-0.891c-0.363,-0.906 -0.739,-1.843 -1.768,-2.109c-0.245,-0.066 -0.566,-0.091 -0.981,-0.091c-0.434,0 -0.897,0.032 -1.308,0.066c-0.164,0.009 -0.312,0.022 -0.453,0.034c-1.335,0.078 -2.762,0.572 -3.823,1.328c-1.276,0.904 -1.646,2.425 -1.81,3.5c-0.125,0.769 -0.241,1.907 0.145,2.872c0.016,0.038 0.032,0.078 0.048,0.119l0.048,0c-0.019,-0.047 -0.041,-0.087 -0.061,-0.134c-0.379,-0.953 -0.263,-2.088 -0.144,-2.853c0.167,-1.063 0.533,-2.579 1.8,-3.475c1.054,-0.747 2.475,-1.238 3.8,-1.319c0.141,-0.006 0.289,-0.019 0.453,-0.031c0.412,-0.035 0.875,-0.072 1.305,-0.072c0.409,0 0.727,0.034 0.971,0.1c1.013,0.259 1.379,1.187 1.736,2.078c0.129,0.325 0.251,0.625 0.399,0.897c0.103,0.187 0.238,0.359 0.363,0.525c0.161,0.215 0.331,0.437 0.441,0.697c0.273,0.653 0.389,1.403 0.491,2.065c0.071,0.469 0.1,0.994 0.097,1.522l0.042,0c0.006,-0.531 -0.026,-1.056 -0.1,-1.528Z" style="fill:#171717;fill-rule:nonzero;stroke:#000;stroke-width:0.14px;"/><path d="M90.537,79.637l-0.003,0c-1.987,0.175 -3.099,2.279 -3.395,6.416l0.045,0c0.293,-4.112 1.386,-6.2 3.35,-6.375c0.013,0.003 0.029,0.006 0.039,0.006l0,-0.04c-0.007,-0.003 -0.023,-0.007 -0.036,-0.007Z" style="fill:#171717;fill-rule:nonzero;stroke:#000;stroke-width:0.14px;"/><path d="M90.036,84.834c-0.216,0.35 -0.428,0.757 -0.47,1.219l0.042,0c0.042,-0.447 0.254,-0.85 0.463,-1.191c0.177,-0.103 0.347,-0.162 0.502,-0.178l0,-0.034c-0.164,0.012 -0.341,0.069 -0.531,0.178l-0.006,0.006Z" style="fill:#171717;fill-rule:nonzero;stroke:#000;stroke-width:0.14px;"/><path d="M23.174,80.547c0.324,-1.035 0.881,-1.66 1.755,-2.597c0.135,-0.15 0.283,-0.297 0.444,-0.456c0.623,-0.628 1.327,-1.338 1.485,-2.075c0.315,-1.478 -0.624,-2.344 -1.588,-2.994c-0.476,-0.319 -1.01,-0.572 -1.531,-0.816c-0.668,-0.318 -1.359,-0.647 -1.932,-1.128c-0.61,-0.512 -1.134,-1.24 -1.562,-2.172c-0.196,-0.412 -0.28,-0.859 -0.37,-1.29c-0.08,-0.422 -0.164,-0.853 -0.347,-1.257c-0.842,-1.831 -1.942,-3.9 -3.736,-5.35c-0.781,-0.628 -1.768,-1.625 -2.028,-2.809c-0.171,-0.778 0.064,-1.456 0.257,-2.003l0.032,-0.1c0.428,-1.231 1.701,-4.172 4.369,-4.916c0.479,-0.134 1.064,-0.231 1.685,-0.337c0.778,-0.128 1.585,-0.266 2.167,-0.478c0.919,-0.328 1.572,-0.782 2.263,-1.3l0.103,-0.072c0.662,-0.494 1.488,-1.106 2.565,-1.028c0.932,0.075 2,0.547 2.919,1.303c0.932,0.762 1.553,1.687 1.714,2.537c0.099,0.55 0.148,0.994 0.193,1.422c0.038,0.369 0.07,0.716 0.141,1.1c0.347,1.922 1.296,3.46 2.823,4.553c1.244,0.891 2.899,1.516 4.928,1.857c2.63,0.443 4.864,-0.391 5.7,-0.769c1.331,-0.606 2.755,-2.056 3.986,-3.375c1.225,-1.309 1.871,-2.085 2.016,-4.163c0.048,-0.668 -0.01,-1.312 -0.061,-1.94c-0.019,-0.247 -0.045,-0.497 -0.061,-0.747c-0.01,-0.181 -0.026,-0.366 -0.045,-0.56c-0.058,-0.634 -0.116,-1.287 0,-1.956c0.251,-1.387 1.07,-2 2.527,-1.862c1.893,0.172 3.549,1.39 4.214,3.109c0.531,1.369 0.103,2.797 -0.234,3.95l-0.058,0.188c-0.56,1.909 -1.328,3.393 -2.334,4.546c-0.576,0.65 -1.206,1.263 -1.823,1.857c-0.228,0.215 -0.46,0.443 -0.685,0.668c-0.321,0.316 -0.675,0.604 -1.022,0.882c-0.431,0.347 -0.875,0.715 -1.257,1.131c-0.534,0.591 -0.936,1.259 -1.257,1.831c-1.051,1.881 -1.788,3.541 -2.241,5.063c-0.411,1.372 -1.549,2.465 -3.041,2.918c-1.923,0.585 -4.681,0.516 -8.191,-0.2c-1.72,-0.356 -2.746,-1.312 -3.042,-2.853c-0.334,-1.759 -1.559,-2.634 -2.851,-3.559c-0.331,-0.238 -0.675,-0.484 -1.007,-0.744c-1.372,-1.094 -0.687,-2.128 0.036,-3.225c0.321,-0.49 0.656,-0.994 0.797,-1.509c0.228,-0.806 -0.067,-1.656 -0.35,-2.481c-0.148,-0.432 -0.283,-0.835 -0.354,-1.235c-0.331,-1.9 -0.665,-3.4 -1.662,-4.019c-0.534,-0.328 -1.215,-0.375 -2.096,-0.134c-0.142,0.034 -0.299,0.081 -0.463,0.128c-0.341,0.1 -0.727,0.21 -1.045,0.275c-0.55,0.122 -1.119,0.194 -1.726,0.263c-0.643,0.081 -1.305,0.159 -2.038,0.309c-1.106,0.222 -2.084,0.741 -2.82,1.497c-0.72,0.744 -1.18,1.681 -1.331,2.719c-0.061,0.437 -0.08,0.815 0.045,1.228c0.364,1.203 1.489,2.05 2.479,2.8c0.228,0.169 0.444,0.331 0.653,0.5l0.032,0.028c0.958,0.769 2.15,1.725 2.109,3.041c-0.049,1.356 0.131,2.337 0.591,3.29c0.73,1.494 1.755,2.403 3.546,3.131c0.135,0.05 0.267,0.107 0.402,0.16c0.614,0.247 1.247,0.5 1.836,0.822c0.482,0.262 0.803,0.593 1.144,0.94c0.187,0.194 0.383,0.391 0.604,0.582c0.267,0.225 0.521,0.525 0.788,0.843c0.675,0.813 1.44,1.732 2.627,1.513c0.604,-0.116 1.202,-0.519 1.835,-0.947c0.553,-0.375 1.122,-0.763 1.768,-1.009c1.09,-0.416 2.624,-0.513 4.25,-0.622c0.987,-0.063 2.01,-0.132 2.942,-0.272c2.122,-0.325 3.556,-1.05 4.385,-2.213c0.248,-0.34 0.412,-0.728 0.566,-1.103c0.119,-0.294 0.241,-0.594 0.405,-0.865c0.119,-0.213 0.309,-0.375 0.489,-0.535c0.102,-0.087 0.209,-0.181 0.299,-0.281c0.17,-0.184 0.334,-0.375 0.491,-0.566c0.177,-0.206 0.361,-0.425 0.553,-0.628c0.303,-0.322 0.647,-0.612 0.974,-0.903c0.306,-0.269 0.621,-0.547 0.91,-0.847c0.238,-0.244 0.431,-0.509 0.618,-0.765c0.208,-0.291 0.421,-0.588 0.707,-0.86c0.485,-0.469 0.99,-0.978 1.395,-1.544c0.344,-0.487 0.498,-0.962 0.672,-1.462c0.048,-0.156 0.1,-0.316 0.164,-0.478c0.128,-0.366 0.363,-0.71 0.588,-1.044c0.135,-0.2 0.27,-0.4 0.383,-0.603c0.431,-0.766 0.8,-1.531 1.096,-2.275c0.084,-0.213 0.158,-0.425 0.238,-0.631c0.029,-0.091 0.064,-0.175 0.096,-0.263c0.148,-0.397 0.306,-0.8 0.457,-1.19c0.44,-1.135 0.9,-2.304 1.135,-3.369c0.151,-0.681 0.283,-1.41 0.122,-2.125c-0.547,-2.463 -3.003,-5.028 -5.253,-5.5c-1.039,-0.213 -2.35,-0.2 -3.691,0.044c-2.228,0.406 -3.047,1.45 -2.935,3.728c0.026,0.531 0.077,1.068 0.122,1.587c0.106,1.122 0.206,2.185 0.084,3.21c-0.068,0.59 -0.273,1.118 -0.418,1.459c-0.325,0.766 -1.074,2.075 -2.006,3.494c-0.916,1.397 -2.151,2.412 -3.385,2.793c-2.347,0.722 -5.491,0.007 -7.317,-1.671c-0.917,-0.841 -1.894,-2.279 -1.351,-4.335c0.036,-0.125 0.09,-0.25 0.148,-0.384c0.077,-0.159 0.148,-0.325 0.19,-0.51c0.283,-0.474 0.637,-0.903 0.981,-1.318c0.781,-0.938 1.514,-1.819 1.231,-3.082c-0.048,-0.234 -0.158,-0.481 -0.27,-0.746c-0.229,-0.541 -0.463,-1.1 -0.187,-1.435c0.483,-0.584 1.142,-1.194 1.842,-1.837c1.209,-1.119 2.46,-2.278 2.817,-3.366c0.36,-1.087 -0.377,-2.172 -0.692,-2.628c-0.337,-0.5 -0.729,-1.013 -1.138,-1.559c-0.315,-0.422 -0.646,-0.86 -0.954,-1.294c-0.258,-0.363 -0.512,-0.71 -0.759,-1.053c-0.569,-0.8 -1.109,-1.55 -1.665,-2.357c-0.222,-0.321 -0.441,-0.665 -0.656,-0.996c-0.364,-0.554 -0.733,-1.125 -1.106,-1.61c-0.817,-1.062 -1.736,-1.5 -2.746,-1.3c-0.996,0.197 -2.08,0.947 -3.018,1.631c-0.129,0.091 -0.254,0.185 -0.38,0.279c-1.752,1.278 -3.742,2.725 -4.266,4.334c-0.443,1.369 0.376,2.006 1.241,2.681c0.097,0.075 0.19,0.147 0.28,0.222c0.578,0.463 1.022,0.941 1.376,1.344c0.482,0.553 0.913,1.215 1.327,1.856c0.293,0.45 0.57,0.884 0.846,1.235c0.952,1.212 2.183,1.746 3.376,2.268c1.17,0.506 2.375,1.025 3.288,2.188c0,0.043 0.004,0.084 0.004,0.125c0.003,0.122 0.009,0.243 -0.026,0.356c-1.087,1.144 -2.434,1.428 -4.118,0.881c-0.515,-0.169 -1.023,-0.434 -1.563,-0.722c-1.205,-0.634 -2.453,-1.287 -3.887,-0.862c-1.035,0.303 -1.748,1.009 -2.443,1.694c-0.685,0.678 -1.392,1.375 -2.414,1.725c-0.601,0.196 -1.219,0.256 -2.09,0.321c-2.189,0.163 -3.247,0.407 -4.15,1.516c-1.186,1.469 -2.649,4.059 -3.096,5.131c-0.177,0.429 -0.286,0.747 -0.338,0.985c-0.382,1.865 0.798,3.325 1.865,4.393c0.257,0.254 0.543,0.491 0.817,0.716c0.244,0.206 0.498,0.416 0.736,0.638c0.476,0.465 0.858,1.018 1.225,1.55c0.193,0.271 0.382,0.55 0.585,0.815c1.472,1.91 1.916,3.572 1.44,5.397c-0.344,1.309 -1.128,2.966 -2.935,3.419c-0.662,0.162 -1.379,0.247 -2.132,0.328c-0.7,0.081 -1.427,0.162 -2.137,0.322c-0.621,0.134 -1.209,0.312 -1.778,0.49c-0.794,0.238 -1.543,0.469 -2.318,0.563c-1.36,0.178 -2.566,-0.1 -3.736,-0.359c-1.028,-0.235 -2.009,-0.454 -2.97,-0.329l0,0.041c0.961,-0.128 1.932,0.094 2.964,0.325c1.17,0.266 2.379,0.538 3.748,0.363c0.782,-0.097 1.527,-0.325 2.325,-0.569c0.565,-0.172 1.157,-0.35 1.777,-0.488c0.711,-0.156 1.428,-0.237 2.129,-0.315c0.755,-0.088 1.472,-0.166 2.138,-0.335c1.443,-0.362 2.472,-1.553 2.964,-3.443c0.479,-1.841 0.035,-3.513 -1.444,-5.438c-0.202,-0.262 -0.392,-0.537 -0.582,-0.806c-0.373,-0.538 -0.755,-1.094 -1.241,-1.553c-0.231,-0.232 -0.485,-0.441 -0.729,-0.644c-0.274,-0.228 -0.557,-0.463 -0.814,-0.719c-1.061,-1.056 -2.234,-2.506 -1.852,-4.359c0.045,-0.231 0.158,-0.547 0.332,-0.972c0.446,-1.069 1.906,-3.656 3.089,-5.119c0.891,-1.097 1.948,-1.344 4.121,-1.506c0.875,-0.066 1.492,-0.122 2.103,-0.328c1.032,-0.344 1.742,-1.05 2.43,-1.725c0.717,-0.716 1.399,-1.391 2.418,-1.684c1.424,-0.419 2.665,0.231 3.861,0.859c0.543,0.284 1.051,0.556 1.566,0.722c1.707,0.553 3.07,0.262 4.172,-0.891l0.004,-0.009c0.035,-0.125 0.032,-0.253 0.022,-0.375l0,-0.132l0,-0.006l-0.006,-0.006c-0.917,-1.172 -2.132,-1.7 -3.308,-2.209c-1.187,-0.513 -2.418,-1.05 -3.36,-2.25c-0.27,-0.354 -0.55,-0.782 -0.842,-1.238c-0.415,-0.641 -0.846,-1.3 -1.331,-1.859c-0.357,-0.403 -0.797,-0.882 -1.379,-1.347c-0.093,-0.078 -0.19,-0.147 -0.28,-0.222c-0.858,-0.666 -1.665,-1.3 -1.231,-2.637c0.521,-1.597 2.504,-3.038 4.25,-4.313c0.128,-0.094 0.257,-0.188 0.382,-0.281c0.933,-0.685 2.013,-1.428 3,-1.625c0.99,-0.194 1.9,0.237 2.707,1.287c0.373,0.482 0.742,1.053 1.102,1.606c0.213,0.332 0.434,0.672 0.656,0.997c0.553,0.803 1.096,1.56 1.669,2.357c0.247,0.343 0.498,0.697 0.758,1.056c0.309,0.434 0.634,0.872 0.955,1.291c0.412,0.546 0.801,1.062 1.135,1.556c0.312,0.459 1.038,1.528 0.688,2.597c-0.354,1.081 -1.604,2.228 -2.81,3.347c-0.701,0.646 -1.363,1.256 -1.845,1.843c-0.289,0.353 -0.052,0.925 0.186,1.475c0.113,0.263 0.219,0.513 0.264,0.738c0.28,1.243 -0.45,2.118 -1.222,3.047c-0.347,0.418 -0.704,0.85 -0.987,1.328l-0.003,0.009c-0.042,0.181 -0.112,0.344 -0.189,0.503c-0.055,0.138 -0.116,0.263 -0.145,0.388c-0.428,1.625 0.055,3.178 1.363,4.378c1.836,1.687 4.996,2.403 7.355,1.681c1.245,-0.387 2.489,-1.412 3.405,-2.809c0.935,-1.425 1.688,-2.735 2.012,-3.503c0.148,-0.344 0.348,-0.875 0.422,-1.469c0.122,-1.031 0.022,-2.094 -0.084,-3.219c-0.048,-0.519 -0.1,-1.056 -0.125,-1.584c-0.055,-1.153 0.125,-1.963 0.572,-2.535c0.456,-0.578 1.193,-0.947 2.331,-1.15c1.337,-0.247 2.642,-0.259 3.674,-0.043c2.241,0.462 4.675,3.018 5.218,5.465c0.161,0.706 0.029,1.428 -0.119,2.106c-0.235,1.069 -0.694,2.235 -1.132,3.36c-0.151,0.394 -0.308,0.797 -0.456,1.194c-0.036,0.087 -0.065,0.175 -0.1,0.265c-0.074,0.206 -0.154,0.419 -0.235,0.631c-0.295,0.741 -0.659,1.504 -1.089,2.266c-0.113,0.203 -0.251,0.403 -0.383,0.603c-0.228,0.335 -0.466,0.685 -0.598,1.053c-0.061,0.163 -0.112,0.325 -0.167,0.478c-0.164,0.497 -0.318,0.972 -0.659,1.45c-0.408,0.569 -0.91,1.075 -1.392,1.538c-0.286,0.272 -0.505,0.575 -0.714,0.866c-0.183,0.259 -0.373,0.518 -0.611,0.765c-0.283,0.294 -0.604,0.575 -0.913,0.841c-0.328,0.29 -0.668,0.587 -0.974,0.909c-0.189,0.206 -0.379,0.419 -0.553,0.628c-0.157,0.188 -0.321,0.378 -0.492,0.563c-0.09,0.097 -0.192,0.194 -0.292,0.281c-0.187,0.163 -0.373,0.325 -0.498,0.544c-0.168,0.278 -0.293,0.575 -0.412,0.865c-0.154,0.375 -0.312,0.763 -0.556,1.104c-0.82,1.153 -2.247,1.865 -4.359,2.19c-0.929,0.144 -1.949,0.21 -2.939,0.275c-1.63,0.106 -3.166,0.203 -4.263,0.622c-0.646,0.247 -1.224,0.634 -1.777,1.009c-0.627,0.429 -1.222,0.832 -1.817,0.941c-1.16,0.216 -1.916,-0.691 -2.588,-1.494c-0.27,-0.318 -0.521,-0.625 -0.791,-0.85c-0.221,-0.19 -0.418,-0.384 -0.604,-0.581c-0.344,-0.35 -0.665,-0.678 -1.151,-0.944c-0.595,-0.325 -1.231,-0.581 -1.842,-0.825c-0.135,-0.053 -0.267,-0.106 -0.402,-0.159c-1.778,-0.722 -2.8,-1.622 -3.52,-3.109c-0.463,-0.947 -0.637,-1.925 -0.592,-3.275c0.045,-1.332 -1.157,-2.297 -2.125,-3.075l-0.032,-0.025c-0.206,-0.169 -0.421,-0.332 -0.652,-0.504c-1.032,-0.781 -2.103,-1.59 -2.466,-2.778c-0.119,-0.403 -0.103,-0.778 -0.039,-1.212c0.302,-2.122 1.881,-3.728 4.115,-4.178c0.73,-0.15 1.395,-0.228 2.032,-0.307c0.608,-0.071 1.18,-0.146 1.733,-0.265c0.318,-0.066 0.704,-0.178 1.045,-0.275c0.164,-0.05 0.321,-0.094 0.466,-0.131c0.868,-0.235 1.54,-0.188 2.067,0.134c0.977,0.6 1.308,2.1 1.636,3.987c0.071,0.404 0.212,0.813 0.36,1.244c0.28,0.819 0.569,1.663 0.351,2.453c-0.145,0.513 -0.476,1.013 -0.798,1.503c-0.732,1.11 -1.424,2.16 -0.025,3.269c0.334,0.266 0.675,0.513 1.009,0.75c1.286,0.922 2.501,1.791 2.832,3.535c0.303,1.559 1.338,2.528 3.08,2.881c3.511,0.725 6.279,0.79 8.205,0.206c1.511,-0.462 2.655,-1.559 3.066,-2.947c0.457,-1.522 1.187,-3.172 2.244,-5.056c0.319,-0.569 0.721,-1.231 1.251,-1.822c0.373,-0.416 0.823,-0.778 1.257,-1.128c0.341,-0.281 0.698,-0.569 1.016,-0.881c0.228,-0.228 0.463,-0.457 0.688,-0.672c0.617,-0.594 1.254,-1.21 1.826,-1.86c1.013,-1.156 1.778,-2.65 2.34,-4.562l0.058,-0.188c0.344,-1.156 0.768,-2.59 0.235,-3.975c-0.672,-1.728 -2.341,-2.959 -4.25,-3.137c-1.476,-0.134 -2.321,0.484 -2.566,1.9c-0.122,0.672 -0.064,1.328 -0.003,1.966c0.016,0.193 0.032,0.378 0.042,0.559c0.019,0.253 0.039,0.5 0.061,0.747c0.055,0.625 0.109,1.272 0.068,1.934c-0.148,2.063 -0.794,2.838 -2.01,4.138c-1.228,1.312 -2.652,2.765 -3.973,3.362c-0.833,0.378 -3.058,1.213 -5.678,0.769c-4.497,-0.756 -7.092,-2.9 -7.718,-6.375c-0.065,-0.381 -0.103,-0.731 -0.139,-1.097c-0.045,-0.431 -0.09,-0.872 -0.193,-1.428c-0.16,-0.859 -0.787,-1.791 -1.726,-2.562c-0.932,-0.757 -2.003,-1.235 -2.945,-1.31c-1.093,-0.081 -1.925,0.534 -2.594,1.034l-0.097,0.075c-0.697,0.516 -1.347,0.969 -2.256,1.297c-0.579,0.207 -1.386,0.341 -2.164,0.475c-0.62,0.103 -1.205,0.207 -1.684,0.338c-2.688,0.747 -3.971,3.703 -4.402,4.94l-0.032,0.101c-0.193,0.553 -0.431,1.231 -0.257,2.024c0.26,1.197 1.257,2.2 2.045,2.832c1.787,1.44 2.887,3.506 3.722,5.34c0.181,0.391 0.264,0.822 0.348,1.241c0.086,0.434 0.17,0.884 0.369,1.303c0.431,0.934 0.962,1.669 1.572,2.184c0.573,0.485 1.274,0.813 1.945,1.132c0.518,0.247 1.052,0.497 1.521,0.815c0.952,0.641 1.884,1.497 1.569,2.953c-0.151,0.725 -0.849,1.432 -1.473,2.05c-0.157,0.163 -0.305,0.313 -0.446,0.463c-0.878,0.934 -1.431,1.562 -1.759,2.609c-0.244,0.782 -0.264,2.178 -0.042,3.185c0.18,0.809 0.399,1.587 0.624,2.334l0.042,0c-0.222,-0.75 -0.441,-1.528 -0.624,-2.344c-0.219,-1 -0.206,-2.387 0.039,-3.162Z" style="fill:#171717;fill-rule:nonzero;stroke:#000;stroke-width:0.14px;"/></g></svg>