<svg version="1" xmlns="http://www.w3.org/2000/svg" width="1280" height="1280" viewBox="0 0 960.000000 960.000000"><path d="M469 88.5c-22.8 3.9-42.3 18.7-52.6 40-2.4 4.9-4.6 10.6-4.9 12.5-.3 1.9-1 5.2-1.6 7.3-2 7.5-.6 24.2 2.9 35.3 5.9 18.7 22.6 36.2 42.3 44.1 5.6 2.2 7.6 2.9 11.9 3.7 2.3.4 2.4 24.5.1 24.7-.9.1-2.9.3-4.6.4-1.6.2-5.5.6-8.5.9-7.4.8-15.5 1.9-22.1 3.1-.9.2-3.2.6-5 .9-4.8.7-19.9 4.5-22.9 5.6-1.4.6-3.4 1.1-4.5 1.3-1.1.2-2.7.7-3.5 1-.8.3-4.4 1.6-8 2.7-3.6 1.2-7.4 2.5-8.5 3-1.1.5-6.5 2.8-12 5.1-38.4 16.5-71.7 40.3-102.2 73.2-10.7 11.6-27.5 34.2-33.9 45.7-1 1.9-2.2 3.7-2.5 4-1.6 1.3-18.9 36.9-19.5 40 0 .3-.5 1.6-1.1 3-5.6 13.9-11.2 34-14.8 53-.3 1.4-.7 3.6-1 5-.5 2.6-1 6.2-2.2 17-1 8.7-1 52.7 0 61.5 1.2 11.1 2.5 20 3.2 22.5.2.8.7 3.1 1 5 .3 1.9 1.1 5.3 1.7 7.5.5 2.2 1.2 4.9 1.4 6 .7 4.2 1.6 8.1 2.1 9.5.3.8.7 1.9.8 2.5.2.5 1.7 5.3 3.5 10.5 12.8 37.9 33.4 73.7 59 102.5 5.5 6.2 24.2 24.7 28.6 28.2 18.3 15 29.7 23 45.4 32 9.8 5.6 31.2 16.3 32.6 16.3.3 0 2 .6 3.7 1.4 13.5 6 43.8 14.7 59.7 17.1 1.9.3 4.6.7 6 1 2.5.5 8.3 1.2 15.4 2 2.2.3 4.3.8 4.6 1.2.4.5 2 4.4 3.5 8.8 1.6 4.4 3.2 8.5 3.6 9.1.5.6 1 1.9 1.2 3 .2 1 .7 2.6 1 3.4.3.8 2.9 7.8 5.7 15.5 2.8 7.7 5.7 15.3 6.3 17 .7 1.6 1.2 3.2 1.2 3.5.1.3.9 2.3 1.9 4.5l1.8 4 1.3-3.5c.7-1.9 3.1-8.5 5.4-14.5 2.3-6.1 4.4-11.7 4.6-12.5.3-1.3 4.6-13.2 6.2-17 .3-.8.7-2 .9-2.5.1-.6.8-2.4 1.5-4 .7-1.7 1.3-3.2 1.4-3.5.1-.3.5-1.4.9-2.5s1.3-3.4 1.9-5c1.6-4.7.4-4.2 15-6 2.3-.3 5.3-.7 6.7-1 1.4-.2 4.1-.7 6-1 1.9-.3 4.2-.8 5-1 .8-.2 3.1-.7 5-1 10.5-1.8 29.7-7.4 43.5-12.8 4.4-1.7 8.2-3.2 8.5-3.3 3.4-.8 22.4-10.2 32-15.7 4.7-2.7 9.4-5.5 10.5-6.1 6.2-3.6 22.6-15.2 31-22 19-15.6 44-42.6 55.9-60.6 2-3 4-6 4.5-6.6.5-.6 4-6.5 7.8-13 6.3-10.8 9.8-17.6 16.1-31.4 2-4.6 8.3-20.7 8.6-22.5.2-.6 1.5-4.9 3-9.7 1.5-4.8 2.9-9.5 3.1-10.5.1-1 1-4.5 1.8-7.8 2.2-8.4 5.1-25.5 6.4-37.5.7-6.5.6-56.8-.1-61.5-.3-2.2-.8-5.8-1.1-8-2.7-22.2-11.6-55.1-19.9-73.9-.9-2-2.3-5.3-3.2-7.4-2.7-6.2-13-26.4-14.7-28.6-.4-.6-3.2-5-6.1-9.8-20.8-33.4-52.1-65.2-87.1-88.3-6.2-4.1-11.6-7.5-12-7.5-.4 0-1.9-.8-3.3-1.9-2.8-1.9-22-11.7-28.5-14.5-2-.9-5.2-2.2-7-3-3.4-1.5-26.1-9.5-28.7-10.1-.8-.2-4.9-1.2-9-2.3-6.6-1.7-11.1-2.7-21-4.7-1.4-.3-5.6-1-9.5-1.6-6.2-.9-9.5-1.2-23-2.4-1.6-.2-3.3-.3-3.7-.4-.4 0-.6-5.9-.6-13v-12.9l4-1.2c12.5-3.7 28.6-15.9 35.9-27.1 1.6-2.4 3.2-4.9 3.6-5.4 2.3-2.9 5.5-11.2 7.4-18.6 3.6-14.5 2.9-28.7-2.1-42.6-1.2-3.2-2.4-6.6-2.7-7.6-.3-.9-.9-1.7-1.4-1.7-.5 0-.9-.5-.9-1.1 0-1.9-7.8-12.4-12.6-17C515 91.6 492 84.5 469 88.5zm27.5 34.5c2.8 1.3 5.3 2.3 5.7 2.2.3-.1 3.3 2.4 6.5 5.6 5.6 5.4 10.6 13.6 11.9 19.2 2 8.9.2 24.2-3.2 28.1-.8.8-1.4 1.9-1.4 2.4 0 1.7-7.3 9.6-11.6 12.5-15.9 11-36.7 9.1-50.8-4.7-4.8-4.7-10.2-14.2-11.2-20-3.7-19.9 7.7-39.6 26.4-45.9 8.7-3 20.6-2.7 27.7.6zm13 166.4c14.1 1.6 28.1 4.1 40.5 7.1 20.4 5 45.7 15.3 65.5 26.8 13.6 7.8 12.5 7.1 25.5 16.7 14.3 10.5 15.9 11.9 29.5 25.5 12.2 12.2 14.8 15 22 24.5 2.8 3.6 5.2 6.7 5.5 7 1.3 1.3 7.3 10.4 12.2 18.5 7 11.6 15.7 28.9 19.5 39 1.7 4.4 3.4 8.9 3.8 10 .4 1.1.9 2.4 1.1 3 5 16.4 6.1 20.5 5.7 20.5-.2 0-.1.6.3 1.2.5.7.9 1.9 1.1 2.8.3 1.9 2.1 10.8 2.7 13.6.2 1.2.7 4.5 1.1 7.5.4 3 .8 5.6 1 5.9.2.3.4 3 .6 6 .1 3 .6 6 1.1 6.7.5.6.5 1.4 0 1.7-.5.3-.6 2.5-.3 4.8.5 3.6.6 29.3.1 29.3-.1 0-.3 2.7-.5 6-.3 6.3-1.2 13.2-2 17.5-.3 1.4-.7 4.1-1 6-.7 5.6-4.2 21.3-6.1 27.2-5 16.2-10.7 31.7-13.3 36.5-.6 1-2.4 4.7-4.1 8.3-5.4 11.5-15.1 27.5-24 39.5-25.3 34.2-59.6 62.7-96.5 80.4-7.9 3.8-25.2 11-27.5 11.5-.8.2-2.6.8-4 1.3-2.4 1-15.9 4.9-20.3 5.9-1.2.3-2.6.6-3.2.8-1.7.4-11.9 2.6-14.5 3-1.4.3-2.5.5-2.5.6 0 .1-2 .3-4.5.6-2.4.2-6 .7-8 .9-16.1 2.2-54.9 2.2-63 0-.8-.2-3.7-.7-6.5-1-13.3-1.9-14.9-2.2-40.5-8.9-1.7-.5-12.5-4.3-15.5-5.6-1.1-.4-4.5-1.8-7.5-3-14.4-5.9-30.7-14.6-44.4-23.9-3.8-2.5-7.6-5.1-8.5-5.6-.9-.6-1.8-1.3-2.1-1.6-.3-.3-2.6-2.1-5.2-4.1-15.5-11.7-35.4-31.8-47.8-48.3-16.6-22.2-32.3-51.5-39-73-.7-2.2-1.5-4.5-1.9-5-.3-.6-.7-1.9-.8-2.9-.2-1.1-1-4-1.9-6.5-2-5.8-5.3-21.1-6.9-32-.3-2-.7-4.8-1-6.1-.3-1.4-.7-6.1-1-10.5-.2-4.4-.5-8-.6-8-.4 0-.5-32.1-.1-32.9.3-.5.6-3.2.8-6 .5-9.8 1.3-15.1 6-38 .2-1 1.1-4.4 2-7.5.9-3.1 1.8-6.3 1.9-7.1.2-.8.4-1.5.5-1.5.1 0 .3-.7.5-1.5.9-3.8 5.8-16.9 9.6-25.7 6.5-14.8 12-24.9 21.5-39.6 3.6-5.4 6.9-10.4 7.4-11 .6-.7 2.7-3.4 4.8-6.2 2-2.7 4.9-6.3 6.4-8 1.4-1.6 3.6-4.1 4.8-5.5 24.8-28.8 64.4-56.5 100-70 4.7-1.8 9.4-3.6 10.5-4 5.2-2.2 17-5.5 28-8 2.2-.5 5.1-1.2 6.5-1.5 1.4-.3 3.9-.8 5.5-1 1.7-.3 4.6-.7 6.5-1.1 7.3-1.2 8.8-1.4 18.5-2 5.5-.3 10.1-.7 10.2-.8.6-.5 30.4.2 35.8.8z"/><path d="M467.7 343.6c-.1.1-2.4.5-5.2.8-2.7.4-7 .9-9.5 1.2-7.9 1-29.2 6.5-39 10-50.5 18.2-94.5 57.9-117.1 105.9-4.7 10-11.3 27-12.3 31.6-.3 1.3-1.5 6-2.6 10.4s-2.3 10-2.6 12.5c-.3 2.5-.8 5.4-1 6.5-2.4 11.1-2.3 46.4.1 59.5.2 1.4.7 4.1.9 6 .6 3.9.8 4.7 3 14 1.5 6.5 5.9 20.7 7.5 24.5.5 1.1 2.1 4.9 3.6 8.5 18.6 44 54.8 81.9 99.3 104 10.5 5.2 29 12.5 34.3 13.5 1.1.2 3 .7 4.2 1 1.2.4 3 .9 4 1.2 1.3.3.1-2.7-4.7-12.4-31.3-62.7-53.4-115-64-151.3-2.6-9-6.5-26.2-6.6-29.5-.4-10.6-.4-21.5 0-21.5.3 0 .5-1.2.4-2.8 0-1.5.3-4.3.7-6.2.4-1.9 1-5.1 1.3-7 .9-6 6.4-21.7 10.5-30 8.7-17.9 24.3-36.6 39.2-47.3 6.3-4.5 20.2-12.7 22.3-13.2.6-.1 2.8-.9 4.8-1.8 5.2-2.3 19.8-6.5 24.9-7.1 2.4-.3 5.5-.8 6.9-1.1 2.8-.7 24.4-.7 27.5-.1 1.1.2 4 .7 6.5 1.1 19.6 3 40 12.2 56.5 25.4 8.1 6.4 9.8 8.1 16.7 15.9 13.7 15.5 24.5 36.9 28.9 56.9.7 3.2 1.3 6 1.4 6.3.4 1.6 1.8 17.3 1.9 21.5.1 2.7-.4 8.6-1.1 13-.7 4.4-1.5 9.3-1.8 11-.2 1.6-1.2 5.5-2 8.5-.9 3-1.8 6.3-2 7.2-1.6 7-11.3 34.6-17.4 49.3-2.2 5.5-4.1 10.6-4.1 11.2 0 .7-.5 1.3-1.2 1.3-.6 0-.9.3-.6.6.6.5-1 4.4-7.3 18.2-1.6 3.4-2.9 6.4-2.9 6.6 0 1.2-24.6 52.9-34.7 72.9l-2.4 4.8 2.8-.7c10-2.4 31.6-10.4 41.8-15.5 10.1-5.1 30.8-17.7 32.5-19.9.3-.3 1.6-1.3 2.9-2.2 1.2-.9 5.5-4.5 9.4-8 18.3-16.3 30.2-30.7 43.4-52.3 4.2-7 15.7-32.4 15.4-34-.1-.3.5-1.8 1.2-3.3 1.4-2.6 5.7-17.5 6.3-21.7.2-1.1.5-3.1.9-4.5.3-1.4.8-4.1 1.1-6 .3-1.9.7-4.6 1-6 2.9-16 2-51.1-1.7-68-.5-2.5-1.1-5.5-1.4-6.7-.2-1.2-1.3-5.7-2.5-10-17.2-62.5-63.4-114.2-123.7-138.2-9.2-3.7-24.4-8.5-30.4-9.6-1.3-.3-4.6-.9-7.4-1.5-13.9-2.7-18.9-3.2-38.8-3.4-9.7-.1-17.8-.1-18 0z"/><path d="M482.8 501.6c-.3.2-2.7.6-5.3.9-20.1 2-37.8 16.2-45.6 36.5-6.7 17.3-3.2 39.3 8.6 54.3 4.4 5.6 14.7 14 19.3 15.8 1.2.5 3.4 1.4 5 2.1 1.5.6 3.8 1.3 5.1 1.5 1.4.2 3.2.8 4.1 1.3.9.5 6.3.7 12.1.6 12.4-.4 20.2-2.7 29.9-9.2 16.9-11.1 26.3-29.7 25.3-49.9-1.2-26.9-23.7-51-49.7-53.1-3.4-.3-6.6-.7-7.3-.9-.6-.2-1.3-.2-1.5.1z"/></svg>