<?xml version="1.0" standalone="no"?>
<!DOCTYPE svg PUBLIC "-//W3C//DTD SVG 20010904//EN"
 "http://www.w3.org/TR/2001/REC-SVG-20010904/DTD/svg10.dtd">
<svg version="1.0" xmlns="http://www.w3.org/2000/svg"
 width="700.000000pt" height="700.000000pt" viewBox="0 0 700.000000 700.000000"
 preserveAspectRatio="xMidYMid meet">
<metadata>
Created by potrace 1.11, written by Peter Selinger 2001-2013
</metadata>
<g transform="translate(0.000000,700.000000) scale(0.100000,-0.100000)"
fill="#000000" stroke="none">
<path d="M3231 6191 c-12 -7 -15 -47 -17 -193 -5 -344 -69 -668 -195 -988 -90
-227 -147 -310 -202 -296 -49 12 -58 30 -121 258 -18 65 -46 83 -76 52 -41
-42 -261 -463 -345 -660 -88 -205 -145 -414 -160 -584 -10 -117 12 -354 45
-486 194 -767 1063 -1156 1772 -793 372 191 621 555 669 978 13 112 5 403 -16
606 -49 467 -156 774 -384 1110 -107 158 -118 162 -167 66 -52 -102 -103 -143
-133 -108 -6 8 -22 58 -36 111 -85 326 -284 661 -512 863 -72 64 -99 78 -122
64z m175 -1874 c235 -174 389 -568 315 -807 l-20 -62 40 5 c51 7 98 43 139
106 17 28 38 51 45 51 18 0 52 -95 66 -182 18 -118 -5 -252 -67 -387 -63 -137
-225 -266 -379 -302 -27 -6 -90 -11 -140 -11 -149 0 -284 55 -401 164 -135
127 -204 288 -205 479 -1 146 38 209 228 373 60 51 132 119 161 151 96 105
142 228 142 383 0 45 4 82 9 82 5 0 35 -19 67 -43z"/>
<path d="M4430 2426 c-80 -29 -310 -113 -512 -186 -222 -80 -368 -138 -368
-145 0 -14 30 -27 445 -197 158 -65 289 -113 316 -116 39 -4 77 8 265 78 251
95 270 103 284 129 13 26 13 120 -1 179 -17 70 -81 202 -119 245 -73 83 -114
85 -310 13z"/>
<path d="M2204 2406 c-20 -9 -44 -34 -67 -72 -45 -75 -117 -221 -128 -257 -11
-38 7 -137 28 -158 10 -9 429 -188 930 -398 1014 -424 963 -402 963 -410 0 -4
-15 -15 -34 -25 -19 -10 -38 -26 -41 -34 -7 -18 90 -122 114 -122 7 0 68 16
135 36 115 34 126 36 215 30 85 -7 102 -12 193 -57 56 -27 109 -49 120 -49 57
0 172 172 198 296 17 80 9 177 -16 211 -29 40 -142 94 -464 222 -440 175
-2015 772 -2095 794 -11 4 -34 0 -51 -7z"/>
<path d="M2302 1441 c-122 -47 -232 -96 -243 -108 -80 -81 40 -420 172 -489
16 -8 42 -14 60 -14 17 0 250 79 518 176 597 216 559 201 540 218 -13 13 -252
115 -575 245 -118 48 -161 61 -200 60 -36 -1 -108 -24 -272 -88z"/>
</g>
</svg>
